G04 #@! TF.GenerationSoftware,KiCad,Pcbnew,7.0.7-7.0.7~ubuntu22.04.1*
G04 #@! TF.CreationDate,2023-09-23T23:40:23+02:00*
G04 #@! TF.ProjectId,Distrib,44697374-7269-4622-9e6b-696361645f70,rev?*
G04 #@! TF.SameCoordinates,Original*
G04 #@! TF.FileFunction,Copper,L1,Top*
G04 #@! TF.FilePolarity,Positive*
%FSLAX46Y46*%
G04 Gerber Fmt 4.6, Leading zero omitted, Abs format (unit mm)*
G04 Created by KiCad (PCBNEW 7.0.7-7.0.7~ubuntu22.04.1) date 2023-09-23 23:40:23*
%MOMM*%
%LPD*%
G01*
G04 APERTURE LIST*
G04 #@! TA.AperFunction,ComponentPad*
%ADD10R,1.800000X1.800000*%
G04 #@! TD*
G04 #@! TA.AperFunction,ComponentPad*
%ADD11C,1.800000*%
G04 #@! TD*
G04 #@! TA.AperFunction,ComponentPad*
%ADD12C,1.700000*%
G04 #@! TD*
G04 #@! TA.AperFunction,ComponentPad*
%ADD13C,1.600000*%
G04 #@! TD*
G04 #@! TA.AperFunction,ComponentPad*
%ADD14O,1.600000X1.600000*%
G04 #@! TD*
G04 #@! TA.AperFunction,ComponentPad*
%ADD15C,2.000000*%
G04 #@! TD*
G04 #@! TA.AperFunction,ComponentPad*
%ADD16R,3.000000X3.000000*%
G04 #@! TD*
G04 #@! TA.AperFunction,ComponentPad*
%ADD17C,3.000000*%
G04 #@! TD*
G04 #@! TA.AperFunction,ComponentPad*
%ADD18R,1.600000X1.600000*%
G04 #@! TD*
G04 #@! TA.AperFunction,ViaPad*
%ADD19C,4.200000*%
G04 #@! TD*
G04 #@! TA.AperFunction,Conductor*
%ADD20C,2.000000*%
G04 #@! TD*
G04 #@! TA.AperFunction,Conductor*
%ADD21C,0.600000*%
G04 #@! TD*
G04 APERTURE END LIST*
D10*
X111000000Y-55500000D03*
D11*
X113540000Y-55500000D03*
G04 #@! TA.AperFunction,ComponentPad*
G36*
G01*
X242610000Y-66440000D02*
X242610000Y-65240000D01*
G75*
G02*
X242860000Y-64990000I250000J0D01*
G01*
X244060000Y-64990000D01*
G75*
G02*
X244310000Y-65240000I0J-250000D01*
G01*
X244310000Y-66440000D01*
G75*
G02*
X244060000Y-66690000I-250000J0D01*
G01*
X242860000Y-66690000D01*
G75*
G02*
X242610000Y-66440000I0J250000D01*
G01*
G37*
G04 #@! TD.AperFunction*
D12*
X246000000Y-65840000D03*
X243460000Y-68380000D03*
X246000000Y-68380000D03*
X243460000Y-70920000D03*
X246000000Y-70920000D03*
X243460000Y-73460000D03*
X246000000Y-73460000D03*
X243460000Y-76000000D03*
X246000000Y-76000000D03*
D13*
X117925000Y-55500000D03*
D14*
X130625000Y-55500000D03*
D15*
X140500000Y-70500000D03*
X145500000Y-70500000D03*
X135500000Y-70500000D03*
D10*
X151500000Y-55500000D03*
D11*
X154040000Y-55500000D03*
D13*
X171350000Y-55500000D03*
D14*
X158650000Y-55500000D03*
G04 #@! TA.AperFunction,ComponentPad*
G36*
G01*
X35150000Y-66440000D02*
X35150000Y-65240000D01*
G75*
G02*
X35400000Y-64990000I250000J0D01*
G01*
X36600000Y-64990000D01*
G75*
G02*
X36850000Y-65240000I0J-250000D01*
G01*
X36850000Y-66440000D01*
G75*
G02*
X36600000Y-66690000I-250000J0D01*
G01*
X35400000Y-66690000D01*
G75*
G02*
X35150000Y-66440000I0J250000D01*
G01*
G37*
G04 #@! TD.AperFunction*
D12*
X38540000Y-65840000D03*
X36000000Y-68380000D03*
X38540000Y-68380000D03*
X36000000Y-70920000D03*
X38540000Y-70920000D03*
X36000000Y-73460000D03*
X38540000Y-73460000D03*
X36000000Y-76000000D03*
X38540000Y-76000000D03*
G04 #@! TA.AperFunction,ComponentPad*
G36*
G01*
X174610000Y-66440000D02*
X174610000Y-65240000D01*
G75*
G02*
X174860000Y-64990000I250000J0D01*
G01*
X176060000Y-64990000D01*
G75*
G02*
X176310000Y-65240000I0J-250000D01*
G01*
X176310000Y-66440000D01*
G75*
G02*
X176060000Y-66690000I-250000J0D01*
G01*
X174860000Y-66690000D01*
G75*
G02*
X174610000Y-66440000I0J250000D01*
G01*
G37*
G04 #@! TD.AperFunction*
X178000000Y-65840000D03*
X175460000Y-68380000D03*
X178000000Y-68380000D03*
X175460000Y-70920000D03*
X178000000Y-70920000D03*
X175460000Y-73460000D03*
X178000000Y-73460000D03*
X175460000Y-76000000D03*
X178000000Y-76000000D03*
D16*
X135420000Y-56000000D03*
D17*
X140500000Y-56000000D03*
X145580000Y-56000000D03*
D18*
X154000000Y-86000000D03*
D13*
X152000000Y-86000000D03*
G04 #@! TA.AperFunction,ComponentPad*
G36*
G01*
X86150000Y-66440000D02*
X86150000Y-65240000D01*
G75*
G02*
X86400000Y-64990000I250000J0D01*
G01*
X87600000Y-64990000D01*
G75*
G02*
X87850000Y-65240000I0J-250000D01*
G01*
X87850000Y-66440000D01*
G75*
G02*
X87600000Y-66690000I-250000J0D01*
G01*
X86400000Y-66690000D01*
G75*
G02*
X86150000Y-66440000I0J250000D01*
G01*
G37*
G04 #@! TD.AperFunction*
D12*
X89540000Y-65840000D03*
X87000000Y-68380000D03*
X89540000Y-68380000D03*
X87000000Y-70920000D03*
X89540000Y-70920000D03*
X87000000Y-73460000D03*
X89540000Y-73460000D03*
X87000000Y-76000000D03*
X89540000Y-76000000D03*
G04 #@! TA.AperFunction,ComponentPad*
G36*
G01*
X208610000Y-66440000D02*
X208610000Y-65240000D01*
G75*
G02*
X208860000Y-64990000I250000J0D01*
G01*
X210060000Y-64990000D01*
G75*
G02*
X210310000Y-65240000I0J-250000D01*
G01*
X210310000Y-66440000D01*
G75*
G02*
X210060000Y-66690000I-250000J0D01*
G01*
X208860000Y-66690000D01*
G75*
G02*
X208610000Y-66440000I0J250000D01*
G01*
G37*
G04 #@! TD.AperFunction*
X212000000Y-65840000D03*
X209460000Y-68380000D03*
X212000000Y-68380000D03*
X209460000Y-70920000D03*
X212000000Y-70920000D03*
X209460000Y-73460000D03*
X212000000Y-73460000D03*
X209460000Y-76000000D03*
X212000000Y-76000000D03*
G04 #@! TA.AperFunction,ComponentPad*
G36*
G01*
X120150000Y-66440000D02*
X120150000Y-65240000D01*
G75*
G02*
X120400000Y-64990000I250000J0D01*
G01*
X121600000Y-64990000D01*
G75*
G02*
X121850000Y-65240000I0J-250000D01*
G01*
X121850000Y-66440000D01*
G75*
G02*
X121600000Y-66690000I-250000J0D01*
G01*
X120400000Y-66690000D01*
G75*
G02*
X120150000Y-66440000I0J250000D01*
G01*
G37*
G04 #@! TD.AperFunction*
X123540000Y-65840000D03*
X121000000Y-68380000D03*
X123540000Y-68380000D03*
X121000000Y-70920000D03*
X123540000Y-70920000D03*
X121000000Y-73460000D03*
X123540000Y-73460000D03*
X121000000Y-76000000D03*
X123540000Y-76000000D03*
G04 #@! TA.AperFunction,ComponentPad*
G36*
G01*
X191610000Y-66440000D02*
X191610000Y-65240000D01*
G75*
G02*
X191860000Y-64990000I250000J0D01*
G01*
X193060000Y-64990000D01*
G75*
G02*
X193310000Y-65240000I0J-250000D01*
G01*
X193310000Y-66440000D01*
G75*
G02*
X193060000Y-66690000I-250000J0D01*
G01*
X191860000Y-66690000D01*
G75*
G02*
X191610000Y-66440000I0J250000D01*
G01*
G37*
G04 #@! TD.AperFunction*
X195000000Y-65840000D03*
X192460000Y-68380000D03*
X195000000Y-68380000D03*
X192460000Y-70920000D03*
X195000000Y-70920000D03*
X192460000Y-73460000D03*
X195000000Y-73460000D03*
X192460000Y-76000000D03*
X195000000Y-76000000D03*
G04 #@! TA.AperFunction,ComponentPad*
G36*
G01*
X225610000Y-66440000D02*
X225610000Y-65240000D01*
G75*
G02*
X225860000Y-64990000I250000J0D01*
G01*
X227060000Y-64990000D01*
G75*
G02*
X227310000Y-65240000I0J-250000D01*
G01*
X227310000Y-66440000D01*
G75*
G02*
X227060000Y-66690000I-250000J0D01*
G01*
X225860000Y-66690000D01*
G75*
G02*
X225610000Y-66440000I0J250000D01*
G01*
G37*
G04 #@! TD.AperFunction*
X229000000Y-65840000D03*
X226460000Y-68380000D03*
X229000000Y-68380000D03*
X226460000Y-70920000D03*
X229000000Y-70920000D03*
X226460000Y-73460000D03*
X229000000Y-73460000D03*
X226460000Y-76000000D03*
X229000000Y-76000000D03*
D16*
X145580000Y-86000000D03*
D17*
X140500000Y-86000000D03*
X135420000Y-86000000D03*
G04 #@! TA.AperFunction,ComponentPad*
G36*
G01*
X103150000Y-66440000D02*
X103150000Y-65240000D01*
G75*
G02*
X103400000Y-64990000I250000J0D01*
G01*
X104600000Y-64990000D01*
G75*
G02*
X104850000Y-65240000I0J-250000D01*
G01*
X104850000Y-66440000D01*
G75*
G02*
X104600000Y-66690000I-250000J0D01*
G01*
X103400000Y-66690000D01*
G75*
G02*
X103150000Y-66440000I0J250000D01*
G01*
G37*
G04 #@! TD.AperFunction*
D12*
X106540000Y-65840000D03*
X104000000Y-68380000D03*
X106540000Y-68380000D03*
X104000000Y-70920000D03*
X106540000Y-70920000D03*
X104000000Y-73460000D03*
X106540000Y-73460000D03*
X104000000Y-76000000D03*
X106540000Y-76000000D03*
D18*
X129000000Y-86000000D03*
D13*
X127000000Y-86000000D03*
G04 #@! TA.AperFunction,ComponentPad*
G36*
G01*
X157610000Y-66440000D02*
X157610000Y-65240000D01*
G75*
G02*
X157860000Y-64990000I250000J0D01*
G01*
X159060000Y-64990000D01*
G75*
G02*
X159310000Y-65240000I0J-250000D01*
G01*
X159310000Y-66440000D01*
G75*
G02*
X159060000Y-66690000I-250000J0D01*
G01*
X157860000Y-66690000D01*
G75*
G02*
X157610000Y-66440000I0J250000D01*
G01*
G37*
G04 #@! TD.AperFunction*
D12*
X161000000Y-65840000D03*
X158460000Y-68380000D03*
X161000000Y-68380000D03*
X158460000Y-70920000D03*
X161000000Y-70920000D03*
X158460000Y-73460000D03*
X161000000Y-73460000D03*
X158460000Y-76000000D03*
X161000000Y-76000000D03*
G04 #@! TA.AperFunction,ComponentPad*
G36*
G01*
X69150000Y-66440000D02*
X69150000Y-65240000D01*
G75*
G02*
X69400000Y-64990000I250000J0D01*
G01*
X70600000Y-64990000D01*
G75*
G02*
X70850000Y-65240000I0J-250000D01*
G01*
X70850000Y-66440000D01*
G75*
G02*
X70600000Y-66690000I-250000J0D01*
G01*
X69400000Y-66690000D01*
G75*
G02*
X69150000Y-66440000I0J250000D01*
G01*
G37*
G04 #@! TD.AperFunction*
X72540000Y-65840000D03*
X70000000Y-68380000D03*
X72540000Y-68380000D03*
X70000000Y-70920000D03*
X72540000Y-70920000D03*
X70000000Y-73460000D03*
X72540000Y-73460000D03*
X70000000Y-76000000D03*
X72540000Y-76000000D03*
G04 #@! TA.AperFunction,ComponentPad*
G36*
G01*
X52150000Y-66440000D02*
X52150000Y-65240000D01*
G75*
G02*
X52400000Y-64990000I250000J0D01*
G01*
X53600000Y-64990000D01*
G75*
G02*
X53850000Y-65240000I0J-250000D01*
G01*
X53850000Y-66440000D01*
G75*
G02*
X53600000Y-66690000I-250000J0D01*
G01*
X52400000Y-66690000D01*
G75*
G02*
X52150000Y-66440000I0J250000D01*
G01*
G37*
G04 #@! TD.AperFunction*
X55540000Y-65840000D03*
X53000000Y-68380000D03*
X55540000Y-68380000D03*
X53000000Y-70920000D03*
X55540000Y-70920000D03*
X53000000Y-73460000D03*
X55540000Y-73460000D03*
X53000000Y-76000000D03*
X55540000Y-76000000D03*
D19*
X54000000Y-57000000D03*
X228000000Y-57000000D03*
X54000000Y-85000000D03*
X228000000Y-85000000D03*
D20*
X135420000Y-70420000D02*
X135500000Y-70500000D01*
D21*
X134920000Y-55500000D02*
X135420000Y-56000000D01*
D20*
X135420000Y-86000000D02*
X135420000Y-70580000D01*
X123540000Y-76000000D02*
X130000000Y-76000000D01*
X246000000Y-76000000D02*
X158460000Y-76000000D01*
D21*
X129000000Y-86000000D02*
X135420000Y-86000000D01*
D20*
X135420000Y-70580000D02*
X135500000Y-70500000D01*
X135420000Y-56000000D02*
X135420000Y-70420000D01*
X141000000Y-76000000D02*
X135500000Y-70500000D01*
D21*
X130625000Y-55500000D02*
X134920000Y-55500000D01*
D20*
X130000000Y-76000000D02*
X135500000Y-70500000D01*
X36000000Y-76000000D02*
X123540000Y-76000000D01*
X158460000Y-76000000D02*
X141000000Y-76000000D01*
D21*
X151500000Y-55500000D02*
X146080000Y-55500000D01*
D20*
X150160000Y-65840000D02*
X145500000Y-70500000D01*
D21*
X146080000Y-55500000D02*
X145580000Y-56000000D01*
D20*
X158460000Y-65840000D02*
X150160000Y-65840000D01*
X158460000Y-65840000D02*
X246000000Y-65840000D01*
X36000000Y-65840000D02*
X123540000Y-65840000D01*
D21*
X117925000Y-55500000D02*
X113540000Y-55500000D01*
X154040000Y-55500000D02*
X158650000Y-55500000D01*
G04 #@! TA.AperFunction,Conductor*
G36*
X51887068Y-67368502D02*
G01*
X51933561Y-67422158D01*
X51943665Y-67492432D01*
X51924430Y-67543415D01*
X51801581Y-67731448D01*
X51711179Y-67937543D01*
X51711176Y-67937550D01*
X51655932Y-68155707D01*
X51637346Y-68379999D01*
X51655932Y-68604292D01*
X51711176Y-68822449D01*
X51711179Y-68822456D01*
X51801580Y-69028548D01*
X51876922Y-69143866D01*
X52387081Y-68633706D01*
X52449394Y-68599681D01*
X52520209Y-68604745D01*
X52577045Y-68647292D01*
X52582162Y-68654661D01*
X52618239Y-68710798D01*
X52726900Y-68804952D01*
X52726901Y-68804952D01*
X52733711Y-68810853D01*
X52731686Y-68813189D01*
X52768084Y-68855187D01*
X52778195Y-68925460D01*
X52748709Y-68990043D01*
X52742572Y-68996636D01*
X52234310Y-69504898D01*
X52254694Y-69520763D01*
X52254696Y-69520765D01*
X52288733Y-69539185D01*
X52339123Y-69589199D01*
X52354475Y-69658516D01*
X52329914Y-69725129D01*
X52288735Y-69760811D01*
X52254702Y-69779229D01*
X52234310Y-69795099D01*
X52234310Y-69795100D01*
X52742572Y-70303361D01*
X52776597Y-70365674D01*
X52771533Y-70436489D01*
X52732854Y-70488157D01*
X52733711Y-70489147D01*
X52729164Y-70493086D01*
X52728986Y-70493325D01*
X52728498Y-70493663D01*
X52618238Y-70589202D01*
X52582175Y-70645318D01*
X52528519Y-70691811D01*
X52458245Y-70701914D01*
X52393664Y-70672421D01*
X52387082Y-70666292D01*
X51876922Y-70156132D01*
X51801580Y-70271451D01*
X51711179Y-70477543D01*
X51711176Y-70477550D01*
X51655932Y-70695707D01*
X51637346Y-70919999D01*
X51655932Y-71144292D01*
X51711176Y-71362449D01*
X51711179Y-71362456D01*
X51801580Y-71568548D01*
X51876922Y-71683866D01*
X52387081Y-71173706D01*
X52449394Y-71139681D01*
X52520209Y-71144745D01*
X52577045Y-71187292D01*
X52582162Y-71194661D01*
X52618239Y-71250798D01*
X52726900Y-71344952D01*
X52726901Y-71344952D01*
X52733711Y-71350853D01*
X52731686Y-71353189D01*
X52768084Y-71395187D01*
X52778195Y-71465460D01*
X52748709Y-71530043D01*
X52742572Y-71536636D01*
X52234310Y-72044898D01*
X52254694Y-72060763D01*
X52254696Y-72060765D01*
X52288733Y-72079185D01*
X52339123Y-72129199D01*
X52354475Y-72198516D01*
X52329914Y-72265129D01*
X52288735Y-72300811D01*
X52254702Y-72319229D01*
X52234310Y-72335099D01*
X52234310Y-72335100D01*
X52742572Y-72843361D01*
X52776597Y-72905674D01*
X52771533Y-72976489D01*
X52732854Y-73028157D01*
X52733711Y-73029147D01*
X52729164Y-73033086D01*
X52728986Y-73033325D01*
X52728498Y-73033663D01*
X52618238Y-73129202D01*
X52582175Y-73185318D01*
X52528519Y-73231811D01*
X52458245Y-73241914D01*
X52393664Y-73212421D01*
X52387082Y-73206292D01*
X51876922Y-72696132D01*
X51801580Y-72811451D01*
X51711179Y-73017543D01*
X51711176Y-73017550D01*
X51655932Y-73235707D01*
X51637346Y-73460000D01*
X51655932Y-73684292D01*
X51711176Y-73902449D01*
X51711179Y-73902456D01*
X51801581Y-74108551D01*
X51924430Y-74296585D01*
X51944943Y-74364553D01*
X51925454Y-74432822D01*
X51872149Y-74479717D01*
X51818947Y-74491500D01*
X39721053Y-74491500D01*
X39652932Y-74471498D01*
X39606439Y-74417842D01*
X39596335Y-74347568D01*
X39615570Y-74296585D01*
X39738418Y-74108551D01*
X39828820Y-73902456D01*
X39828823Y-73902449D01*
X39884067Y-73684292D01*
X39902653Y-73459999D01*
X39884067Y-73235707D01*
X39828823Y-73017550D01*
X39828820Y-73017543D01*
X39738422Y-72811456D01*
X39738417Y-72811448D01*
X39663076Y-72696132D01*
X39152916Y-73206292D01*
X39090604Y-73240317D01*
X39019788Y-73235252D01*
X38962953Y-73192705D01*
X38957836Y-73185336D01*
X38921761Y-73129202D01*
X38813100Y-73035048D01*
X38813098Y-73035047D01*
X38806289Y-73029147D01*
X38808312Y-73026811D01*
X38771912Y-72984809D01*
X38761802Y-72914536D01*
X38791290Y-72849952D01*
X38797426Y-72843361D01*
X39305689Y-72335099D01*
X39285306Y-72319235D01*
X39285299Y-72319230D01*
X39251265Y-72300812D01*
X39200876Y-72250798D01*
X39185524Y-72181481D01*
X39210086Y-72114869D01*
X39251269Y-72079184D01*
X39285299Y-72060768D01*
X39285302Y-72060766D01*
X39305688Y-72044898D01*
X38797427Y-71536638D01*
X38763402Y-71474325D01*
X38768466Y-71403510D01*
X38807145Y-71351840D01*
X38806289Y-71350853D01*
X38810830Y-71346917D01*
X38811013Y-71346674D01*
X38811510Y-71346328D01*
X38813095Y-71344953D01*
X38813100Y-71344952D01*
X38921761Y-71250798D01*
X38957824Y-71194681D01*
X39011478Y-71148189D01*
X39081752Y-71138084D01*
X39146333Y-71167576D01*
X39152918Y-71173707D01*
X39663077Y-71683866D01*
X39738419Y-71568551D01*
X39828820Y-71362456D01*
X39828823Y-71362449D01*
X39884067Y-71144292D01*
X39902653Y-70920000D01*
X39884067Y-70695707D01*
X39828823Y-70477550D01*
X39828820Y-70477543D01*
X39738422Y-70271456D01*
X39738417Y-70271448D01*
X39663076Y-70156132D01*
X39152916Y-70666292D01*
X39090604Y-70700317D01*
X39019788Y-70695252D01*
X38962953Y-70652705D01*
X38957836Y-70645336D01*
X38921761Y-70589202D01*
X38813100Y-70495048D01*
X38813098Y-70495047D01*
X38806289Y-70489147D01*
X38808312Y-70486811D01*
X38771912Y-70444809D01*
X38761802Y-70374536D01*
X38791290Y-70309952D01*
X38797426Y-70303361D01*
X39305689Y-69795099D01*
X39285306Y-69779235D01*
X39285299Y-69779230D01*
X39251265Y-69760812D01*
X39200876Y-69710798D01*
X39185524Y-69641481D01*
X39210086Y-69574869D01*
X39251269Y-69539184D01*
X39285299Y-69520768D01*
X39285302Y-69520766D01*
X39305688Y-69504898D01*
X38797427Y-68996638D01*
X38763402Y-68934325D01*
X38768466Y-68863510D01*
X38807145Y-68811840D01*
X38806289Y-68810853D01*
X38810830Y-68806917D01*
X38811013Y-68806674D01*
X38811510Y-68806328D01*
X38813095Y-68804953D01*
X38813100Y-68804952D01*
X38921761Y-68710798D01*
X38957824Y-68654681D01*
X39011478Y-68608189D01*
X39081752Y-68598084D01*
X39146333Y-68627576D01*
X39152918Y-68633707D01*
X39663077Y-69143866D01*
X39738419Y-69028551D01*
X39828820Y-68822456D01*
X39828823Y-68822449D01*
X39884067Y-68604292D01*
X39902653Y-68380000D01*
X39884067Y-68155707D01*
X39828823Y-67937550D01*
X39828820Y-67937543D01*
X39738418Y-67731448D01*
X39615570Y-67543415D01*
X39595057Y-67475447D01*
X39614546Y-67407178D01*
X39667851Y-67360283D01*
X39721053Y-67348500D01*
X51818947Y-67348500D01*
X51887068Y-67368502D01*
G37*
G04 #@! TD.AperFunction*
G04 #@! TA.AperFunction,Conductor*
G36*
X68887068Y-67368502D02*
G01*
X68933561Y-67422158D01*
X68943665Y-67492432D01*
X68924430Y-67543415D01*
X68801581Y-67731448D01*
X68711179Y-67937543D01*
X68711176Y-67937550D01*
X68655932Y-68155707D01*
X68637346Y-68380000D01*
X68655932Y-68604292D01*
X68711176Y-68822449D01*
X68711179Y-68822456D01*
X68801580Y-69028548D01*
X68876922Y-69143866D01*
X69387081Y-68633706D01*
X69449394Y-68599681D01*
X69520209Y-68604745D01*
X69577045Y-68647292D01*
X69582162Y-68654661D01*
X69618239Y-68710798D01*
X69726900Y-68804952D01*
X69726901Y-68804952D01*
X69733711Y-68810853D01*
X69731686Y-68813189D01*
X69768084Y-68855187D01*
X69778195Y-68925460D01*
X69748709Y-68990043D01*
X69742572Y-68996636D01*
X69234310Y-69504898D01*
X69254694Y-69520763D01*
X69254696Y-69520765D01*
X69288733Y-69539185D01*
X69339123Y-69589199D01*
X69354475Y-69658516D01*
X69329914Y-69725129D01*
X69288735Y-69760811D01*
X69254702Y-69779229D01*
X69234310Y-69795099D01*
X69234310Y-69795100D01*
X69742572Y-70303361D01*
X69776597Y-70365674D01*
X69771533Y-70436489D01*
X69732854Y-70488157D01*
X69733711Y-70489147D01*
X69729164Y-70493086D01*
X69728986Y-70493325D01*
X69728498Y-70493663D01*
X69618238Y-70589202D01*
X69582175Y-70645318D01*
X69528519Y-70691811D01*
X69458245Y-70701914D01*
X69393664Y-70672421D01*
X69387082Y-70666292D01*
X68876922Y-70156132D01*
X68801580Y-70271451D01*
X68711179Y-70477543D01*
X68711176Y-70477550D01*
X68655932Y-70695707D01*
X68637346Y-70919999D01*
X68655932Y-71144292D01*
X68711176Y-71362449D01*
X68711179Y-71362456D01*
X68801580Y-71568548D01*
X68876922Y-71683866D01*
X69387081Y-71173706D01*
X69449394Y-71139681D01*
X69520209Y-71144745D01*
X69577045Y-71187292D01*
X69582162Y-71194661D01*
X69618239Y-71250798D01*
X69726900Y-71344952D01*
X69726901Y-71344952D01*
X69733711Y-71350853D01*
X69731686Y-71353189D01*
X69768084Y-71395187D01*
X69778195Y-71465460D01*
X69748709Y-71530043D01*
X69742572Y-71536636D01*
X69234310Y-72044898D01*
X69254694Y-72060763D01*
X69254696Y-72060765D01*
X69288733Y-72079185D01*
X69339123Y-72129199D01*
X69354475Y-72198516D01*
X69329914Y-72265129D01*
X69288735Y-72300811D01*
X69254702Y-72319229D01*
X69234310Y-72335099D01*
X69234310Y-72335100D01*
X69742572Y-72843361D01*
X69776597Y-72905674D01*
X69771533Y-72976489D01*
X69732854Y-73028157D01*
X69733711Y-73029147D01*
X69729164Y-73033086D01*
X69728986Y-73033325D01*
X69728498Y-73033663D01*
X69618238Y-73129202D01*
X69582175Y-73185318D01*
X69528519Y-73231811D01*
X69458245Y-73241914D01*
X69393664Y-73212421D01*
X69387082Y-73206292D01*
X68876922Y-72696132D01*
X68801580Y-72811451D01*
X68711179Y-73017543D01*
X68711176Y-73017550D01*
X68655932Y-73235707D01*
X68637346Y-73460000D01*
X68655932Y-73684292D01*
X68711176Y-73902449D01*
X68711179Y-73902456D01*
X68801581Y-74108551D01*
X68924430Y-74296585D01*
X68944943Y-74364553D01*
X68925454Y-74432822D01*
X68872149Y-74479717D01*
X68818947Y-74491500D01*
X56721053Y-74491500D01*
X56652932Y-74471498D01*
X56606439Y-74417842D01*
X56596335Y-74347568D01*
X56615570Y-74296585D01*
X56738418Y-74108551D01*
X56828820Y-73902456D01*
X56828823Y-73902449D01*
X56884067Y-73684292D01*
X56902653Y-73459999D01*
X56884067Y-73235707D01*
X56828823Y-73017550D01*
X56828820Y-73017543D01*
X56738422Y-72811456D01*
X56738417Y-72811448D01*
X56663076Y-72696132D01*
X56152916Y-73206292D01*
X56090604Y-73240317D01*
X56019788Y-73235252D01*
X55962953Y-73192705D01*
X55957836Y-73185336D01*
X55921761Y-73129202D01*
X55813100Y-73035048D01*
X55813098Y-73035047D01*
X55806289Y-73029147D01*
X55808312Y-73026811D01*
X55771912Y-72984809D01*
X55761802Y-72914536D01*
X55791290Y-72849952D01*
X55797426Y-72843361D01*
X56305688Y-72335099D01*
X56285306Y-72319235D01*
X56285299Y-72319230D01*
X56251265Y-72300812D01*
X56200876Y-72250798D01*
X56185524Y-72181481D01*
X56210086Y-72114869D01*
X56251269Y-72079184D01*
X56285299Y-72060768D01*
X56285302Y-72060766D01*
X56305688Y-72044898D01*
X55797427Y-71536638D01*
X55763402Y-71474325D01*
X55768466Y-71403510D01*
X55807145Y-71351840D01*
X55806289Y-71350853D01*
X55810830Y-71346917D01*
X55811013Y-71346674D01*
X55811510Y-71346328D01*
X55813095Y-71344953D01*
X55813100Y-71344952D01*
X55921761Y-71250798D01*
X55957824Y-71194681D01*
X56011478Y-71148189D01*
X56081752Y-71138084D01*
X56146333Y-71167576D01*
X56152918Y-71173707D01*
X56663077Y-71683866D01*
X56738419Y-71568551D01*
X56828820Y-71362456D01*
X56828823Y-71362449D01*
X56884067Y-71144292D01*
X56902653Y-70920000D01*
X56884067Y-70695707D01*
X56828823Y-70477550D01*
X56828820Y-70477543D01*
X56738422Y-70271456D01*
X56738417Y-70271448D01*
X56663076Y-70156132D01*
X56152916Y-70666292D01*
X56090604Y-70700317D01*
X56019788Y-70695252D01*
X55962953Y-70652705D01*
X55957836Y-70645336D01*
X55921761Y-70589202D01*
X55813100Y-70495048D01*
X55813098Y-70495047D01*
X55806289Y-70489147D01*
X55808312Y-70486811D01*
X55771912Y-70444809D01*
X55761802Y-70374536D01*
X55791290Y-70309952D01*
X55797426Y-70303361D01*
X56305689Y-69795099D01*
X56285306Y-69779235D01*
X56285299Y-69779230D01*
X56251265Y-69760812D01*
X56200876Y-69710798D01*
X56185524Y-69641481D01*
X56210086Y-69574869D01*
X56251269Y-69539184D01*
X56285299Y-69520768D01*
X56285302Y-69520766D01*
X56305688Y-69504898D01*
X55797427Y-68996638D01*
X55763402Y-68934325D01*
X55768466Y-68863510D01*
X55807145Y-68811840D01*
X55806289Y-68810853D01*
X55810830Y-68806917D01*
X55811013Y-68806674D01*
X55811510Y-68806328D01*
X55813095Y-68804953D01*
X55813100Y-68804952D01*
X55921761Y-68710798D01*
X55957824Y-68654681D01*
X56011478Y-68608189D01*
X56081752Y-68598084D01*
X56146333Y-68627576D01*
X56152918Y-68633707D01*
X56663077Y-69143866D01*
X56738419Y-69028551D01*
X56828820Y-68822456D01*
X56828823Y-68822449D01*
X56884067Y-68604292D01*
X56902653Y-68379999D01*
X56884067Y-68155707D01*
X56828823Y-67937550D01*
X56828820Y-67937543D01*
X56738418Y-67731448D01*
X56615570Y-67543415D01*
X56595057Y-67475447D01*
X56614546Y-67407178D01*
X56667851Y-67360283D01*
X56721053Y-67348500D01*
X68818947Y-67348500D01*
X68887068Y-67368502D01*
G37*
G04 #@! TD.AperFunction*
G04 #@! TA.AperFunction,Conductor*
G36*
X85887068Y-67368502D02*
G01*
X85933561Y-67422158D01*
X85943665Y-67492432D01*
X85924430Y-67543415D01*
X85801581Y-67731448D01*
X85711179Y-67937543D01*
X85711176Y-67937550D01*
X85655932Y-68155707D01*
X85637346Y-68379999D01*
X85655932Y-68604292D01*
X85711176Y-68822449D01*
X85711179Y-68822456D01*
X85801580Y-69028548D01*
X85876922Y-69143866D01*
X86387081Y-68633706D01*
X86449394Y-68599681D01*
X86520209Y-68604745D01*
X86577045Y-68647292D01*
X86582162Y-68654661D01*
X86618239Y-68710798D01*
X86726900Y-68804952D01*
X86726901Y-68804952D01*
X86733711Y-68810853D01*
X86731686Y-68813189D01*
X86768084Y-68855187D01*
X86778195Y-68925460D01*
X86748709Y-68990043D01*
X86742572Y-68996636D01*
X86234310Y-69504898D01*
X86254694Y-69520763D01*
X86254696Y-69520765D01*
X86288733Y-69539185D01*
X86339123Y-69589199D01*
X86354475Y-69658516D01*
X86329914Y-69725129D01*
X86288735Y-69760811D01*
X86254702Y-69779229D01*
X86234310Y-69795099D01*
X86234310Y-69795100D01*
X86742572Y-70303361D01*
X86776597Y-70365674D01*
X86771533Y-70436489D01*
X86732854Y-70488157D01*
X86733711Y-70489147D01*
X86729164Y-70493086D01*
X86728986Y-70493325D01*
X86728498Y-70493663D01*
X86618238Y-70589202D01*
X86582175Y-70645318D01*
X86528519Y-70691811D01*
X86458245Y-70701914D01*
X86393664Y-70672421D01*
X86387082Y-70666292D01*
X85876922Y-70156132D01*
X85801580Y-70271451D01*
X85711179Y-70477543D01*
X85711176Y-70477550D01*
X85655932Y-70695707D01*
X85637346Y-70920000D01*
X85655932Y-71144292D01*
X85711176Y-71362449D01*
X85711179Y-71362456D01*
X85801580Y-71568548D01*
X85876922Y-71683866D01*
X86387081Y-71173706D01*
X86449394Y-71139681D01*
X86520209Y-71144745D01*
X86577045Y-71187292D01*
X86582162Y-71194661D01*
X86618239Y-71250798D01*
X86726900Y-71344952D01*
X86726901Y-71344952D01*
X86733711Y-71350853D01*
X86731686Y-71353189D01*
X86768084Y-71395187D01*
X86778195Y-71465460D01*
X86748709Y-71530043D01*
X86742572Y-71536636D01*
X86234310Y-72044898D01*
X86254694Y-72060763D01*
X86254696Y-72060765D01*
X86288733Y-72079185D01*
X86339123Y-72129199D01*
X86354475Y-72198516D01*
X86329914Y-72265129D01*
X86288735Y-72300811D01*
X86254702Y-72319229D01*
X86234310Y-72335099D01*
X86234310Y-72335100D01*
X86742572Y-72843361D01*
X86776597Y-72905674D01*
X86771533Y-72976489D01*
X86732854Y-73028157D01*
X86733711Y-73029147D01*
X86729164Y-73033086D01*
X86728986Y-73033325D01*
X86728498Y-73033663D01*
X86618238Y-73129202D01*
X86582175Y-73185318D01*
X86528519Y-73231811D01*
X86458245Y-73241914D01*
X86393664Y-73212421D01*
X86387082Y-73206292D01*
X85876922Y-72696132D01*
X85801580Y-72811451D01*
X85711179Y-73017543D01*
X85711176Y-73017550D01*
X85655932Y-73235707D01*
X85637346Y-73460000D01*
X85655932Y-73684292D01*
X85711176Y-73902449D01*
X85711179Y-73902456D01*
X85801581Y-74108551D01*
X85924430Y-74296585D01*
X85944943Y-74364553D01*
X85925454Y-74432822D01*
X85872149Y-74479717D01*
X85818947Y-74491500D01*
X73721053Y-74491500D01*
X73652932Y-74471498D01*
X73606439Y-74417842D01*
X73596335Y-74347568D01*
X73615570Y-74296585D01*
X73738418Y-74108551D01*
X73828820Y-73902456D01*
X73828823Y-73902449D01*
X73884067Y-73684292D01*
X73902653Y-73459999D01*
X73884067Y-73235707D01*
X73828823Y-73017550D01*
X73828820Y-73017543D01*
X73738422Y-72811456D01*
X73738417Y-72811448D01*
X73663076Y-72696132D01*
X73152916Y-73206292D01*
X73090604Y-73240317D01*
X73019788Y-73235252D01*
X72962953Y-73192705D01*
X72957836Y-73185336D01*
X72921761Y-73129202D01*
X72813100Y-73035048D01*
X72813098Y-73035047D01*
X72806289Y-73029147D01*
X72808312Y-73026811D01*
X72771912Y-72984809D01*
X72761802Y-72914536D01*
X72791290Y-72849952D01*
X72797426Y-72843361D01*
X73305689Y-72335099D01*
X73285306Y-72319235D01*
X73285299Y-72319230D01*
X73251265Y-72300812D01*
X73200876Y-72250798D01*
X73185524Y-72181481D01*
X73210086Y-72114869D01*
X73251269Y-72079184D01*
X73285299Y-72060768D01*
X73285302Y-72060766D01*
X73305688Y-72044898D01*
X72797427Y-71536638D01*
X72763402Y-71474325D01*
X72768466Y-71403510D01*
X72807145Y-71351840D01*
X72806289Y-71350853D01*
X72810830Y-71346917D01*
X72811013Y-71346674D01*
X72811510Y-71346328D01*
X72813095Y-71344953D01*
X72813100Y-71344952D01*
X72921761Y-71250798D01*
X72957824Y-71194681D01*
X73011478Y-71148189D01*
X73081752Y-71138084D01*
X73146333Y-71167576D01*
X73152918Y-71173707D01*
X73663077Y-71683866D01*
X73738419Y-71568551D01*
X73828820Y-71362456D01*
X73828823Y-71362449D01*
X73884067Y-71144292D01*
X73902653Y-70920000D01*
X73884067Y-70695707D01*
X73828823Y-70477550D01*
X73828820Y-70477543D01*
X73738422Y-70271456D01*
X73738417Y-70271448D01*
X73663076Y-70156132D01*
X73152916Y-70666292D01*
X73090604Y-70700317D01*
X73019788Y-70695252D01*
X72962953Y-70652705D01*
X72957836Y-70645336D01*
X72921761Y-70589202D01*
X72813100Y-70495048D01*
X72813098Y-70495047D01*
X72806289Y-70489147D01*
X72808312Y-70486811D01*
X72771912Y-70444809D01*
X72761802Y-70374536D01*
X72791290Y-70309952D01*
X72797426Y-70303361D01*
X73305689Y-69795099D01*
X73285306Y-69779235D01*
X73285299Y-69779230D01*
X73251265Y-69760812D01*
X73200876Y-69710798D01*
X73185524Y-69641481D01*
X73210086Y-69574869D01*
X73251269Y-69539184D01*
X73285299Y-69520768D01*
X73285302Y-69520766D01*
X73305688Y-69504898D01*
X72797427Y-68996638D01*
X72763402Y-68934325D01*
X72768466Y-68863510D01*
X72807145Y-68811840D01*
X72806289Y-68810853D01*
X72810830Y-68806917D01*
X72811013Y-68806674D01*
X72811510Y-68806328D01*
X72813095Y-68804953D01*
X72813100Y-68804952D01*
X72921761Y-68710798D01*
X72957824Y-68654681D01*
X73011478Y-68608189D01*
X73081752Y-68598084D01*
X73146333Y-68627576D01*
X73152918Y-68633707D01*
X73663077Y-69143866D01*
X73738419Y-69028551D01*
X73828820Y-68822456D01*
X73828823Y-68822449D01*
X73884067Y-68604292D01*
X73902653Y-68379999D01*
X73884067Y-68155707D01*
X73828823Y-67937550D01*
X73828820Y-67937543D01*
X73738418Y-67731448D01*
X73615570Y-67543415D01*
X73595057Y-67475447D01*
X73614546Y-67407178D01*
X73667851Y-67360283D01*
X73721053Y-67348500D01*
X85818947Y-67348500D01*
X85887068Y-67368502D01*
G37*
G04 #@! TD.AperFunction*
G04 #@! TA.AperFunction,Conductor*
G36*
X102887068Y-67368502D02*
G01*
X102933561Y-67422158D01*
X102943665Y-67492432D01*
X102924430Y-67543415D01*
X102801581Y-67731448D01*
X102711179Y-67937543D01*
X102711176Y-67937550D01*
X102655932Y-68155707D01*
X102637346Y-68379999D01*
X102655932Y-68604292D01*
X102711176Y-68822449D01*
X102711179Y-68822456D01*
X102801580Y-69028548D01*
X102876922Y-69143866D01*
X103387081Y-68633706D01*
X103449394Y-68599681D01*
X103520209Y-68604745D01*
X103577045Y-68647292D01*
X103582162Y-68654661D01*
X103618239Y-68710798D01*
X103726900Y-68804952D01*
X103726901Y-68804952D01*
X103733711Y-68810853D01*
X103731686Y-68813189D01*
X103768084Y-68855187D01*
X103778195Y-68925460D01*
X103748709Y-68990043D01*
X103742572Y-68996636D01*
X103234310Y-69504898D01*
X103254694Y-69520763D01*
X103254696Y-69520765D01*
X103288733Y-69539185D01*
X103339123Y-69589199D01*
X103354475Y-69658516D01*
X103329914Y-69725129D01*
X103288735Y-69760811D01*
X103254702Y-69779229D01*
X103234310Y-69795099D01*
X103234310Y-69795100D01*
X103742572Y-70303361D01*
X103776597Y-70365674D01*
X103771533Y-70436489D01*
X103732854Y-70488157D01*
X103733711Y-70489147D01*
X103729164Y-70493086D01*
X103728986Y-70493325D01*
X103728498Y-70493663D01*
X103618238Y-70589202D01*
X103582175Y-70645318D01*
X103528519Y-70691811D01*
X103458245Y-70701914D01*
X103393664Y-70672421D01*
X103387082Y-70666292D01*
X102876922Y-70156132D01*
X102801580Y-70271451D01*
X102711179Y-70477543D01*
X102711176Y-70477550D01*
X102655932Y-70695707D01*
X102637346Y-70920000D01*
X102655932Y-71144292D01*
X102711176Y-71362449D01*
X102711179Y-71362456D01*
X102801580Y-71568548D01*
X102876922Y-71683866D01*
X103387081Y-71173706D01*
X103449394Y-71139681D01*
X103520209Y-71144745D01*
X103577045Y-71187292D01*
X103582162Y-71194661D01*
X103618239Y-71250798D01*
X103726900Y-71344952D01*
X103726901Y-71344952D01*
X103733711Y-71350853D01*
X103731686Y-71353189D01*
X103768084Y-71395187D01*
X103778195Y-71465460D01*
X103748709Y-71530043D01*
X103742572Y-71536636D01*
X103234310Y-72044898D01*
X103254694Y-72060763D01*
X103254696Y-72060765D01*
X103288733Y-72079185D01*
X103339123Y-72129199D01*
X103354475Y-72198516D01*
X103329914Y-72265129D01*
X103288735Y-72300811D01*
X103254702Y-72319229D01*
X103234310Y-72335099D01*
X103234310Y-72335100D01*
X103742572Y-72843361D01*
X103776597Y-72905674D01*
X103771533Y-72976489D01*
X103732854Y-73028157D01*
X103733711Y-73029147D01*
X103729164Y-73033086D01*
X103728986Y-73033325D01*
X103728498Y-73033663D01*
X103618238Y-73129202D01*
X103582175Y-73185318D01*
X103528519Y-73231811D01*
X103458245Y-73241914D01*
X103393664Y-73212421D01*
X103387082Y-73206292D01*
X102876922Y-72696132D01*
X102801580Y-72811451D01*
X102711179Y-73017543D01*
X102711176Y-73017550D01*
X102655932Y-73235707D01*
X102637346Y-73460000D01*
X102655932Y-73684292D01*
X102711176Y-73902449D01*
X102711179Y-73902456D01*
X102801581Y-74108551D01*
X102924430Y-74296585D01*
X102944943Y-74364553D01*
X102925454Y-74432822D01*
X102872149Y-74479717D01*
X102818947Y-74491500D01*
X90721053Y-74491500D01*
X90652932Y-74471498D01*
X90606439Y-74417842D01*
X90596335Y-74347568D01*
X90615570Y-74296585D01*
X90738418Y-74108551D01*
X90828820Y-73902456D01*
X90828823Y-73902449D01*
X90884067Y-73684292D01*
X90902653Y-73460000D01*
X90884067Y-73235707D01*
X90828823Y-73017550D01*
X90828820Y-73017543D01*
X90738422Y-72811456D01*
X90738417Y-72811448D01*
X90663076Y-72696132D01*
X90152916Y-73206292D01*
X90090604Y-73240317D01*
X90019788Y-73235252D01*
X89962953Y-73192705D01*
X89957836Y-73185336D01*
X89921761Y-73129202D01*
X89813100Y-73035048D01*
X89813098Y-73035047D01*
X89806289Y-73029147D01*
X89808312Y-73026811D01*
X89771912Y-72984809D01*
X89761802Y-72914536D01*
X89791290Y-72849952D01*
X89797426Y-72843361D01*
X90305689Y-72335099D01*
X90285306Y-72319235D01*
X90285299Y-72319230D01*
X90251265Y-72300812D01*
X90200876Y-72250798D01*
X90185524Y-72181481D01*
X90210086Y-72114869D01*
X90251269Y-72079184D01*
X90285299Y-72060768D01*
X90285302Y-72060766D01*
X90305688Y-72044898D01*
X89797427Y-71536638D01*
X89763402Y-71474325D01*
X89768466Y-71403510D01*
X89807145Y-71351840D01*
X89806289Y-71350853D01*
X89810830Y-71346917D01*
X89811013Y-71346674D01*
X89811510Y-71346328D01*
X89813095Y-71344953D01*
X89813100Y-71344952D01*
X89921761Y-71250798D01*
X89957824Y-71194681D01*
X90011478Y-71148189D01*
X90081752Y-71138084D01*
X90146333Y-71167576D01*
X90152918Y-71173707D01*
X90663077Y-71683866D01*
X90738419Y-71568551D01*
X90828820Y-71362456D01*
X90828823Y-71362449D01*
X90884067Y-71144292D01*
X90902653Y-70919999D01*
X90884067Y-70695707D01*
X90828823Y-70477550D01*
X90828820Y-70477543D01*
X90738422Y-70271456D01*
X90738417Y-70271448D01*
X90663076Y-70156132D01*
X90152916Y-70666292D01*
X90090604Y-70700317D01*
X90019788Y-70695252D01*
X89962953Y-70652705D01*
X89957836Y-70645336D01*
X89921761Y-70589202D01*
X89813100Y-70495048D01*
X89813098Y-70495047D01*
X89806289Y-70489147D01*
X89808312Y-70486811D01*
X89771912Y-70444809D01*
X89761802Y-70374536D01*
X89791290Y-70309952D01*
X89797426Y-70303361D01*
X90305688Y-69795099D01*
X90285306Y-69779235D01*
X90285299Y-69779230D01*
X90251265Y-69760812D01*
X90200876Y-69710798D01*
X90185524Y-69641481D01*
X90210086Y-69574869D01*
X90251269Y-69539184D01*
X90285299Y-69520768D01*
X90285302Y-69520766D01*
X90305688Y-69504898D01*
X89797427Y-68996638D01*
X89763402Y-68934325D01*
X89768466Y-68863510D01*
X89807145Y-68811840D01*
X89806289Y-68810853D01*
X89810830Y-68806917D01*
X89811013Y-68806674D01*
X89811510Y-68806328D01*
X89813095Y-68804953D01*
X89813100Y-68804952D01*
X89921761Y-68710798D01*
X89957824Y-68654681D01*
X90011478Y-68608189D01*
X90081752Y-68598084D01*
X90146333Y-68627576D01*
X90152918Y-68633707D01*
X90663077Y-69143866D01*
X90738419Y-69028551D01*
X90828820Y-68822456D01*
X90828823Y-68822449D01*
X90884067Y-68604292D01*
X90902653Y-68379999D01*
X90884067Y-68155707D01*
X90828823Y-67937550D01*
X90828820Y-67937543D01*
X90738418Y-67731448D01*
X90615570Y-67543415D01*
X90595057Y-67475447D01*
X90614546Y-67407178D01*
X90667851Y-67360283D01*
X90721053Y-67348500D01*
X102818947Y-67348500D01*
X102887068Y-67368502D01*
G37*
G04 #@! TD.AperFunction*
G04 #@! TA.AperFunction,Conductor*
G36*
X119887068Y-67368502D02*
G01*
X119933561Y-67422158D01*
X119943665Y-67492432D01*
X119924430Y-67543415D01*
X119801581Y-67731448D01*
X119711179Y-67937543D01*
X119711176Y-67937550D01*
X119655932Y-68155707D01*
X119637346Y-68379999D01*
X119655932Y-68604292D01*
X119711176Y-68822449D01*
X119711179Y-68822456D01*
X119801580Y-69028548D01*
X119876922Y-69143866D01*
X120387081Y-68633706D01*
X120449394Y-68599681D01*
X120520209Y-68604745D01*
X120577045Y-68647292D01*
X120582162Y-68654661D01*
X120618239Y-68710798D01*
X120726900Y-68804952D01*
X120726901Y-68804952D01*
X120733711Y-68810853D01*
X120731686Y-68813189D01*
X120768084Y-68855187D01*
X120778195Y-68925460D01*
X120748709Y-68990043D01*
X120742572Y-68996636D01*
X120234310Y-69504898D01*
X120254694Y-69520763D01*
X120254696Y-69520765D01*
X120288733Y-69539185D01*
X120339123Y-69589199D01*
X120354475Y-69658516D01*
X120329914Y-69725129D01*
X120288735Y-69760811D01*
X120254702Y-69779229D01*
X120234310Y-69795099D01*
X120234310Y-69795100D01*
X120742572Y-70303361D01*
X120776597Y-70365674D01*
X120771533Y-70436489D01*
X120732854Y-70488157D01*
X120733711Y-70489147D01*
X120729164Y-70493086D01*
X120728986Y-70493325D01*
X120728498Y-70493663D01*
X120618238Y-70589202D01*
X120582175Y-70645318D01*
X120528519Y-70691811D01*
X120458245Y-70701914D01*
X120393664Y-70672421D01*
X120387082Y-70666292D01*
X119876922Y-70156132D01*
X119801580Y-70271451D01*
X119711179Y-70477543D01*
X119711176Y-70477550D01*
X119655932Y-70695707D01*
X119637346Y-70920000D01*
X119655932Y-71144292D01*
X119711176Y-71362449D01*
X119711179Y-71362456D01*
X119801580Y-71568548D01*
X119876922Y-71683866D01*
X120387081Y-71173706D01*
X120449394Y-71139681D01*
X120520209Y-71144745D01*
X120577045Y-71187292D01*
X120582162Y-71194661D01*
X120618239Y-71250798D01*
X120726900Y-71344952D01*
X120726901Y-71344952D01*
X120733711Y-71350853D01*
X120731686Y-71353189D01*
X120768084Y-71395187D01*
X120778195Y-71465460D01*
X120748709Y-71530043D01*
X120742572Y-71536636D01*
X120234310Y-72044898D01*
X120254694Y-72060763D01*
X120254696Y-72060765D01*
X120288733Y-72079185D01*
X120339123Y-72129199D01*
X120354475Y-72198516D01*
X120329914Y-72265129D01*
X120288735Y-72300811D01*
X120254702Y-72319229D01*
X120234310Y-72335099D01*
X120234310Y-72335100D01*
X120742572Y-72843361D01*
X120776597Y-72905674D01*
X120771533Y-72976489D01*
X120732854Y-73028157D01*
X120733711Y-73029147D01*
X120729164Y-73033086D01*
X120728986Y-73033325D01*
X120728498Y-73033663D01*
X120618238Y-73129202D01*
X120582175Y-73185318D01*
X120528519Y-73231811D01*
X120458245Y-73241914D01*
X120393664Y-73212421D01*
X120387082Y-73206292D01*
X119876922Y-72696132D01*
X119801580Y-72811451D01*
X119711179Y-73017543D01*
X119711176Y-73017550D01*
X119655932Y-73235707D01*
X119637346Y-73459999D01*
X119655932Y-73684292D01*
X119711176Y-73902449D01*
X119711179Y-73902456D01*
X119801581Y-74108551D01*
X119924430Y-74296585D01*
X119944943Y-74364553D01*
X119925454Y-74432822D01*
X119872149Y-74479717D01*
X119818947Y-74491500D01*
X107721053Y-74491500D01*
X107652932Y-74471498D01*
X107606439Y-74417842D01*
X107596335Y-74347568D01*
X107615570Y-74296585D01*
X107738418Y-74108551D01*
X107828820Y-73902456D01*
X107828823Y-73902449D01*
X107884067Y-73684292D01*
X107902653Y-73459999D01*
X107884067Y-73235707D01*
X107828823Y-73017550D01*
X107828820Y-73017543D01*
X107738422Y-72811456D01*
X107738417Y-72811448D01*
X107663076Y-72696132D01*
X107152916Y-73206292D01*
X107090604Y-73240317D01*
X107019788Y-73235252D01*
X106962953Y-73192705D01*
X106957836Y-73185336D01*
X106921761Y-73129202D01*
X106813100Y-73035048D01*
X106813098Y-73035047D01*
X106806289Y-73029147D01*
X106808312Y-73026811D01*
X106771912Y-72984809D01*
X106761802Y-72914536D01*
X106791290Y-72849952D01*
X106797426Y-72843361D01*
X107305688Y-72335099D01*
X107285306Y-72319235D01*
X107285299Y-72319230D01*
X107251265Y-72300812D01*
X107200876Y-72250798D01*
X107185524Y-72181481D01*
X107210086Y-72114869D01*
X107251269Y-72079184D01*
X107285299Y-72060768D01*
X107285302Y-72060766D01*
X107305688Y-72044898D01*
X106797427Y-71536638D01*
X106763402Y-71474325D01*
X106768466Y-71403510D01*
X106807145Y-71351840D01*
X106806289Y-71350853D01*
X106810830Y-71346917D01*
X106811013Y-71346674D01*
X106811510Y-71346328D01*
X106813095Y-71344953D01*
X106813100Y-71344952D01*
X106921761Y-71250798D01*
X106957824Y-71194681D01*
X107011478Y-71148189D01*
X107081752Y-71138084D01*
X107146333Y-71167576D01*
X107152918Y-71173707D01*
X107663077Y-71683866D01*
X107738419Y-71568551D01*
X107828820Y-71362456D01*
X107828823Y-71362449D01*
X107884067Y-71144292D01*
X107902653Y-70920000D01*
X107884067Y-70695707D01*
X107828823Y-70477550D01*
X107828820Y-70477543D01*
X107738422Y-70271456D01*
X107738417Y-70271448D01*
X107663076Y-70156132D01*
X107152916Y-70666292D01*
X107090604Y-70700317D01*
X107019788Y-70695252D01*
X106962953Y-70652705D01*
X106957836Y-70645336D01*
X106921761Y-70589202D01*
X106813100Y-70495048D01*
X106813098Y-70495047D01*
X106806289Y-70489147D01*
X106808312Y-70486811D01*
X106771912Y-70444809D01*
X106761802Y-70374536D01*
X106791290Y-70309952D01*
X106797426Y-70303361D01*
X107305689Y-69795099D01*
X107285306Y-69779235D01*
X107285299Y-69779230D01*
X107251265Y-69760812D01*
X107200876Y-69710798D01*
X107185524Y-69641481D01*
X107210086Y-69574869D01*
X107251269Y-69539184D01*
X107285299Y-69520768D01*
X107285302Y-69520766D01*
X107305688Y-69504898D01*
X106797427Y-68996638D01*
X106763402Y-68934325D01*
X106768466Y-68863510D01*
X106807145Y-68811840D01*
X106806289Y-68810853D01*
X106810830Y-68806917D01*
X106811013Y-68806674D01*
X106811510Y-68806328D01*
X106813095Y-68804953D01*
X106813100Y-68804952D01*
X106921761Y-68710798D01*
X106957824Y-68654681D01*
X107011478Y-68608189D01*
X107081752Y-68598084D01*
X107146333Y-68627576D01*
X107152918Y-68633707D01*
X107663077Y-69143866D01*
X107738419Y-69028551D01*
X107828820Y-68822456D01*
X107828823Y-68822449D01*
X107884067Y-68604292D01*
X107902653Y-68379999D01*
X107884067Y-68155707D01*
X107828823Y-67937550D01*
X107828820Y-67937543D01*
X107738418Y-67731448D01*
X107615570Y-67543415D01*
X107595057Y-67475447D01*
X107614546Y-67407178D01*
X107667851Y-67360283D01*
X107721053Y-67348500D01*
X119818947Y-67348500D01*
X119887068Y-67368502D01*
G37*
G04 #@! TD.AperFunction*
G04 #@! TA.AperFunction,Conductor*
G36*
X174347068Y-67368502D02*
G01*
X174393561Y-67422158D01*
X174403665Y-67492432D01*
X174384430Y-67543415D01*
X174261581Y-67731448D01*
X174171179Y-67937543D01*
X174171176Y-67937550D01*
X174115932Y-68155707D01*
X174097346Y-68380000D01*
X174115932Y-68604292D01*
X174171176Y-68822449D01*
X174171179Y-68822456D01*
X174261580Y-69028548D01*
X174336922Y-69143866D01*
X174847081Y-68633706D01*
X174909394Y-68599681D01*
X174980209Y-68604745D01*
X175037045Y-68647292D01*
X175042162Y-68654661D01*
X175078239Y-68710798D01*
X175186900Y-68804952D01*
X175186901Y-68804952D01*
X175193711Y-68810853D01*
X175191686Y-68813189D01*
X175228084Y-68855187D01*
X175238195Y-68925460D01*
X175208709Y-68990043D01*
X175202572Y-68996636D01*
X174694310Y-69504898D01*
X174714694Y-69520763D01*
X174714696Y-69520765D01*
X174748733Y-69539185D01*
X174799123Y-69589199D01*
X174814475Y-69658516D01*
X174789914Y-69725129D01*
X174748735Y-69760811D01*
X174714702Y-69779229D01*
X174694310Y-69795099D01*
X174694310Y-69795100D01*
X175202572Y-70303361D01*
X175236597Y-70365674D01*
X175231533Y-70436489D01*
X175192854Y-70488157D01*
X175193711Y-70489147D01*
X175189164Y-70493086D01*
X175188986Y-70493325D01*
X175188498Y-70493663D01*
X175078238Y-70589202D01*
X175042175Y-70645318D01*
X174988519Y-70691811D01*
X174918245Y-70701914D01*
X174853664Y-70672421D01*
X174847082Y-70666292D01*
X174336922Y-70156132D01*
X174261580Y-70271451D01*
X174171179Y-70477543D01*
X174171176Y-70477550D01*
X174115932Y-70695707D01*
X174097346Y-70920000D01*
X174115932Y-71144292D01*
X174171176Y-71362449D01*
X174171179Y-71362456D01*
X174261580Y-71568548D01*
X174336922Y-71683866D01*
X174847081Y-71173706D01*
X174909394Y-71139681D01*
X174980209Y-71144745D01*
X175037045Y-71187292D01*
X175042162Y-71194661D01*
X175078239Y-71250798D01*
X175186900Y-71344952D01*
X175186901Y-71344952D01*
X175193711Y-71350853D01*
X175191686Y-71353189D01*
X175228084Y-71395187D01*
X175238195Y-71465460D01*
X175208709Y-71530043D01*
X175202572Y-71536636D01*
X174694310Y-72044898D01*
X174714694Y-72060763D01*
X174714696Y-72060765D01*
X174748733Y-72079185D01*
X174799123Y-72129199D01*
X174814475Y-72198516D01*
X174789914Y-72265129D01*
X174748735Y-72300811D01*
X174714702Y-72319229D01*
X174694310Y-72335099D01*
X174694310Y-72335100D01*
X175202572Y-72843361D01*
X175236597Y-72905674D01*
X175231533Y-72976489D01*
X175192854Y-73028157D01*
X175193711Y-73029147D01*
X175189164Y-73033086D01*
X175188986Y-73033325D01*
X175188498Y-73033663D01*
X175078238Y-73129202D01*
X175042175Y-73185318D01*
X174988519Y-73231811D01*
X174918245Y-73241914D01*
X174853664Y-73212421D01*
X174847082Y-73206292D01*
X174336922Y-72696132D01*
X174261580Y-72811451D01*
X174171179Y-73017543D01*
X174171176Y-73017550D01*
X174115932Y-73235707D01*
X174097346Y-73459999D01*
X174115932Y-73684292D01*
X174171176Y-73902449D01*
X174171179Y-73902456D01*
X174261581Y-74108551D01*
X174384430Y-74296585D01*
X174404943Y-74364553D01*
X174385454Y-74432822D01*
X174332149Y-74479717D01*
X174278947Y-74491500D01*
X162181053Y-74491500D01*
X162112932Y-74471498D01*
X162066439Y-74417842D01*
X162056335Y-74347568D01*
X162075570Y-74296585D01*
X162198418Y-74108551D01*
X162288820Y-73902456D01*
X162288823Y-73902449D01*
X162344067Y-73684292D01*
X162362653Y-73459999D01*
X162344067Y-73235707D01*
X162288823Y-73017550D01*
X162288820Y-73017543D01*
X162198422Y-72811456D01*
X162198417Y-72811448D01*
X162123076Y-72696132D01*
X161612916Y-73206292D01*
X161550604Y-73240317D01*
X161479788Y-73235252D01*
X161422953Y-73192705D01*
X161417836Y-73185336D01*
X161381761Y-73129202D01*
X161273100Y-73035048D01*
X161273098Y-73035047D01*
X161266289Y-73029147D01*
X161268312Y-73026811D01*
X161231912Y-72984809D01*
X161221802Y-72914536D01*
X161251290Y-72849952D01*
X161257426Y-72843361D01*
X161765688Y-72335099D01*
X161745306Y-72319235D01*
X161745299Y-72319230D01*
X161711265Y-72300812D01*
X161660876Y-72250798D01*
X161645524Y-72181481D01*
X161670086Y-72114869D01*
X161711269Y-72079184D01*
X161745299Y-72060768D01*
X161745302Y-72060766D01*
X161765688Y-72044898D01*
X161257427Y-71536638D01*
X161223402Y-71474325D01*
X161228466Y-71403510D01*
X161267145Y-71351840D01*
X161266289Y-71350853D01*
X161270830Y-71346917D01*
X161271013Y-71346674D01*
X161271510Y-71346328D01*
X161273095Y-71344953D01*
X161273100Y-71344952D01*
X161381761Y-71250798D01*
X161417824Y-71194681D01*
X161471478Y-71148189D01*
X161541752Y-71138084D01*
X161606333Y-71167576D01*
X161612918Y-71173707D01*
X162123077Y-71683866D01*
X162198419Y-71568551D01*
X162288820Y-71362456D01*
X162288823Y-71362449D01*
X162344067Y-71144292D01*
X162362653Y-70919999D01*
X162344067Y-70695707D01*
X162288823Y-70477550D01*
X162288820Y-70477543D01*
X162198422Y-70271456D01*
X162198417Y-70271448D01*
X162123076Y-70156132D01*
X161612916Y-70666292D01*
X161550604Y-70700317D01*
X161479788Y-70695252D01*
X161422953Y-70652705D01*
X161417836Y-70645336D01*
X161381761Y-70589202D01*
X161273100Y-70495048D01*
X161273098Y-70495047D01*
X161266289Y-70489147D01*
X161268312Y-70486811D01*
X161231912Y-70444809D01*
X161221802Y-70374536D01*
X161251290Y-70309952D01*
X161257426Y-70303361D01*
X161765688Y-69795099D01*
X161745306Y-69779235D01*
X161745299Y-69779230D01*
X161711265Y-69760812D01*
X161660876Y-69710798D01*
X161645524Y-69641481D01*
X161670086Y-69574869D01*
X161711269Y-69539184D01*
X161745299Y-69520768D01*
X161745302Y-69520766D01*
X161765688Y-69504898D01*
X161257427Y-68996638D01*
X161223402Y-68934325D01*
X161228466Y-68863510D01*
X161267145Y-68811840D01*
X161266289Y-68810853D01*
X161270830Y-68806917D01*
X161271013Y-68806674D01*
X161271510Y-68806328D01*
X161273095Y-68804953D01*
X161273100Y-68804952D01*
X161381761Y-68710798D01*
X161417824Y-68654681D01*
X161471478Y-68608189D01*
X161541752Y-68598084D01*
X161606333Y-68627576D01*
X161612918Y-68633707D01*
X162123077Y-69143866D01*
X162198419Y-69028551D01*
X162288820Y-68822456D01*
X162288823Y-68822449D01*
X162344067Y-68604292D01*
X162362653Y-68379999D01*
X162344067Y-68155707D01*
X162288823Y-67937550D01*
X162288820Y-67937543D01*
X162198418Y-67731448D01*
X162075570Y-67543415D01*
X162055057Y-67475447D01*
X162074546Y-67407178D01*
X162127851Y-67360283D01*
X162181053Y-67348500D01*
X174278947Y-67348500D01*
X174347068Y-67368502D01*
G37*
G04 #@! TD.AperFunction*
G04 #@! TA.AperFunction,Conductor*
G36*
X191347068Y-67368502D02*
G01*
X191393561Y-67422158D01*
X191403665Y-67492432D01*
X191384430Y-67543415D01*
X191261581Y-67731448D01*
X191171179Y-67937543D01*
X191171176Y-67937550D01*
X191115932Y-68155707D01*
X191097346Y-68380000D01*
X191115932Y-68604292D01*
X191171176Y-68822449D01*
X191171179Y-68822456D01*
X191261580Y-69028548D01*
X191336922Y-69143866D01*
X191847081Y-68633706D01*
X191909394Y-68599681D01*
X191980209Y-68604745D01*
X192037045Y-68647292D01*
X192042162Y-68654661D01*
X192078239Y-68710798D01*
X192186900Y-68804952D01*
X192186901Y-68804952D01*
X192193711Y-68810853D01*
X192191686Y-68813189D01*
X192228084Y-68855187D01*
X192238195Y-68925460D01*
X192208709Y-68990043D01*
X192202572Y-68996636D01*
X191694310Y-69504898D01*
X191714694Y-69520763D01*
X191714696Y-69520765D01*
X191748733Y-69539185D01*
X191799123Y-69589199D01*
X191814475Y-69658516D01*
X191789914Y-69725129D01*
X191748735Y-69760811D01*
X191714702Y-69779229D01*
X191694310Y-69795099D01*
X191694310Y-69795100D01*
X192202572Y-70303361D01*
X192236597Y-70365674D01*
X192231533Y-70436489D01*
X192192854Y-70488157D01*
X192193711Y-70489147D01*
X192189164Y-70493086D01*
X192188986Y-70493325D01*
X192188498Y-70493663D01*
X192078238Y-70589202D01*
X192042175Y-70645318D01*
X191988519Y-70691811D01*
X191918245Y-70701914D01*
X191853664Y-70672421D01*
X191847082Y-70666292D01*
X191336922Y-70156132D01*
X191261580Y-70271451D01*
X191171179Y-70477543D01*
X191171176Y-70477550D01*
X191115932Y-70695707D01*
X191097346Y-70920000D01*
X191115932Y-71144292D01*
X191171176Y-71362449D01*
X191171179Y-71362456D01*
X191261580Y-71568548D01*
X191336922Y-71683866D01*
X191847081Y-71173706D01*
X191909394Y-71139681D01*
X191980209Y-71144745D01*
X192037045Y-71187292D01*
X192042162Y-71194661D01*
X192078239Y-71250798D01*
X192186900Y-71344952D01*
X192186901Y-71344952D01*
X192193711Y-71350853D01*
X192191686Y-71353189D01*
X192228084Y-71395187D01*
X192238195Y-71465460D01*
X192208709Y-71530043D01*
X192202572Y-71536636D01*
X191694310Y-72044898D01*
X191714694Y-72060763D01*
X191714696Y-72060765D01*
X191748733Y-72079185D01*
X191799123Y-72129199D01*
X191814475Y-72198516D01*
X191789914Y-72265129D01*
X191748735Y-72300811D01*
X191714702Y-72319229D01*
X191694310Y-72335099D01*
X191694310Y-72335100D01*
X192202572Y-72843361D01*
X192236597Y-72905674D01*
X192231533Y-72976489D01*
X192192854Y-73028157D01*
X192193711Y-73029147D01*
X192189164Y-73033086D01*
X192188986Y-73033325D01*
X192188498Y-73033663D01*
X192078238Y-73129202D01*
X192042175Y-73185318D01*
X191988519Y-73231811D01*
X191918245Y-73241914D01*
X191853664Y-73212421D01*
X191847082Y-73206292D01*
X191336922Y-72696132D01*
X191261580Y-72811451D01*
X191171179Y-73017543D01*
X191171176Y-73017550D01*
X191115932Y-73235707D01*
X191097346Y-73459999D01*
X191115932Y-73684292D01*
X191171176Y-73902449D01*
X191171179Y-73902456D01*
X191261581Y-74108551D01*
X191384430Y-74296585D01*
X191404943Y-74364553D01*
X191385454Y-74432822D01*
X191332149Y-74479717D01*
X191278947Y-74491500D01*
X179181053Y-74491500D01*
X179112932Y-74471498D01*
X179066439Y-74417842D01*
X179056335Y-74347568D01*
X179075570Y-74296585D01*
X179198418Y-74108551D01*
X179288820Y-73902456D01*
X179288823Y-73902449D01*
X179344067Y-73684292D01*
X179362653Y-73459999D01*
X179344067Y-73235707D01*
X179288823Y-73017550D01*
X179288820Y-73017543D01*
X179198422Y-72811456D01*
X179198417Y-72811448D01*
X179123076Y-72696132D01*
X178612916Y-73206292D01*
X178550604Y-73240317D01*
X178479788Y-73235252D01*
X178422953Y-73192705D01*
X178417836Y-73185336D01*
X178381761Y-73129202D01*
X178273100Y-73035048D01*
X178273098Y-73035047D01*
X178266289Y-73029147D01*
X178268312Y-73026811D01*
X178231912Y-72984809D01*
X178221802Y-72914536D01*
X178251290Y-72849952D01*
X178257426Y-72843361D01*
X178765688Y-72335099D01*
X178745306Y-72319235D01*
X178745299Y-72319230D01*
X178711265Y-72300812D01*
X178660876Y-72250798D01*
X178645524Y-72181481D01*
X178670086Y-72114869D01*
X178711269Y-72079184D01*
X178745299Y-72060768D01*
X178745302Y-72060766D01*
X178765688Y-72044898D01*
X178257427Y-71536638D01*
X178223402Y-71474325D01*
X178228466Y-71403510D01*
X178267145Y-71351840D01*
X178266289Y-71350853D01*
X178270830Y-71346917D01*
X178271013Y-71346674D01*
X178271510Y-71346328D01*
X178273095Y-71344953D01*
X178273100Y-71344952D01*
X178381761Y-71250798D01*
X178417824Y-71194681D01*
X178471478Y-71148189D01*
X178541752Y-71138084D01*
X178606333Y-71167576D01*
X178612918Y-71173707D01*
X179123077Y-71683866D01*
X179198419Y-71568551D01*
X179288820Y-71362456D01*
X179288823Y-71362449D01*
X179344067Y-71144292D01*
X179362653Y-70920000D01*
X179344067Y-70695707D01*
X179288823Y-70477550D01*
X179288820Y-70477543D01*
X179198422Y-70271456D01*
X179198417Y-70271448D01*
X179123076Y-70156132D01*
X178612916Y-70666292D01*
X178550604Y-70700317D01*
X178479788Y-70695252D01*
X178422953Y-70652705D01*
X178417836Y-70645336D01*
X178381761Y-70589202D01*
X178273100Y-70495048D01*
X178273098Y-70495047D01*
X178266289Y-70489147D01*
X178268312Y-70486811D01*
X178231912Y-70444809D01*
X178221802Y-70374536D01*
X178251290Y-70309952D01*
X178257426Y-70303361D01*
X178765688Y-69795099D01*
X178745306Y-69779235D01*
X178745299Y-69779230D01*
X178711265Y-69760812D01*
X178660876Y-69710798D01*
X178645524Y-69641481D01*
X178670086Y-69574869D01*
X178711269Y-69539184D01*
X178745299Y-69520768D01*
X178745302Y-69520766D01*
X178765688Y-69504898D01*
X178257427Y-68996638D01*
X178223402Y-68934325D01*
X178228466Y-68863510D01*
X178267145Y-68811840D01*
X178266289Y-68810853D01*
X178270830Y-68806917D01*
X178271013Y-68806674D01*
X178271510Y-68806328D01*
X178273095Y-68804953D01*
X178273100Y-68804952D01*
X178381761Y-68710798D01*
X178417824Y-68654681D01*
X178471478Y-68608189D01*
X178541752Y-68598084D01*
X178606333Y-68627576D01*
X178612918Y-68633707D01*
X179123077Y-69143866D01*
X179198419Y-69028551D01*
X179288820Y-68822456D01*
X179288823Y-68822449D01*
X179344067Y-68604292D01*
X179362653Y-68380000D01*
X179344067Y-68155707D01*
X179288823Y-67937550D01*
X179288820Y-67937543D01*
X179198418Y-67731448D01*
X179075570Y-67543415D01*
X179055057Y-67475447D01*
X179074546Y-67407178D01*
X179127851Y-67360283D01*
X179181053Y-67348500D01*
X191278947Y-67348500D01*
X191347068Y-67368502D01*
G37*
G04 #@! TD.AperFunction*
G04 #@! TA.AperFunction,Conductor*
G36*
X208347068Y-67368502D02*
G01*
X208393561Y-67422158D01*
X208403665Y-67492432D01*
X208384430Y-67543415D01*
X208261581Y-67731448D01*
X208171179Y-67937543D01*
X208171176Y-67937550D01*
X208115932Y-68155707D01*
X208097346Y-68380000D01*
X208115932Y-68604292D01*
X208171176Y-68822449D01*
X208171179Y-68822456D01*
X208261580Y-69028548D01*
X208336922Y-69143866D01*
X208847081Y-68633706D01*
X208909394Y-68599681D01*
X208980209Y-68604745D01*
X209037045Y-68647292D01*
X209042162Y-68654661D01*
X209078239Y-68710798D01*
X209186900Y-68804952D01*
X209186901Y-68804952D01*
X209193711Y-68810853D01*
X209191686Y-68813189D01*
X209228084Y-68855187D01*
X209238195Y-68925460D01*
X209208709Y-68990043D01*
X209202572Y-68996636D01*
X208694310Y-69504898D01*
X208714694Y-69520763D01*
X208714696Y-69520765D01*
X208748733Y-69539185D01*
X208799123Y-69589199D01*
X208814475Y-69658516D01*
X208789914Y-69725129D01*
X208748735Y-69760811D01*
X208714702Y-69779229D01*
X208694310Y-69795099D01*
X208694310Y-69795100D01*
X209202572Y-70303361D01*
X209236597Y-70365674D01*
X209231533Y-70436489D01*
X209192854Y-70488157D01*
X209193711Y-70489147D01*
X209189164Y-70493086D01*
X209188986Y-70493325D01*
X209188498Y-70493663D01*
X209078238Y-70589202D01*
X209042175Y-70645318D01*
X208988519Y-70691811D01*
X208918245Y-70701914D01*
X208853664Y-70672421D01*
X208847082Y-70666292D01*
X208336922Y-70156132D01*
X208261580Y-70271451D01*
X208171179Y-70477543D01*
X208171176Y-70477550D01*
X208115932Y-70695707D01*
X208097346Y-70920000D01*
X208115932Y-71144292D01*
X208171176Y-71362449D01*
X208171179Y-71362456D01*
X208261580Y-71568548D01*
X208336922Y-71683866D01*
X208847081Y-71173706D01*
X208909394Y-71139681D01*
X208980209Y-71144745D01*
X209037045Y-71187292D01*
X209042162Y-71194661D01*
X209078239Y-71250798D01*
X209186900Y-71344952D01*
X209186901Y-71344952D01*
X209193711Y-71350853D01*
X209191686Y-71353189D01*
X209228084Y-71395187D01*
X209238195Y-71465460D01*
X209208709Y-71530043D01*
X209202572Y-71536636D01*
X208694310Y-72044898D01*
X208714694Y-72060763D01*
X208714696Y-72060765D01*
X208748733Y-72079185D01*
X208799123Y-72129199D01*
X208814475Y-72198516D01*
X208789914Y-72265129D01*
X208748735Y-72300811D01*
X208714702Y-72319229D01*
X208694310Y-72335099D01*
X208694310Y-72335100D01*
X209202572Y-72843361D01*
X209236597Y-72905674D01*
X209231533Y-72976489D01*
X209192854Y-73028157D01*
X209193711Y-73029147D01*
X209189164Y-73033086D01*
X209188986Y-73033325D01*
X209188498Y-73033663D01*
X209078238Y-73129202D01*
X209042175Y-73185318D01*
X208988519Y-73231811D01*
X208918245Y-73241914D01*
X208853664Y-73212421D01*
X208847082Y-73206292D01*
X208336922Y-72696132D01*
X208261580Y-72811451D01*
X208171179Y-73017543D01*
X208171176Y-73017550D01*
X208115932Y-73235707D01*
X208097346Y-73459999D01*
X208115932Y-73684292D01*
X208171176Y-73902449D01*
X208171179Y-73902456D01*
X208261581Y-74108551D01*
X208384430Y-74296585D01*
X208404943Y-74364553D01*
X208385454Y-74432822D01*
X208332149Y-74479717D01*
X208278947Y-74491500D01*
X196181053Y-74491500D01*
X196112932Y-74471498D01*
X196066439Y-74417842D01*
X196056335Y-74347568D01*
X196075570Y-74296585D01*
X196198418Y-74108551D01*
X196288820Y-73902456D01*
X196288823Y-73902449D01*
X196344067Y-73684292D01*
X196362653Y-73459999D01*
X196344067Y-73235707D01*
X196288823Y-73017550D01*
X196288820Y-73017543D01*
X196198422Y-72811456D01*
X196198417Y-72811448D01*
X196123076Y-72696132D01*
X195612916Y-73206292D01*
X195550604Y-73240317D01*
X195479788Y-73235252D01*
X195422953Y-73192705D01*
X195417836Y-73185336D01*
X195381761Y-73129202D01*
X195273100Y-73035048D01*
X195273098Y-73035047D01*
X195266289Y-73029147D01*
X195268312Y-73026811D01*
X195231912Y-72984809D01*
X195221802Y-72914536D01*
X195251290Y-72849952D01*
X195257426Y-72843361D01*
X195765688Y-72335099D01*
X195745306Y-72319235D01*
X195745299Y-72319230D01*
X195711265Y-72300812D01*
X195660876Y-72250798D01*
X195645524Y-72181481D01*
X195670086Y-72114869D01*
X195711269Y-72079184D01*
X195745299Y-72060768D01*
X195745302Y-72060766D01*
X195765688Y-72044898D01*
X195257427Y-71536638D01*
X195223402Y-71474325D01*
X195228466Y-71403510D01*
X195267145Y-71351840D01*
X195266289Y-71350853D01*
X195270830Y-71346917D01*
X195271013Y-71346674D01*
X195271510Y-71346328D01*
X195273095Y-71344953D01*
X195273100Y-71344952D01*
X195381761Y-71250798D01*
X195417824Y-71194681D01*
X195471478Y-71148189D01*
X195541752Y-71138084D01*
X195606333Y-71167576D01*
X195612918Y-71173707D01*
X196123077Y-71683866D01*
X196198419Y-71568551D01*
X196288820Y-71362456D01*
X196288823Y-71362449D01*
X196344067Y-71144292D01*
X196362653Y-70920000D01*
X196344067Y-70695707D01*
X196288823Y-70477550D01*
X196288820Y-70477543D01*
X196198422Y-70271456D01*
X196198417Y-70271448D01*
X196123076Y-70156132D01*
X195612916Y-70666292D01*
X195550604Y-70700317D01*
X195479788Y-70695252D01*
X195422953Y-70652705D01*
X195417836Y-70645336D01*
X195381761Y-70589202D01*
X195273100Y-70495048D01*
X195273098Y-70495047D01*
X195266289Y-70489147D01*
X195268312Y-70486811D01*
X195231912Y-70444809D01*
X195221802Y-70374536D01*
X195251290Y-70309952D01*
X195257426Y-70303361D01*
X195765688Y-69795099D01*
X195745306Y-69779235D01*
X195745299Y-69779230D01*
X195711265Y-69760812D01*
X195660876Y-69710798D01*
X195645524Y-69641481D01*
X195670086Y-69574869D01*
X195711269Y-69539184D01*
X195745299Y-69520768D01*
X195745302Y-69520766D01*
X195765688Y-69504898D01*
X195257427Y-68996638D01*
X195223402Y-68934325D01*
X195228466Y-68863510D01*
X195267145Y-68811840D01*
X195266289Y-68810853D01*
X195270830Y-68806917D01*
X195271013Y-68806674D01*
X195271510Y-68806328D01*
X195273095Y-68804953D01*
X195273100Y-68804952D01*
X195381761Y-68710798D01*
X195417824Y-68654681D01*
X195471478Y-68608189D01*
X195541752Y-68598084D01*
X195606333Y-68627576D01*
X195612918Y-68633707D01*
X196123077Y-69143866D01*
X196198419Y-69028551D01*
X196288820Y-68822456D01*
X196288823Y-68822449D01*
X196344067Y-68604292D01*
X196362653Y-68380000D01*
X196344067Y-68155707D01*
X196288823Y-67937550D01*
X196288820Y-67937543D01*
X196198418Y-67731448D01*
X196075570Y-67543415D01*
X196055057Y-67475447D01*
X196074546Y-67407178D01*
X196127851Y-67360283D01*
X196181053Y-67348500D01*
X208278947Y-67348500D01*
X208347068Y-67368502D01*
G37*
G04 #@! TD.AperFunction*
G04 #@! TA.AperFunction,Conductor*
G36*
X225347068Y-67368502D02*
G01*
X225393561Y-67422158D01*
X225403665Y-67492432D01*
X225384430Y-67543415D01*
X225261581Y-67731448D01*
X225171179Y-67937543D01*
X225171176Y-67937550D01*
X225115932Y-68155707D01*
X225097346Y-68379999D01*
X225115932Y-68604292D01*
X225171176Y-68822449D01*
X225171179Y-68822456D01*
X225261580Y-69028548D01*
X225336922Y-69143866D01*
X225847081Y-68633706D01*
X225909394Y-68599681D01*
X225980209Y-68604745D01*
X226037045Y-68647292D01*
X226042162Y-68654661D01*
X226078239Y-68710798D01*
X226186900Y-68804952D01*
X226186901Y-68804952D01*
X226193711Y-68810853D01*
X226191686Y-68813189D01*
X226228084Y-68855187D01*
X226238195Y-68925460D01*
X226208709Y-68990043D01*
X226202572Y-68996636D01*
X225694310Y-69504898D01*
X225714694Y-69520763D01*
X225714696Y-69520765D01*
X225748733Y-69539185D01*
X225799123Y-69589199D01*
X225814475Y-69658516D01*
X225789914Y-69725129D01*
X225748735Y-69760811D01*
X225714702Y-69779229D01*
X225694310Y-69795099D01*
X225694310Y-69795100D01*
X226202572Y-70303361D01*
X226236597Y-70365674D01*
X226231533Y-70436489D01*
X226192854Y-70488157D01*
X226193711Y-70489147D01*
X226189164Y-70493086D01*
X226188986Y-70493325D01*
X226188498Y-70493663D01*
X226078238Y-70589202D01*
X226042175Y-70645318D01*
X225988519Y-70691811D01*
X225918245Y-70701914D01*
X225853664Y-70672421D01*
X225847082Y-70666292D01*
X225336922Y-70156132D01*
X225261580Y-70271451D01*
X225171179Y-70477543D01*
X225171176Y-70477550D01*
X225115932Y-70695707D01*
X225097346Y-70920000D01*
X225115932Y-71144292D01*
X225171176Y-71362449D01*
X225171179Y-71362456D01*
X225261580Y-71568548D01*
X225336922Y-71683866D01*
X225847081Y-71173706D01*
X225909394Y-71139681D01*
X225980209Y-71144745D01*
X226037045Y-71187292D01*
X226042162Y-71194661D01*
X226078239Y-71250798D01*
X226186900Y-71344952D01*
X226186901Y-71344952D01*
X226193711Y-71350853D01*
X226191686Y-71353189D01*
X226228084Y-71395187D01*
X226238195Y-71465460D01*
X226208709Y-71530043D01*
X226202572Y-71536636D01*
X225694310Y-72044898D01*
X225714694Y-72060763D01*
X225714696Y-72060765D01*
X225748733Y-72079185D01*
X225799123Y-72129199D01*
X225814475Y-72198516D01*
X225789914Y-72265129D01*
X225748735Y-72300811D01*
X225714702Y-72319229D01*
X225694310Y-72335099D01*
X225694310Y-72335100D01*
X226202572Y-72843361D01*
X226236597Y-72905674D01*
X226231533Y-72976489D01*
X226192854Y-73028157D01*
X226193711Y-73029147D01*
X226189164Y-73033086D01*
X226188986Y-73033325D01*
X226188498Y-73033663D01*
X226078238Y-73129202D01*
X226042175Y-73185318D01*
X225988519Y-73231811D01*
X225918245Y-73241914D01*
X225853664Y-73212421D01*
X225847082Y-73206292D01*
X225336922Y-72696132D01*
X225261580Y-72811451D01*
X225171179Y-73017543D01*
X225171176Y-73017550D01*
X225115932Y-73235707D01*
X225097346Y-73460000D01*
X225115932Y-73684292D01*
X225171176Y-73902449D01*
X225171179Y-73902456D01*
X225261581Y-74108551D01*
X225384430Y-74296585D01*
X225404943Y-74364553D01*
X225385454Y-74432822D01*
X225332149Y-74479717D01*
X225278947Y-74491500D01*
X213181053Y-74491500D01*
X213112932Y-74471498D01*
X213066439Y-74417842D01*
X213056335Y-74347568D01*
X213075570Y-74296585D01*
X213198418Y-74108551D01*
X213288820Y-73902456D01*
X213288823Y-73902449D01*
X213344067Y-73684292D01*
X213362653Y-73459999D01*
X213344067Y-73235707D01*
X213288823Y-73017550D01*
X213288820Y-73017543D01*
X213198422Y-72811456D01*
X213198417Y-72811448D01*
X213123076Y-72696132D01*
X212612916Y-73206292D01*
X212550604Y-73240317D01*
X212479788Y-73235252D01*
X212422953Y-73192705D01*
X212417836Y-73185336D01*
X212381761Y-73129202D01*
X212273100Y-73035048D01*
X212273098Y-73035047D01*
X212266289Y-73029147D01*
X212268312Y-73026811D01*
X212231912Y-72984809D01*
X212221802Y-72914536D01*
X212251290Y-72849952D01*
X212257426Y-72843361D01*
X212765688Y-72335099D01*
X212745306Y-72319235D01*
X212745299Y-72319230D01*
X212711265Y-72300812D01*
X212660876Y-72250798D01*
X212645524Y-72181481D01*
X212670086Y-72114869D01*
X212711269Y-72079184D01*
X212745299Y-72060768D01*
X212745302Y-72060766D01*
X212765688Y-72044898D01*
X212257427Y-71536638D01*
X212223402Y-71474325D01*
X212228466Y-71403510D01*
X212267145Y-71351840D01*
X212266289Y-71350853D01*
X212270830Y-71346917D01*
X212271013Y-71346674D01*
X212271510Y-71346328D01*
X212273095Y-71344953D01*
X212273100Y-71344952D01*
X212381761Y-71250798D01*
X212417824Y-71194681D01*
X212471478Y-71148189D01*
X212541752Y-71138084D01*
X212606333Y-71167576D01*
X212612918Y-71173707D01*
X213123077Y-71683866D01*
X213198419Y-71568551D01*
X213288820Y-71362456D01*
X213288823Y-71362449D01*
X213344067Y-71144292D01*
X213362653Y-70920000D01*
X213344067Y-70695707D01*
X213288823Y-70477550D01*
X213288820Y-70477543D01*
X213198422Y-70271456D01*
X213198417Y-70271448D01*
X213123076Y-70156132D01*
X212612916Y-70666292D01*
X212550604Y-70700317D01*
X212479788Y-70695252D01*
X212422953Y-70652705D01*
X212417836Y-70645336D01*
X212381761Y-70589202D01*
X212273100Y-70495048D01*
X212273098Y-70495047D01*
X212266289Y-70489147D01*
X212268312Y-70486811D01*
X212231912Y-70444809D01*
X212221802Y-70374536D01*
X212251290Y-70309952D01*
X212257426Y-70303361D01*
X212765688Y-69795099D01*
X212745306Y-69779235D01*
X212745299Y-69779230D01*
X212711265Y-69760812D01*
X212660876Y-69710798D01*
X212645524Y-69641481D01*
X212670086Y-69574869D01*
X212711269Y-69539184D01*
X212745299Y-69520768D01*
X212745302Y-69520766D01*
X212765688Y-69504898D01*
X212257427Y-68996638D01*
X212223402Y-68934325D01*
X212228466Y-68863510D01*
X212267145Y-68811840D01*
X212266289Y-68810853D01*
X212270830Y-68806917D01*
X212271013Y-68806674D01*
X212271510Y-68806328D01*
X212273095Y-68804953D01*
X212273100Y-68804952D01*
X212381761Y-68710798D01*
X212417824Y-68654681D01*
X212471478Y-68608189D01*
X212541752Y-68598084D01*
X212606333Y-68627576D01*
X212612918Y-68633707D01*
X213123077Y-69143866D01*
X213198419Y-69028551D01*
X213288820Y-68822456D01*
X213288823Y-68822449D01*
X213344067Y-68604292D01*
X213362653Y-68379999D01*
X213344067Y-68155707D01*
X213288823Y-67937550D01*
X213288820Y-67937543D01*
X213198418Y-67731448D01*
X213075570Y-67543415D01*
X213055057Y-67475447D01*
X213074546Y-67407178D01*
X213127851Y-67360283D01*
X213181053Y-67348500D01*
X225278947Y-67348500D01*
X225347068Y-67368502D01*
G37*
G04 #@! TD.AperFunction*
G04 #@! TA.AperFunction,Conductor*
G36*
X242347068Y-67368502D02*
G01*
X242393561Y-67422158D01*
X242403665Y-67492432D01*
X242384430Y-67543415D01*
X242261581Y-67731448D01*
X242171179Y-67937543D01*
X242171176Y-67937550D01*
X242115932Y-68155707D01*
X242097346Y-68379999D01*
X242115932Y-68604292D01*
X242171176Y-68822449D01*
X242171179Y-68822456D01*
X242261580Y-69028548D01*
X242336922Y-69143866D01*
X242847081Y-68633706D01*
X242909394Y-68599681D01*
X242980209Y-68604745D01*
X243037045Y-68647292D01*
X243042162Y-68654661D01*
X243078239Y-68710798D01*
X243186900Y-68804952D01*
X243186901Y-68804952D01*
X243193711Y-68810853D01*
X243191686Y-68813189D01*
X243228084Y-68855187D01*
X243238195Y-68925460D01*
X243208709Y-68990043D01*
X243202572Y-68996636D01*
X242694310Y-69504898D01*
X242714694Y-69520763D01*
X242714696Y-69520765D01*
X242748733Y-69539185D01*
X242799123Y-69589199D01*
X242814475Y-69658516D01*
X242789914Y-69725129D01*
X242748735Y-69760811D01*
X242714702Y-69779229D01*
X242694310Y-69795099D01*
X242694310Y-69795100D01*
X243202572Y-70303361D01*
X243236597Y-70365674D01*
X243231533Y-70436489D01*
X243192854Y-70488157D01*
X243193711Y-70489147D01*
X243189164Y-70493086D01*
X243188986Y-70493325D01*
X243188498Y-70493663D01*
X243078238Y-70589202D01*
X243042175Y-70645318D01*
X242988519Y-70691811D01*
X242918245Y-70701914D01*
X242853664Y-70672421D01*
X242847082Y-70666292D01*
X242336922Y-70156132D01*
X242261580Y-70271451D01*
X242171179Y-70477543D01*
X242171176Y-70477550D01*
X242115932Y-70695707D01*
X242097346Y-70920000D01*
X242115932Y-71144292D01*
X242171176Y-71362449D01*
X242171179Y-71362456D01*
X242261580Y-71568548D01*
X242336922Y-71683866D01*
X242847081Y-71173706D01*
X242909394Y-71139681D01*
X242980209Y-71144745D01*
X243037045Y-71187292D01*
X243042162Y-71194661D01*
X243078239Y-71250798D01*
X243186900Y-71344952D01*
X243186901Y-71344952D01*
X243193711Y-71350853D01*
X243191686Y-71353189D01*
X243228084Y-71395187D01*
X243238195Y-71465460D01*
X243208709Y-71530043D01*
X243202572Y-71536636D01*
X242694310Y-72044898D01*
X242714694Y-72060763D01*
X242714696Y-72060765D01*
X242748733Y-72079185D01*
X242799123Y-72129199D01*
X242814475Y-72198516D01*
X242789914Y-72265129D01*
X242748735Y-72300811D01*
X242714702Y-72319229D01*
X242694310Y-72335099D01*
X242694310Y-72335100D01*
X243202572Y-72843361D01*
X243236597Y-72905674D01*
X243231533Y-72976489D01*
X243192854Y-73028157D01*
X243193711Y-73029147D01*
X243189164Y-73033086D01*
X243188986Y-73033325D01*
X243188498Y-73033663D01*
X243078238Y-73129202D01*
X243042175Y-73185318D01*
X242988519Y-73231811D01*
X242918245Y-73241914D01*
X242853664Y-73212421D01*
X242847082Y-73206292D01*
X242336922Y-72696132D01*
X242261580Y-72811451D01*
X242171179Y-73017543D01*
X242171176Y-73017550D01*
X242115932Y-73235707D01*
X242097346Y-73459999D01*
X242115932Y-73684292D01*
X242171176Y-73902449D01*
X242171179Y-73902456D01*
X242261581Y-74108551D01*
X242384430Y-74296585D01*
X242404943Y-74364553D01*
X242385454Y-74432822D01*
X242332149Y-74479717D01*
X242278947Y-74491500D01*
X230181053Y-74491500D01*
X230112932Y-74471498D01*
X230066439Y-74417842D01*
X230056335Y-74347568D01*
X230075570Y-74296585D01*
X230198418Y-74108551D01*
X230288820Y-73902456D01*
X230288823Y-73902449D01*
X230344067Y-73684292D01*
X230362653Y-73460000D01*
X230344067Y-73235707D01*
X230288823Y-73017550D01*
X230288820Y-73017543D01*
X230198422Y-72811456D01*
X230198417Y-72811448D01*
X230123076Y-72696132D01*
X229612916Y-73206292D01*
X229550604Y-73240317D01*
X229479788Y-73235252D01*
X229422953Y-73192705D01*
X229417836Y-73185336D01*
X229381761Y-73129202D01*
X229273100Y-73035048D01*
X229273098Y-73035047D01*
X229266289Y-73029147D01*
X229268312Y-73026811D01*
X229231912Y-72984809D01*
X229221802Y-72914536D01*
X229251290Y-72849952D01*
X229257426Y-72843361D01*
X229765689Y-72335099D01*
X229745306Y-72319235D01*
X229745299Y-72319230D01*
X229711265Y-72300812D01*
X229660876Y-72250798D01*
X229645524Y-72181481D01*
X229670086Y-72114869D01*
X229711269Y-72079184D01*
X229745299Y-72060768D01*
X229745302Y-72060766D01*
X229765688Y-72044898D01*
X229257427Y-71536638D01*
X229223402Y-71474325D01*
X229228466Y-71403510D01*
X229267145Y-71351840D01*
X229266289Y-71350853D01*
X229270830Y-71346917D01*
X229271013Y-71346674D01*
X229271510Y-71346328D01*
X229273095Y-71344953D01*
X229273100Y-71344952D01*
X229381761Y-71250798D01*
X229417824Y-71194681D01*
X229471478Y-71148189D01*
X229541752Y-71138084D01*
X229606333Y-71167576D01*
X229612918Y-71173707D01*
X230123077Y-71683866D01*
X230198419Y-71568551D01*
X230288820Y-71362456D01*
X230288823Y-71362449D01*
X230344067Y-71144292D01*
X230362653Y-70919999D01*
X230344067Y-70695707D01*
X230288823Y-70477550D01*
X230288820Y-70477543D01*
X230198422Y-70271456D01*
X230198417Y-70271448D01*
X230123076Y-70156132D01*
X229612916Y-70666292D01*
X229550604Y-70700317D01*
X229479788Y-70695252D01*
X229422953Y-70652705D01*
X229417836Y-70645336D01*
X229381761Y-70589202D01*
X229273100Y-70495048D01*
X229273098Y-70495047D01*
X229266289Y-70489147D01*
X229268312Y-70486811D01*
X229231912Y-70444809D01*
X229221802Y-70374536D01*
X229251290Y-70309952D01*
X229257426Y-70303361D01*
X229765689Y-69795099D01*
X229745306Y-69779235D01*
X229745299Y-69779230D01*
X229711265Y-69760812D01*
X229660876Y-69710798D01*
X229645524Y-69641481D01*
X229670086Y-69574869D01*
X229711269Y-69539184D01*
X229745299Y-69520768D01*
X229745302Y-69520766D01*
X229765688Y-69504898D01*
X229257427Y-68996638D01*
X229223402Y-68934325D01*
X229228466Y-68863510D01*
X229267145Y-68811840D01*
X229266289Y-68810853D01*
X229270830Y-68806917D01*
X229271013Y-68806674D01*
X229271510Y-68806328D01*
X229273095Y-68804953D01*
X229273100Y-68804952D01*
X229381761Y-68710798D01*
X229417824Y-68654681D01*
X229471478Y-68608189D01*
X229541752Y-68598084D01*
X229606333Y-68627576D01*
X229612918Y-68633707D01*
X230123077Y-69143866D01*
X230198419Y-69028551D01*
X230288820Y-68822456D01*
X230288823Y-68822449D01*
X230344067Y-68604292D01*
X230362653Y-68379999D01*
X230344067Y-68155707D01*
X230288823Y-67937550D01*
X230288820Y-67937543D01*
X230198418Y-67731448D01*
X230075570Y-67543415D01*
X230055057Y-67475447D01*
X230074546Y-67407178D01*
X230127851Y-67360283D01*
X230181053Y-67348500D01*
X242278947Y-67348500D01*
X242347068Y-67368502D01*
G37*
G04 #@! TD.AperFunction*
G04 #@! TA.AperFunction,Conductor*
G36*
X36606333Y-71167576D02*
G01*
X36612918Y-71173707D01*
X37123076Y-71683866D01*
X37164516Y-71620440D01*
X37218520Y-71574352D01*
X37288868Y-71564777D01*
X37353225Y-71594755D01*
X37375481Y-71620439D01*
X37416921Y-71683866D01*
X37416922Y-71683866D01*
X37927081Y-71173706D01*
X37989394Y-71139681D01*
X38060209Y-71144745D01*
X38117045Y-71187292D01*
X38122162Y-71194661D01*
X38158239Y-71250798D01*
X38266900Y-71344952D01*
X38266901Y-71344952D01*
X38273711Y-71350853D01*
X38271686Y-71353189D01*
X38308084Y-71395187D01*
X38318195Y-71465460D01*
X38288709Y-71530043D01*
X38282572Y-71536636D01*
X37774310Y-72044898D01*
X37794694Y-72060763D01*
X37794696Y-72060765D01*
X37828733Y-72079185D01*
X37879123Y-72129199D01*
X37894475Y-72198516D01*
X37869914Y-72265129D01*
X37828735Y-72300811D01*
X37794702Y-72319229D01*
X37774310Y-72335099D01*
X37774310Y-72335100D01*
X38282572Y-72843361D01*
X38316597Y-72905674D01*
X38311533Y-72976489D01*
X38272854Y-73028157D01*
X38273711Y-73029147D01*
X38269164Y-73033086D01*
X38268986Y-73033325D01*
X38268498Y-73033663D01*
X38158238Y-73129202D01*
X38122175Y-73185318D01*
X38068519Y-73231811D01*
X37998245Y-73241914D01*
X37933664Y-73212421D01*
X37927082Y-73206292D01*
X37416922Y-72696132D01*
X37416921Y-72696132D01*
X37375482Y-72759560D01*
X37321478Y-72805648D01*
X37251130Y-72815223D01*
X37186773Y-72785245D01*
X37164516Y-72759560D01*
X37123076Y-72696132D01*
X36612916Y-73206292D01*
X36550604Y-73240317D01*
X36479788Y-73235252D01*
X36422953Y-73192705D01*
X36417836Y-73185336D01*
X36381761Y-73129202D01*
X36273100Y-73035048D01*
X36273098Y-73035047D01*
X36266289Y-73029147D01*
X36268312Y-73026811D01*
X36231912Y-72984809D01*
X36221802Y-72914536D01*
X36251290Y-72849952D01*
X36257426Y-72843361D01*
X36765688Y-72335099D01*
X36745306Y-72319235D01*
X36745299Y-72319230D01*
X36711265Y-72300812D01*
X36660876Y-72250798D01*
X36645524Y-72181481D01*
X36670086Y-72114869D01*
X36711269Y-72079184D01*
X36745299Y-72060768D01*
X36745302Y-72060766D01*
X36765688Y-72044898D01*
X36257427Y-71536638D01*
X36223402Y-71474325D01*
X36228466Y-71403510D01*
X36267145Y-71351840D01*
X36266289Y-71350853D01*
X36270830Y-71346917D01*
X36271013Y-71346674D01*
X36271510Y-71346328D01*
X36273095Y-71344953D01*
X36273100Y-71344952D01*
X36381761Y-71250798D01*
X36417824Y-71194681D01*
X36471478Y-71148189D01*
X36541752Y-71138084D01*
X36606333Y-71167576D01*
G37*
G04 #@! TD.AperFunction*
G04 #@! TA.AperFunction,Conductor*
G36*
X53606333Y-71167576D02*
G01*
X53612918Y-71173707D01*
X54123076Y-71683866D01*
X54164516Y-71620440D01*
X54218520Y-71574352D01*
X54288868Y-71564777D01*
X54353225Y-71594755D01*
X54375481Y-71620439D01*
X54416921Y-71683866D01*
X54416922Y-71683866D01*
X54927081Y-71173706D01*
X54989394Y-71139681D01*
X55060209Y-71144745D01*
X55117045Y-71187292D01*
X55122162Y-71194661D01*
X55158239Y-71250798D01*
X55266900Y-71344952D01*
X55266901Y-71344952D01*
X55273711Y-71350853D01*
X55271686Y-71353189D01*
X55308084Y-71395187D01*
X55318195Y-71465460D01*
X55288709Y-71530043D01*
X55282572Y-71536636D01*
X54774310Y-72044898D01*
X54794694Y-72060763D01*
X54794696Y-72060765D01*
X54828733Y-72079185D01*
X54879123Y-72129199D01*
X54894475Y-72198516D01*
X54869914Y-72265129D01*
X54828735Y-72300811D01*
X54794702Y-72319229D01*
X54774310Y-72335099D01*
X54774310Y-72335100D01*
X55282572Y-72843361D01*
X55316597Y-72905674D01*
X55311533Y-72976489D01*
X55272854Y-73028157D01*
X55273711Y-73029147D01*
X55269164Y-73033086D01*
X55268986Y-73033325D01*
X55268498Y-73033663D01*
X55158238Y-73129202D01*
X55122175Y-73185318D01*
X55068519Y-73231811D01*
X54998245Y-73241914D01*
X54933664Y-73212421D01*
X54927082Y-73206292D01*
X54416922Y-72696132D01*
X54416921Y-72696132D01*
X54375482Y-72759560D01*
X54321478Y-72805648D01*
X54251130Y-72815223D01*
X54186773Y-72785245D01*
X54164516Y-72759560D01*
X54123076Y-72696132D01*
X53612916Y-73206292D01*
X53550604Y-73240317D01*
X53479788Y-73235252D01*
X53422953Y-73192705D01*
X53417836Y-73185336D01*
X53381761Y-73129202D01*
X53273100Y-73035048D01*
X53273098Y-73035047D01*
X53266289Y-73029147D01*
X53268312Y-73026811D01*
X53231912Y-72984809D01*
X53221802Y-72914536D01*
X53251290Y-72849952D01*
X53257426Y-72843361D01*
X53765688Y-72335099D01*
X53745306Y-72319235D01*
X53745299Y-72319230D01*
X53711265Y-72300812D01*
X53660876Y-72250798D01*
X53645524Y-72181481D01*
X53670086Y-72114869D01*
X53711269Y-72079184D01*
X53745299Y-72060768D01*
X53745302Y-72060766D01*
X53765688Y-72044898D01*
X53257427Y-71536638D01*
X53223402Y-71474325D01*
X53228466Y-71403510D01*
X53267145Y-71351840D01*
X53266289Y-71350853D01*
X53270830Y-71346917D01*
X53271013Y-71346674D01*
X53271510Y-71346328D01*
X53273095Y-71344953D01*
X53273100Y-71344952D01*
X53381761Y-71250798D01*
X53417824Y-71194681D01*
X53471478Y-71148189D01*
X53541752Y-71138084D01*
X53606333Y-71167576D01*
G37*
G04 #@! TD.AperFunction*
G04 #@! TA.AperFunction,Conductor*
G36*
X70606333Y-71167576D02*
G01*
X70612918Y-71173707D01*
X71123076Y-71683866D01*
X71164516Y-71620440D01*
X71218520Y-71574352D01*
X71288868Y-71564777D01*
X71353225Y-71594755D01*
X71375481Y-71620439D01*
X71416921Y-71683866D01*
X71416922Y-71683866D01*
X71927081Y-71173706D01*
X71989394Y-71139681D01*
X72060209Y-71144745D01*
X72117045Y-71187292D01*
X72122162Y-71194661D01*
X72158239Y-71250798D01*
X72266900Y-71344952D01*
X72266901Y-71344952D01*
X72273711Y-71350853D01*
X72271686Y-71353189D01*
X72308084Y-71395187D01*
X72318195Y-71465460D01*
X72288709Y-71530043D01*
X72282572Y-71536636D01*
X71774310Y-72044898D01*
X71794694Y-72060763D01*
X71794696Y-72060765D01*
X71828733Y-72079185D01*
X71879123Y-72129199D01*
X71894475Y-72198516D01*
X71869914Y-72265129D01*
X71828735Y-72300811D01*
X71794702Y-72319229D01*
X71774310Y-72335099D01*
X71774310Y-72335100D01*
X72282572Y-72843361D01*
X72316597Y-72905674D01*
X72311533Y-72976489D01*
X72272854Y-73028157D01*
X72273711Y-73029147D01*
X72269164Y-73033086D01*
X72268986Y-73033325D01*
X72268498Y-73033663D01*
X72158238Y-73129202D01*
X72122175Y-73185318D01*
X72068519Y-73231811D01*
X71998245Y-73241914D01*
X71933664Y-73212421D01*
X71927082Y-73206292D01*
X71416922Y-72696132D01*
X71416921Y-72696132D01*
X71375482Y-72759560D01*
X71321478Y-72805648D01*
X71251130Y-72815223D01*
X71186773Y-72785245D01*
X71164516Y-72759560D01*
X71123076Y-72696132D01*
X70612916Y-73206292D01*
X70550604Y-73240317D01*
X70479788Y-73235252D01*
X70422953Y-73192705D01*
X70417836Y-73185336D01*
X70381761Y-73129202D01*
X70273100Y-73035048D01*
X70273098Y-73035047D01*
X70266289Y-73029147D01*
X70268312Y-73026811D01*
X70231912Y-72984809D01*
X70221802Y-72914536D01*
X70251290Y-72849952D01*
X70257426Y-72843361D01*
X70765688Y-72335099D01*
X70745306Y-72319235D01*
X70745299Y-72319230D01*
X70711265Y-72300812D01*
X70660876Y-72250798D01*
X70645524Y-72181481D01*
X70670086Y-72114869D01*
X70711269Y-72079184D01*
X70745299Y-72060768D01*
X70745302Y-72060766D01*
X70765688Y-72044898D01*
X70257427Y-71536638D01*
X70223402Y-71474325D01*
X70228466Y-71403510D01*
X70267145Y-71351840D01*
X70266289Y-71350853D01*
X70270830Y-71346917D01*
X70271013Y-71346674D01*
X70271510Y-71346328D01*
X70273095Y-71344953D01*
X70273100Y-71344952D01*
X70381761Y-71250798D01*
X70417824Y-71194681D01*
X70471478Y-71148189D01*
X70541752Y-71138084D01*
X70606333Y-71167576D01*
G37*
G04 #@! TD.AperFunction*
G04 #@! TA.AperFunction,Conductor*
G36*
X87606333Y-71167576D02*
G01*
X87612918Y-71173707D01*
X88123076Y-71683866D01*
X88164516Y-71620440D01*
X88218520Y-71574352D01*
X88288868Y-71564777D01*
X88353225Y-71594755D01*
X88375481Y-71620439D01*
X88416921Y-71683866D01*
X88416922Y-71683866D01*
X88927081Y-71173706D01*
X88989394Y-71139681D01*
X89060209Y-71144745D01*
X89117045Y-71187292D01*
X89122162Y-71194661D01*
X89158239Y-71250798D01*
X89266900Y-71344952D01*
X89266901Y-71344952D01*
X89273711Y-71350853D01*
X89271686Y-71353189D01*
X89308084Y-71395187D01*
X89318195Y-71465460D01*
X89288709Y-71530043D01*
X89282572Y-71536636D01*
X88774310Y-72044898D01*
X88794694Y-72060763D01*
X88794696Y-72060765D01*
X88828733Y-72079185D01*
X88879123Y-72129199D01*
X88894475Y-72198516D01*
X88869914Y-72265129D01*
X88828735Y-72300811D01*
X88794702Y-72319229D01*
X88774310Y-72335099D01*
X88774310Y-72335100D01*
X89282572Y-72843361D01*
X89316597Y-72905674D01*
X89311533Y-72976489D01*
X89272854Y-73028157D01*
X89273711Y-73029147D01*
X89269164Y-73033086D01*
X89268986Y-73033325D01*
X89268498Y-73033663D01*
X89158238Y-73129202D01*
X89122175Y-73185318D01*
X89068519Y-73231811D01*
X88998245Y-73241914D01*
X88933664Y-73212421D01*
X88927082Y-73206292D01*
X88416922Y-72696132D01*
X88416921Y-72696132D01*
X88375482Y-72759560D01*
X88321478Y-72805648D01*
X88251130Y-72815223D01*
X88186773Y-72785245D01*
X88164516Y-72759560D01*
X88123076Y-72696132D01*
X87612916Y-73206292D01*
X87550604Y-73240317D01*
X87479788Y-73235252D01*
X87422953Y-73192705D01*
X87417836Y-73185336D01*
X87381761Y-73129202D01*
X87273100Y-73035048D01*
X87273098Y-73035047D01*
X87266289Y-73029147D01*
X87268312Y-73026811D01*
X87231912Y-72984809D01*
X87221802Y-72914536D01*
X87251290Y-72849952D01*
X87257426Y-72843361D01*
X87765689Y-72335099D01*
X87745306Y-72319235D01*
X87745299Y-72319230D01*
X87711265Y-72300812D01*
X87660876Y-72250798D01*
X87645524Y-72181481D01*
X87670086Y-72114869D01*
X87711269Y-72079184D01*
X87745299Y-72060768D01*
X87745302Y-72060766D01*
X87765688Y-72044898D01*
X87257427Y-71536638D01*
X87223402Y-71474325D01*
X87228466Y-71403510D01*
X87267145Y-71351840D01*
X87266289Y-71350853D01*
X87270830Y-71346917D01*
X87271013Y-71346674D01*
X87271510Y-71346328D01*
X87273095Y-71344953D01*
X87273100Y-71344952D01*
X87381761Y-71250798D01*
X87417824Y-71194681D01*
X87471478Y-71148189D01*
X87541752Y-71138084D01*
X87606333Y-71167576D01*
G37*
G04 #@! TD.AperFunction*
G04 #@! TA.AperFunction,Conductor*
G36*
X104606333Y-71167576D02*
G01*
X104612918Y-71173707D01*
X105123076Y-71683866D01*
X105164516Y-71620440D01*
X105218520Y-71574352D01*
X105288868Y-71564777D01*
X105353225Y-71594755D01*
X105375481Y-71620439D01*
X105416921Y-71683866D01*
X105416922Y-71683866D01*
X105927081Y-71173706D01*
X105989394Y-71139681D01*
X106060209Y-71144745D01*
X106117045Y-71187292D01*
X106122162Y-71194661D01*
X106158239Y-71250798D01*
X106266900Y-71344952D01*
X106266901Y-71344952D01*
X106273711Y-71350853D01*
X106271686Y-71353189D01*
X106308084Y-71395187D01*
X106318195Y-71465460D01*
X106288709Y-71530043D01*
X106282572Y-71536636D01*
X105774310Y-72044898D01*
X105794694Y-72060763D01*
X105794696Y-72060765D01*
X105828733Y-72079185D01*
X105879123Y-72129199D01*
X105894475Y-72198516D01*
X105869914Y-72265129D01*
X105828735Y-72300811D01*
X105794702Y-72319229D01*
X105774310Y-72335099D01*
X105774310Y-72335100D01*
X106282572Y-72843361D01*
X106316597Y-72905674D01*
X106311533Y-72976489D01*
X106272854Y-73028157D01*
X106273711Y-73029147D01*
X106269164Y-73033086D01*
X106268986Y-73033325D01*
X106268498Y-73033663D01*
X106158238Y-73129202D01*
X106122175Y-73185318D01*
X106068519Y-73231811D01*
X105998245Y-73241914D01*
X105933664Y-73212421D01*
X105927082Y-73206292D01*
X105416922Y-72696132D01*
X105416921Y-72696132D01*
X105375482Y-72759560D01*
X105321478Y-72805648D01*
X105251130Y-72815223D01*
X105186773Y-72785245D01*
X105164516Y-72759560D01*
X105123076Y-72696132D01*
X104612916Y-73206292D01*
X104550604Y-73240317D01*
X104479788Y-73235252D01*
X104422953Y-73192705D01*
X104417836Y-73185336D01*
X104381761Y-73129202D01*
X104273100Y-73035048D01*
X104273098Y-73035047D01*
X104266289Y-73029147D01*
X104268312Y-73026811D01*
X104231912Y-72984809D01*
X104221802Y-72914536D01*
X104251290Y-72849952D01*
X104257426Y-72843361D01*
X104765688Y-72335099D01*
X104745306Y-72319235D01*
X104745299Y-72319230D01*
X104711265Y-72300812D01*
X104660876Y-72250798D01*
X104645524Y-72181481D01*
X104670086Y-72114869D01*
X104711269Y-72079184D01*
X104745299Y-72060768D01*
X104745302Y-72060766D01*
X104765688Y-72044898D01*
X104257427Y-71536638D01*
X104223402Y-71474325D01*
X104228466Y-71403510D01*
X104267145Y-71351840D01*
X104266289Y-71350853D01*
X104270830Y-71346917D01*
X104271013Y-71346674D01*
X104271510Y-71346328D01*
X104273095Y-71344953D01*
X104273100Y-71344952D01*
X104381761Y-71250798D01*
X104417824Y-71194681D01*
X104471478Y-71148189D01*
X104541752Y-71138084D01*
X104606333Y-71167576D01*
G37*
G04 #@! TD.AperFunction*
G04 #@! TA.AperFunction,Conductor*
G36*
X121606333Y-71167576D02*
G01*
X121612918Y-71173707D01*
X122123076Y-71683866D01*
X122164516Y-71620440D01*
X122218520Y-71574352D01*
X122288868Y-71564777D01*
X122353225Y-71594755D01*
X122375481Y-71620439D01*
X122416921Y-71683866D01*
X122416922Y-71683866D01*
X122927081Y-71173706D01*
X122989394Y-71139681D01*
X123060209Y-71144745D01*
X123117045Y-71187292D01*
X123122162Y-71194661D01*
X123158239Y-71250798D01*
X123266900Y-71344952D01*
X123266901Y-71344952D01*
X123273711Y-71350853D01*
X123271686Y-71353189D01*
X123308084Y-71395187D01*
X123318195Y-71465460D01*
X123288709Y-71530043D01*
X123282572Y-71536636D01*
X122774310Y-72044898D01*
X122794694Y-72060763D01*
X122794696Y-72060765D01*
X122828733Y-72079185D01*
X122879123Y-72129199D01*
X122894475Y-72198516D01*
X122869914Y-72265129D01*
X122828735Y-72300811D01*
X122794702Y-72319229D01*
X122774310Y-72335099D01*
X122774310Y-72335100D01*
X123282572Y-72843361D01*
X123316597Y-72905674D01*
X123311533Y-72976489D01*
X123272854Y-73028157D01*
X123273711Y-73029147D01*
X123269164Y-73033086D01*
X123268986Y-73033325D01*
X123268498Y-73033663D01*
X123158238Y-73129202D01*
X123122175Y-73185318D01*
X123068519Y-73231811D01*
X122998245Y-73241914D01*
X122933664Y-73212421D01*
X122927082Y-73206292D01*
X122416922Y-72696132D01*
X122416921Y-72696132D01*
X122375482Y-72759560D01*
X122321478Y-72805648D01*
X122251130Y-72815223D01*
X122186773Y-72785245D01*
X122164516Y-72759560D01*
X122123076Y-72696132D01*
X121612916Y-73206292D01*
X121550604Y-73240317D01*
X121479788Y-73235252D01*
X121422953Y-73192705D01*
X121417836Y-73185336D01*
X121381761Y-73129202D01*
X121273100Y-73035048D01*
X121273098Y-73035047D01*
X121266289Y-73029147D01*
X121268312Y-73026811D01*
X121231912Y-72984809D01*
X121221802Y-72914536D01*
X121251290Y-72849952D01*
X121257426Y-72843361D01*
X121765688Y-72335099D01*
X121745306Y-72319235D01*
X121745299Y-72319230D01*
X121711265Y-72300812D01*
X121660876Y-72250798D01*
X121645524Y-72181481D01*
X121670086Y-72114869D01*
X121711269Y-72079184D01*
X121745299Y-72060768D01*
X121745302Y-72060766D01*
X121765688Y-72044898D01*
X121257427Y-71536638D01*
X121223402Y-71474325D01*
X121228466Y-71403510D01*
X121267145Y-71351840D01*
X121266289Y-71350853D01*
X121270830Y-71346917D01*
X121271013Y-71346674D01*
X121271510Y-71346328D01*
X121273095Y-71344953D01*
X121273100Y-71344952D01*
X121381761Y-71250798D01*
X121417824Y-71194681D01*
X121471478Y-71148189D01*
X121541752Y-71138084D01*
X121606333Y-71167576D01*
G37*
G04 #@! TD.AperFunction*
G04 #@! TA.AperFunction,Conductor*
G36*
X159066333Y-71167576D02*
G01*
X159072918Y-71173707D01*
X159583076Y-71683866D01*
X159624516Y-71620440D01*
X159678520Y-71574352D01*
X159748868Y-71564777D01*
X159813225Y-71594755D01*
X159835481Y-71620439D01*
X159876921Y-71683866D01*
X159876922Y-71683866D01*
X160387081Y-71173706D01*
X160449394Y-71139681D01*
X160520209Y-71144745D01*
X160577045Y-71187292D01*
X160582162Y-71194661D01*
X160618239Y-71250798D01*
X160726900Y-71344952D01*
X160726901Y-71344952D01*
X160733711Y-71350853D01*
X160731686Y-71353189D01*
X160768084Y-71395187D01*
X160778195Y-71465460D01*
X160748709Y-71530043D01*
X160742572Y-71536636D01*
X160234310Y-72044898D01*
X160254694Y-72060763D01*
X160254696Y-72060765D01*
X160288733Y-72079185D01*
X160339123Y-72129199D01*
X160354475Y-72198516D01*
X160329914Y-72265129D01*
X160288735Y-72300811D01*
X160254702Y-72319229D01*
X160234310Y-72335099D01*
X160234310Y-72335100D01*
X160742572Y-72843361D01*
X160776597Y-72905674D01*
X160771533Y-72976489D01*
X160732854Y-73028157D01*
X160733711Y-73029147D01*
X160729164Y-73033086D01*
X160728986Y-73033325D01*
X160728498Y-73033663D01*
X160618238Y-73129202D01*
X160582175Y-73185318D01*
X160528519Y-73231811D01*
X160458245Y-73241914D01*
X160393664Y-73212421D01*
X160387082Y-73206292D01*
X159876922Y-72696132D01*
X159876921Y-72696132D01*
X159835482Y-72759560D01*
X159781478Y-72805648D01*
X159711130Y-72815223D01*
X159646773Y-72785245D01*
X159624516Y-72759560D01*
X159583076Y-72696132D01*
X159072916Y-73206292D01*
X159010604Y-73240317D01*
X158939788Y-73235252D01*
X158882953Y-73192705D01*
X158877836Y-73185336D01*
X158841761Y-73129202D01*
X158733100Y-73035048D01*
X158733098Y-73035047D01*
X158726289Y-73029147D01*
X158728312Y-73026811D01*
X158691912Y-72984809D01*
X158681802Y-72914536D01*
X158711290Y-72849952D01*
X158717426Y-72843361D01*
X159225688Y-72335099D01*
X159205306Y-72319235D01*
X159205299Y-72319230D01*
X159171265Y-72300812D01*
X159120876Y-72250798D01*
X159105524Y-72181481D01*
X159130086Y-72114869D01*
X159171269Y-72079184D01*
X159205299Y-72060768D01*
X159205302Y-72060766D01*
X159225688Y-72044898D01*
X158717427Y-71536638D01*
X158683402Y-71474325D01*
X158688466Y-71403510D01*
X158727145Y-71351840D01*
X158726289Y-71350853D01*
X158730830Y-71346917D01*
X158731013Y-71346674D01*
X158731510Y-71346328D01*
X158733095Y-71344953D01*
X158733100Y-71344952D01*
X158841761Y-71250798D01*
X158877824Y-71194681D01*
X158931478Y-71148189D01*
X159001752Y-71138084D01*
X159066333Y-71167576D01*
G37*
G04 #@! TD.AperFunction*
G04 #@! TA.AperFunction,Conductor*
G36*
X176066333Y-71167576D02*
G01*
X176072918Y-71173707D01*
X176583076Y-71683866D01*
X176624516Y-71620440D01*
X176678520Y-71574352D01*
X176748868Y-71564777D01*
X176813225Y-71594755D01*
X176835481Y-71620439D01*
X176876921Y-71683866D01*
X176876922Y-71683866D01*
X177387081Y-71173706D01*
X177449394Y-71139681D01*
X177520209Y-71144745D01*
X177577045Y-71187292D01*
X177582162Y-71194661D01*
X177618239Y-71250798D01*
X177726900Y-71344952D01*
X177726901Y-71344952D01*
X177733711Y-71350853D01*
X177731686Y-71353189D01*
X177768084Y-71395187D01*
X177778195Y-71465460D01*
X177748709Y-71530043D01*
X177742572Y-71536636D01*
X177234310Y-72044898D01*
X177254694Y-72060763D01*
X177254696Y-72060765D01*
X177288733Y-72079185D01*
X177339123Y-72129199D01*
X177354475Y-72198516D01*
X177329914Y-72265129D01*
X177288735Y-72300811D01*
X177254702Y-72319229D01*
X177234310Y-72335099D01*
X177234310Y-72335100D01*
X177742572Y-72843361D01*
X177776597Y-72905674D01*
X177771533Y-72976489D01*
X177732854Y-73028157D01*
X177733711Y-73029147D01*
X177729164Y-73033086D01*
X177728986Y-73033325D01*
X177728498Y-73033663D01*
X177618238Y-73129202D01*
X177582175Y-73185318D01*
X177528519Y-73231811D01*
X177458245Y-73241914D01*
X177393664Y-73212421D01*
X177387082Y-73206292D01*
X176876922Y-72696132D01*
X176876921Y-72696132D01*
X176835482Y-72759560D01*
X176781478Y-72805648D01*
X176711130Y-72815223D01*
X176646773Y-72785245D01*
X176624516Y-72759560D01*
X176583076Y-72696132D01*
X176072916Y-73206292D01*
X176010604Y-73240317D01*
X175939788Y-73235252D01*
X175882953Y-73192705D01*
X175877836Y-73185336D01*
X175841761Y-73129202D01*
X175733100Y-73035048D01*
X175733098Y-73035047D01*
X175726289Y-73029147D01*
X175728312Y-73026811D01*
X175691912Y-72984809D01*
X175681802Y-72914536D01*
X175711290Y-72849952D01*
X175717426Y-72843361D01*
X176225688Y-72335099D01*
X176205306Y-72319235D01*
X176205299Y-72319230D01*
X176171265Y-72300812D01*
X176120876Y-72250798D01*
X176105524Y-72181481D01*
X176130086Y-72114869D01*
X176171269Y-72079184D01*
X176205299Y-72060768D01*
X176205302Y-72060766D01*
X176225688Y-72044898D01*
X175717427Y-71536638D01*
X175683402Y-71474325D01*
X175688466Y-71403510D01*
X175727145Y-71351840D01*
X175726289Y-71350853D01*
X175730830Y-71346917D01*
X175731013Y-71346674D01*
X175731510Y-71346328D01*
X175733095Y-71344953D01*
X175733100Y-71344952D01*
X175841761Y-71250798D01*
X175877824Y-71194681D01*
X175931478Y-71148189D01*
X176001752Y-71138084D01*
X176066333Y-71167576D01*
G37*
G04 #@! TD.AperFunction*
G04 #@! TA.AperFunction,Conductor*
G36*
X193066333Y-71167576D02*
G01*
X193072918Y-71173707D01*
X193583076Y-71683866D01*
X193624516Y-71620440D01*
X193678520Y-71574352D01*
X193748868Y-71564777D01*
X193813225Y-71594755D01*
X193835481Y-71620439D01*
X193876921Y-71683866D01*
X193876922Y-71683866D01*
X194387081Y-71173706D01*
X194449394Y-71139681D01*
X194520209Y-71144745D01*
X194577045Y-71187292D01*
X194582162Y-71194661D01*
X194618239Y-71250798D01*
X194726900Y-71344952D01*
X194726901Y-71344952D01*
X194733711Y-71350853D01*
X194731686Y-71353189D01*
X194768084Y-71395187D01*
X194778195Y-71465460D01*
X194748709Y-71530043D01*
X194742572Y-71536636D01*
X194234310Y-72044898D01*
X194254694Y-72060763D01*
X194254696Y-72060765D01*
X194288733Y-72079185D01*
X194339123Y-72129199D01*
X194354475Y-72198516D01*
X194329914Y-72265129D01*
X194288735Y-72300811D01*
X194254702Y-72319229D01*
X194234310Y-72335099D01*
X194234310Y-72335100D01*
X194742572Y-72843361D01*
X194776597Y-72905674D01*
X194771533Y-72976489D01*
X194732854Y-73028157D01*
X194733711Y-73029147D01*
X194729164Y-73033086D01*
X194728986Y-73033325D01*
X194728498Y-73033663D01*
X194618238Y-73129202D01*
X194582175Y-73185318D01*
X194528519Y-73231811D01*
X194458245Y-73241914D01*
X194393664Y-73212421D01*
X194387082Y-73206292D01*
X193876922Y-72696132D01*
X193876921Y-72696132D01*
X193835482Y-72759560D01*
X193781478Y-72805648D01*
X193711130Y-72815223D01*
X193646773Y-72785245D01*
X193624516Y-72759560D01*
X193583076Y-72696132D01*
X193072916Y-73206292D01*
X193010604Y-73240317D01*
X192939788Y-73235252D01*
X192882953Y-73192705D01*
X192877836Y-73185336D01*
X192841761Y-73129202D01*
X192733100Y-73035048D01*
X192733098Y-73035047D01*
X192726289Y-73029147D01*
X192728312Y-73026811D01*
X192691912Y-72984809D01*
X192681802Y-72914536D01*
X192711290Y-72849952D01*
X192717426Y-72843361D01*
X193225688Y-72335099D01*
X193205306Y-72319235D01*
X193205299Y-72319230D01*
X193171265Y-72300812D01*
X193120876Y-72250798D01*
X193105524Y-72181481D01*
X193130086Y-72114869D01*
X193171269Y-72079184D01*
X193205299Y-72060768D01*
X193205302Y-72060766D01*
X193225688Y-72044898D01*
X192717427Y-71536638D01*
X192683402Y-71474325D01*
X192688466Y-71403510D01*
X192727145Y-71351840D01*
X192726289Y-71350853D01*
X192730830Y-71346917D01*
X192731013Y-71346674D01*
X192731510Y-71346328D01*
X192733095Y-71344953D01*
X192733100Y-71344952D01*
X192841761Y-71250798D01*
X192877824Y-71194681D01*
X192931478Y-71148189D01*
X193001752Y-71138084D01*
X193066333Y-71167576D01*
G37*
G04 #@! TD.AperFunction*
G04 #@! TA.AperFunction,Conductor*
G36*
X210066333Y-71167576D02*
G01*
X210072918Y-71173707D01*
X210583076Y-71683866D01*
X210624516Y-71620440D01*
X210678520Y-71574352D01*
X210748868Y-71564777D01*
X210813225Y-71594755D01*
X210835481Y-71620439D01*
X210876921Y-71683866D01*
X210876922Y-71683866D01*
X211387081Y-71173706D01*
X211449394Y-71139681D01*
X211520209Y-71144745D01*
X211577045Y-71187292D01*
X211582162Y-71194661D01*
X211618239Y-71250798D01*
X211726900Y-71344952D01*
X211726901Y-71344952D01*
X211733711Y-71350853D01*
X211731686Y-71353189D01*
X211768084Y-71395187D01*
X211778195Y-71465460D01*
X211748709Y-71530043D01*
X211742572Y-71536636D01*
X211234310Y-72044898D01*
X211254694Y-72060763D01*
X211254696Y-72060765D01*
X211288733Y-72079185D01*
X211339123Y-72129199D01*
X211354475Y-72198516D01*
X211329914Y-72265129D01*
X211288735Y-72300811D01*
X211254702Y-72319229D01*
X211234310Y-72335099D01*
X211234310Y-72335100D01*
X211742572Y-72843361D01*
X211776597Y-72905674D01*
X211771533Y-72976489D01*
X211732854Y-73028157D01*
X211733711Y-73029147D01*
X211729164Y-73033086D01*
X211728986Y-73033325D01*
X211728498Y-73033663D01*
X211618238Y-73129202D01*
X211582175Y-73185318D01*
X211528519Y-73231811D01*
X211458245Y-73241914D01*
X211393664Y-73212421D01*
X211387082Y-73206292D01*
X210876922Y-72696132D01*
X210876921Y-72696132D01*
X210835482Y-72759560D01*
X210781478Y-72805648D01*
X210711130Y-72815223D01*
X210646773Y-72785245D01*
X210624516Y-72759560D01*
X210583076Y-72696132D01*
X210072916Y-73206292D01*
X210010604Y-73240317D01*
X209939788Y-73235252D01*
X209882953Y-73192705D01*
X209877836Y-73185336D01*
X209841761Y-73129202D01*
X209733100Y-73035048D01*
X209733098Y-73035047D01*
X209726289Y-73029147D01*
X209728312Y-73026811D01*
X209691912Y-72984809D01*
X209681802Y-72914536D01*
X209711290Y-72849952D01*
X209717426Y-72843361D01*
X210225689Y-72335099D01*
X210205306Y-72319235D01*
X210205299Y-72319230D01*
X210171265Y-72300812D01*
X210120876Y-72250798D01*
X210105524Y-72181481D01*
X210130086Y-72114869D01*
X210171269Y-72079184D01*
X210205299Y-72060768D01*
X210205302Y-72060766D01*
X210225688Y-72044898D01*
X209717427Y-71536638D01*
X209683402Y-71474325D01*
X209688466Y-71403510D01*
X209727145Y-71351840D01*
X209726289Y-71350853D01*
X209730830Y-71346917D01*
X209731013Y-71346674D01*
X209731510Y-71346328D01*
X209733095Y-71344953D01*
X209733100Y-71344952D01*
X209841761Y-71250798D01*
X209877824Y-71194681D01*
X209931478Y-71148189D01*
X210001752Y-71138084D01*
X210066333Y-71167576D01*
G37*
G04 #@! TD.AperFunction*
G04 #@! TA.AperFunction,Conductor*
G36*
X227066333Y-71167576D02*
G01*
X227072918Y-71173707D01*
X227583076Y-71683866D01*
X227624516Y-71620440D01*
X227678520Y-71574352D01*
X227748868Y-71564777D01*
X227813225Y-71594755D01*
X227835481Y-71620439D01*
X227876921Y-71683866D01*
X227876922Y-71683866D01*
X228387081Y-71173706D01*
X228449394Y-71139681D01*
X228520209Y-71144745D01*
X228577045Y-71187292D01*
X228582162Y-71194661D01*
X228618239Y-71250798D01*
X228726900Y-71344952D01*
X228726901Y-71344952D01*
X228733711Y-71350853D01*
X228731686Y-71353189D01*
X228768084Y-71395187D01*
X228778195Y-71465460D01*
X228748709Y-71530043D01*
X228742572Y-71536636D01*
X228234310Y-72044898D01*
X228254694Y-72060763D01*
X228254696Y-72060765D01*
X228288733Y-72079185D01*
X228339123Y-72129199D01*
X228354475Y-72198516D01*
X228329914Y-72265129D01*
X228288735Y-72300811D01*
X228254702Y-72319229D01*
X228234310Y-72335099D01*
X228234310Y-72335100D01*
X228742572Y-72843361D01*
X228776597Y-72905674D01*
X228771533Y-72976489D01*
X228732854Y-73028157D01*
X228733711Y-73029147D01*
X228729164Y-73033086D01*
X228728986Y-73033325D01*
X228728498Y-73033663D01*
X228618238Y-73129202D01*
X228582175Y-73185318D01*
X228528519Y-73231811D01*
X228458245Y-73241914D01*
X228393664Y-73212421D01*
X228387082Y-73206292D01*
X227876922Y-72696132D01*
X227876921Y-72696132D01*
X227835482Y-72759560D01*
X227781478Y-72805648D01*
X227711130Y-72815223D01*
X227646773Y-72785245D01*
X227624516Y-72759560D01*
X227583076Y-72696132D01*
X227072916Y-73206292D01*
X227010604Y-73240317D01*
X226939788Y-73235252D01*
X226882953Y-73192705D01*
X226877836Y-73185336D01*
X226841761Y-73129202D01*
X226733100Y-73035048D01*
X226733098Y-73035047D01*
X226726289Y-73029147D01*
X226728312Y-73026811D01*
X226691912Y-72984809D01*
X226681802Y-72914536D01*
X226711290Y-72849952D01*
X226717426Y-72843361D01*
X227225688Y-72335099D01*
X227205306Y-72319235D01*
X227205299Y-72319230D01*
X227171265Y-72300812D01*
X227120876Y-72250798D01*
X227105524Y-72181481D01*
X227130086Y-72114869D01*
X227171269Y-72079184D01*
X227205299Y-72060768D01*
X227205302Y-72060766D01*
X227225688Y-72044898D01*
X226717427Y-71536638D01*
X226683402Y-71474325D01*
X226688466Y-71403510D01*
X226727145Y-71351840D01*
X226726289Y-71350853D01*
X226730830Y-71346917D01*
X226731013Y-71346674D01*
X226731510Y-71346328D01*
X226733095Y-71344953D01*
X226733100Y-71344952D01*
X226841761Y-71250798D01*
X226877824Y-71194681D01*
X226931478Y-71148189D01*
X227001752Y-71138084D01*
X227066333Y-71167576D01*
G37*
G04 #@! TD.AperFunction*
G04 #@! TA.AperFunction,Conductor*
G36*
X244066333Y-71167576D02*
G01*
X244072918Y-71173707D01*
X244583076Y-71683866D01*
X244624516Y-71620440D01*
X244678520Y-71574352D01*
X244748868Y-71564777D01*
X244813225Y-71594755D01*
X244835481Y-71620439D01*
X244876921Y-71683866D01*
X244876922Y-71683866D01*
X245387081Y-71173706D01*
X245449394Y-71139681D01*
X245520209Y-71144745D01*
X245577045Y-71187292D01*
X245582162Y-71194661D01*
X245618239Y-71250798D01*
X245726900Y-71344952D01*
X245726901Y-71344952D01*
X245733711Y-71350853D01*
X245731686Y-71353189D01*
X245768084Y-71395187D01*
X245778195Y-71465460D01*
X245748709Y-71530043D01*
X245742572Y-71536636D01*
X245234310Y-72044898D01*
X245254694Y-72060763D01*
X245254696Y-72060765D01*
X245288733Y-72079185D01*
X245339123Y-72129199D01*
X245354475Y-72198516D01*
X245329914Y-72265129D01*
X245288735Y-72300811D01*
X245254702Y-72319229D01*
X245234310Y-72335099D01*
X245234310Y-72335100D01*
X245742572Y-72843361D01*
X245776597Y-72905674D01*
X245771533Y-72976489D01*
X245732854Y-73028157D01*
X245733711Y-73029147D01*
X245729164Y-73033086D01*
X245728986Y-73033325D01*
X245728498Y-73033663D01*
X245618238Y-73129202D01*
X245582175Y-73185318D01*
X245528519Y-73231811D01*
X245458245Y-73241914D01*
X245393664Y-73212421D01*
X245387082Y-73206292D01*
X244876922Y-72696132D01*
X244876921Y-72696132D01*
X244835482Y-72759560D01*
X244781478Y-72805648D01*
X244711130Y-72815223D01*
X244646773Y-72785245D01*
X244624516Y-72759560D01*
X244583076Y-72696132D01*
X244072916Y-73206292D01*
X244010604Y-73240317D01*
X243939788Y-73235252D01*
X243882953Y-73192705D01*
X243877836Y-73185336D01*
X243841761Y-73129202D01*
X243733100Y-73035048D01*
X243733098Y-73035047D01*
X243726289Y-73029147D01*
X243728312Y-73026811D01*
X243691912Y-72984809D01*
X243681802Y-72914536D01*
X243711290Y-72849952D01*
X243717426Y-72843361D01*
X244225688Y-72335099D01*
X244205306Y-72319235D01*
X244205299Y-72319230D01*
X244171265Y-72300812D01*
X244120876Y-72250798D01*
X244105524Y-72181481D01*
X244130086Y-72114869D01*
X244171269Y-72079184D01*
X244205299Y-72060768D01*
X244205302Y-72060766D01*
X244225688Y-72044898D01*
X243717427Y-71536638D01*
X243683402Y-71474325D01*
X243688466Y-71403510D01*
X243727145Y-71351840D01*
X243726289Y-71350853D01*
X243730830Y-71346917D01*
X243731013Y-71346674D01*
X243731510Y-71346328D01*
X243733095Y-71344953D01*
X243733100Y-71344952D01*
X243841761Y-71250798D01*
X243877824Y-71194681D01*
X243931478Y-71148189D01*
X244001752Y-71138084D01*
X244066333Y-71167576D01*
G37*
G04 #@! TD.AperFunction*
G04 #@! TA.AperFunction,Conductor*
G36*
X36606333Y-68627576D02*
G01*
X36612918Y-68633707D01*
X37123076Y-69143866D01*
X37164516Y-69080440D01*
X37218520Y-69034352D01*
X37288868Y-69024777D01*
X37353225Y-69054755D01*
X37375481Y-69080439D01*
X37416921Y-69143866D01*
X37416922Y-69143866D01*
X37927081Y-68633706D01*
X37989394Y-68599681D01*
X38060209Y-68604745D01*
X38117045Y-68647292D01*
X38122162Y-68654661D01*
X38158239Y-68710798D01*
X38266900Y-68804952D01*
X38266901Y-68804952D01*
X38273711Y-68810853D01*
X38271686Y-68813189D01*
X38308084Y-68855187D01*
X38318195Y-68925460D01*
X38288709Y-68990043D01*
X38282572Y-68996636D01*
X37774310Y-69504898D01*
X37794694Y-69520763D01*
X37794696Y-69520765D01*
X37828733Y-69539185D01*
X37879123Y-69589199D01*
X37894475Y-69658516D01*
X37869914Y-69725129D01*
X37828735Y-69760811D01*
X37794702Y-69779229D01*
X37774310Y-69795099D01*
X37774310Y-69795100D01*
X38282572Y-70303361D01*
X38316597Y-70365674D01*
X38311533Y-70436489D01*
X38272854Y-70488157D01*
X38273711Y-70489147D01*
X38269164Y-70493086D01*
X38268986Y-70493325D01*
X38268498Y-70493663D01*
X38158238Y-70589202D01*
X38122175Y-70645318D01*
X38068519Y-70691811D01*
X37998245Y-70701914D01*
X37933664Y-70672421D01*
X37927082Y-70666292D01*
X37416922Y-70156132D01*
X37416921Y-70156132D01*
X37375482Y-70219560D01*
X37321478Y-70265648D01*
X37251130Y-70275223D01*
X37186773Y-70245245D01*
X37164516Y-70219560D01*
X37123076Y-70156132D01*
X36612916Y-70666292D01*
X36550604Y-70700317D01*
X36479788Y-70695252D01*
X36422953Y-70652705D01*
X36417836Y-70645336D01*
X36381761Y-70589202D01*
X36273100Y-70495048D01*
X36273098Y-70495047D01*
X36266289Y-70489147D01*
X36268312Y-70486811D01*
X36231912Y-70444809D01*
X36221802Y-70374536D01*
X36251290Y-70309952D01*
X36257426Y-70303361D01*
X36765688Y-69795099D01*
X36745306Y-69779235D01*
X36745299Y-69779230D01*
X36711265Y-69760812D01*
X36660876Y-69710798D01*
X36645524Y-69641481D01*
X36670086Y-69574869D01*
X36711269Y-69539184D01*
X36745299Y-69520768D01*
X36745302Y-69520766D01*
X36765688Y-69504898D01*
X36257427Y-68996638D01*
X36223402Y-68934325D01*
X36228466Y-68863510D01*
X36267145Y-68811840D01*
X36266289Y-68810853D01*
X36270830Y-68806917D01*
X36271013Y-68806674D01*
X36271510Y-68806328D01*
X36273095Y-68804953D01*
X36273100Y-68804952D01*
X36381761Y-68710798D01*
X36417824Y-68654681D01*
X36471478Y-68608189D01*
X36541752Y-68598084D01*
X36606333Y-68627576D01*
G37*
G04 #@! TD.AperFunction*
G04 #@! TA.AperFunction,Conductor*
G36*
X53606333Y-68627576D02*
G01*
X53612918Y-68633707D01*
X54123076Y-69143866D01*
X54164516Y-69080440D01*
X54218520Y-69034352D01*
X54288868Y-69024777D01*
X54353225Y-69054755D01*
X54375481Y-69080439D01*
X54416921Y-69143866D01*
X54416922Y-69143866D01*
X54927081Y-68633706D01*
X54989394Y-68599681D01*
X55060209Y-68604745D01*
X55117045Y-68647292D01*
X55122162Y-68654661D01*
X55158239Y-68710798D01*
X55266900Y-68804952D01*
X55266901Y-68804952D01*
X55273711Y-68810853D01*
X55271686Y-68813189D01*
X55308084Y-68855187D01*
X55318195Y-68925460D01*
X55288709Y-68990043D01*
X55282572Y-68996636D01*
X54774310Y-69504898D01*
X54794694Y-69520763D01*
X54794696Y-69520765D01*
X54828733Y-69539185D01*
X54879123Y-69589199D01*
X54894475Y-69658516D01*
X54869914Y-69725129D01*
X54828735Y-69760811D01*
X54794702Y-69779229D01*
X54774310Y-69795099D01*
X54774310Y-69795100D01*
X55282572Y-70303361D01*
X55316597Y-70365674D01*
X55311533Y-70436489D01*
X55272854Y-70488157D01*
X55273711Y-70489147D01*
X55269164Y-70493086D01*
X55268986Y-70493325D01*
X55268498Y-70493663D01*
X55158238Y-70589202D01*
X55122175Y-70645318D01*
X55068519Y-70691811D01*
X54998245Y-70701914D01*
X54933664Y-70672421D01*
X54927082Y-70666292D01*
X54416922Y-70156132D01*
X54416921Y-70156132D01*
X54375482Y-70219560D01*
X54321478Y-70265648D01*
X54251130Y-70275223D01*
X54186773Y-70245245D01*
X54164516Y-70219560D01*
X54123076Y-70156132D01*
X53612916Y-70666292D01*
X53550604Y-70700317D01*
X53479788Y-70695252D01*
X53422953Y-70652705D01*
X53417836Y-70645336D01*
X53381761Y-70589202D01*
X53273100Y-70495048D01*
X53273098Y-70495047D01*
X53266289Y-70489147D01*
X53268312Y-70486811D01*
X53231912Y-70444809D01*
X53221802Y-70374536D01*
X53251290Y-70309952D01*
X53257426Y-70303361D01*
X53765689Y-69795099D01*
X53745306Y-69779235D01*
X53745299Y-69779230D01*
X53711265Y-69760812D01*
X53660876Y-69710798D01*
X53645524Y-69641481D01*
X53670086Y-69574869D01*
X53711269Y-69539184D01*
X53745299Y-69520768D01*
X53745302Y-69520766D01*
X53765688Y-69504898D01*
X53257427Y-68996638D01*
X53223402Y-68934325D01*
X53228466Y-68863510D01*
X53267145Y-68811840D01*
X53266289Y-68810853D01*
X53270830Y-68806917D01*
X53271013Y-68806674D01*
X53271510Y-68806328D01*
X53273095Y-68804953D01*
X53273100Y-68804952D01*
X53381761Y-68710798D01*
X53417824Y-68654681D01*
X53471478Y-68608189D01*
X53541752Y-68598084D01*
X53606333Y-68627576D01*
G37*
G04 #@! TD.AperFunction*
G04 #@! TA.AperFunction,Conductor*
G36*
X70606333Y-68627576D02*
G01*
X70612918Y-68633707D01*
X71123076Y-69143866D01*
X71164516Y-69080440D01*
X71218520Y-69034352D01*
X71288868Y-69024777D01*
X71353225Y-69054755D01*
X71375481Y-69080439D01*
X71416921Y-69143866D01*
X71416922Y-69143866D01*
X71927081Y-68633706D01*
X71989394Y-68599681D01*
X72060209Y-68604745D01*
X72117045Y-68647292D01*
X72122162Y-68654661D01*
X72158239Y-68710798D01*
X72266900Y-68804952D01*
X72266901Y-68804952D01*
X72273711Y-68810853D01*
X72271686Y-68813189D01*
X72308084Y-68855187D01*
X72318195Y-68925460D01*
X72288709Y-68990043D01*
X72282572Y-68996636D01*
X71774310Y-69504898D01*
X71794694Y-69520763D01*
X71794696Y-69520765D01*
X71828733Y-69539185D01*
X71879123Y-69589199D01*
X71894475Y-69658516D01*
X71869914Y-69725129D01*
X71828735Y-69760811D01*
X71794702Y-69779229D01*
X71774310Y-69795099D01*
X71774310Y-69795100D01*
X72282572Y-70303361D01*
X72316597Y-70365674D01*
X72311533Y-70436489D01*
X72272854Y-70488157D01*
X72273711Y-70489147D01*
X72269164Y-70493086D01*
X72268986Y-70493325D01*
X72268498Y-70493663D01*
X72158238Y-70589202D01*
X72122175Y-70645318D01*
X72068519Y-70691811D01*
X71998245Y-70701914D01*
X71933664Y-70672421D01*
X71927082Y-70666292D01*
X71416922Y-70156132D01*
X71416921Y-70156132D01*
X71375482Y-70219560D01*
X71321478Y-70265648D01*
X71251130Y-70275223D01*
X71186773Y-70245245D01*
X71164516Y-70219560D01*
X71123076Y-70156132D01*
X70612916Y-70666292D01*
X70550604Y-70700317D01*
X70479788Y-70695252D01*
X70422953Y-70652705D01*
X70417836Y-70645336D01*
X70381761Y-70589202D01*
X70273100Y-70495048D01*
X70273098Y-70495047D01*
X70266289Y-70489147D01*
X70268312Y-70486811D01*
X70231912Y-70444809D01*
X70221802Y-70374536D01*
X70251290Y-70309952D01*
X70257426Y-70303361D01*
X70765688Y-69795099D01*
X70745306Y-69779235D01*
X70745299Y-69779230D01*
X70711265Y-69760812D01*
X70660876Y-69710798D01*
X70645524Y-69641481D01*
X70670086Y-69574869D01*
X70711269Y-69539184D01*
X70745299Y-69520768D01*
X70745302Y-69520766D01*
X70765688Y-69504898D01*
X70257427Y-68996638D01*
X70223402Y-68934325D01*
X70228466Y-68863510D01*
X70267145Y-68811840D01*
X70266289Y-68810853D01*
X70270830Y-68806917D01*
X70271013Y-68806674D01*
X70271510Y-68806328D01*
X70273095Y-68804953D01*
X70273100Y-68804952D01*
X70381761Y-68710798D01*
X70417824Y-68654681D01*
X70471478Y-68608189D01*
X70541752Y-68598084D01*
X70606333Y-68627576D01*
G37*
G04 #@! TD.AperFunction*
G04 #@! TA.AperFunction,Conductor*
G36*
X87606333Y-68627576D02*
G01*
X87612918Y-68633707D01*
X88123076Y-69143866D01*
X88164516Y-69080440D01*
X88218520Y-69034352D01*
X88288868Y-69024777D01*
X88353225Y-69054755D01*
X88375481Y-69080439D01*
X88416921Y-69143866D01*
X88416922Y-69143866D01*
X88927081Y-68633706D01*
X88989394Y-68599681D01*
X89060209Y-68604745D01*
X89117045Y-68647292D01*
X89122162Y-68654661D01*
X89158239Y-68710798D01*
X89266900Y-68804952D01*
X89266901Y-68804952D01*
X89273711Y-68810853D01*
X89271686Y-68813189D01*
X89308084Y-68855187D01*
X89318195Y-68925460D01*
X89288709Y-68990043D01*
X89282572Y-68996636D01*
X88774310Y-69504898D01*
X88794694Y-69520763D01*
X88794696Y-69520765D01*
X88828733Y-69539185D01*
X88879123Y-69589199D01*
X88894475Y-69658516D01*
X88869914Y-69725129D01*
X88828735Y-69760811D01*
X88794702Y-69779229D01*
X88774310Y-69795099D01*
X88774310Y-69795100D01*
X89282572Y-70303361D01*
X89316597Y-70365674D01*
X89311533Y-70436489D01*
X89272854Y-70488157D01*
X89273711Y-70489147D01*
X89269164Y-70493086D01*
X89268986Y-70493325D01*
X89268498Y-70493663D01*
X89158238Y-70589202D01*
X89122175Y-70645318D01*
X89068519Y-70691811D01*
X88998245Y-70701914D01*
X88933664Y-70672421D01*
X88927082Y-70666292D01*
X88416922Y-70156132D01*
X88416921Y-70156132D01*
X88375482Y-70219560D01*
X88321478Y-70265648D01*
X88251130Y-70275223D01*
X88186773Y-70245245D01*
X88164516Y-70219560D01*
X88123076Y-70156132D01*
X87612916Y-70666292D01*
X87550604Y-70700317D01*
X87479788Y-70695252D01*
X87422953Y-70652705D01*
X87417836Y-70645336D01*
X87381761Y-70589202D01*
X87273100Y-70495048D01*
X87273098Y-70495047D01*
X87266289Y-70489147D01*
X87268312Y-70486811D01*
X87231912Y-70444809D01*
X87221802Y-70374536D01*
X87251290Y-70309952D01*
X87257426Y-70303361D01*
X87765689Y-69795099D01*
X87745306Y-69779235D01*
X87745299Y-69779230D01*
X87711265Y-69760812D01*
X87660876Y-69710798D01*
X87645524Y-69641481D01*
X87670086Y-69574869D01*
X87711269Y-69539184D01*
X87745299Y-69520768D01*
X87745302Y-69520766D01*
X87765688Y-69504898D01*
X87257427Y-68996638D01*
X87223402Y-68934325D01*
X87228466Y-68863510D01*
X87267145Y-68811840D01*
X87266289Y-68810853D01*
X87270830Y-68806917D01*
X87271013Y-68806674D01*
X87271510Y-68806328D01*
X87273095Y-68804953D01*
X87273100Y-68804952D01*
X87381761Y-68710798D01*
X87417824Y-68654681D01*
X87471478Y-68608189D01*
X87541752Y-68598084D01*
X87606333Y-68627576D01*
G37*
G04 #@! TD.AperFunction*
G04 #@! TA.AperFunction,Conductor*
G36*
X104606333Y-68627576D02*
G01*
X104612918Y-68633707D01*
X105123076Y-69143866D01*
X105164516Y-69080440D01*
X105218520Y-69034352D01*
X105288868Y-69024777D01*
X105353225Y-69054755D01*
X105375481Y-69080439D01*
X105416921Y-69143866D01*
X105416922Y-69143866D01*
X105927081Y-68633706D01*
X105989394Y-68599681D01*
X106060209Y-68604745D01*
X106117045Y-68647292D01*
X106122162Y-68654661D01*
X106158239Y-68710798D01*
X106266900Y-68804952D01*
X106266901Y-68804952D01*
X106273711Y-68810853D01*
X106271686Y-68813189D01*
X106308084Y-68855187D01*
X106318195Y-68925460D01*
X106288709Y-68990043D01*
X106282572Y-68996636D01*
X105774310Y-69504898D01*
X105794694Y-69520763D01*
X105794696Y-69520765D01*
X105828733Y-69539185D01*
X105879123Y-69589199D01*
X105894475Y-69658516D01*
X105869914Y-69725129D01*
X105828735Y-69760811D01*
X105794702Y-69779229D01*
X105774310Y-69795099D01*
X105774310Y-69795100D01*
X106282572Y-70303361D01*
X106316597Y-70365674D01*
X106311533Y-70436489D01*
X106272854Y-70488157D01*
X106273711Y-70489147D01*
X106269164Y-70493086D01*
X106268986Y-70493325D01*
X106268498Y-70493663D01*
X106158238Y-70589202D01*
X106122175Y-70645318D01*
X106068519Y-70691811D01*
X105998245Y-70701914D01*
X105933664Y-70672421D01*
X105927082Y-70666292D01*
X105416922Y-70156132D01*
X105416921Y-70156132D01*
X105375482Y-70219560D01*
X105321478Y-70265648D01*
X105251130Y-70275223D01*
X105186773Y-70245245D01*
X105164516Y-70219560D01*
X105123076Y-70156132D01*
X104612916Y-70666292D01*
X104550604Y-70700317D01*
X104479788Y-70695252D01*
X104422953Y-70652705D01*
X104417836Y-70645336D01*
X104381761Y-70589202D01*
X104273100Y-70495048D01*
X104273098Y-70495047D01*
X104266289Y-70489147D01*
X104268312Y-70486811D01*
X104231912Y-70444809D01*
X104221802Y-70374536D01*
X104251290Y-70309952D01*
X104257426Y-70303361D01*
X104765688Y-69795099D01*
X104745306Y-69779235D01*
X104745299Y-69779230D01*
X104711265Y-69760812D01*
X104660876Y-69710798D01*
X104645524Y-69641481D01*
X104670086Y-69574869D01*
X104711269Y-69539184D01*
X104745299Y-69520768D01*
X104745302Y-69520766D01*
X104765688Y-69504898D01*
X104257427Y-68996638D01*
X104223402Y-68934325D01*
X104228466Y-68863510D01*
X104267145Y-68811840D01*
X104266289Y-68810853D01*
X104270830Y-68806917D01*
X104271013Y-68806674D01*
X104271510Y-68806328D01*
X104273095Y-68804953D01*
X104273100Y-68804952D01*
X104381761Y-68710798D01*
X104417824Y-68654681D01*
X104471478Y-68608189D01*
X104541752Y-68598084D01*
X104606333Y-68627576D01*
G37*
G04 #@! TD.AperFunction*
G04 #@! TA.AperFunction,Conductor*
G36*
X121606333Y-68627576D02*
G01*
X121612918Y-68633707D01*
X122123076Y-69143866D01*
X122164516Y-69080440D01*
X122218520Y-69034352D01*
X122288868Y-69024777D01*
X122353225Y-69054755D01*
X122375481Y-69080439D01*
X122416921Y-69143866D01*
X122416922Y-69143866D01*
X122927081Y-68633706D01*
X122989394Y-68599681D01*
X123060209Y-68604745D01*
X123117045Y-68647292D01*
X123122162Y-68654661D01*
X123158239Y-68710798D01*
X123266900Y-68804952D01*
X123266901Y-68804952D01*
X123273711Y-68810853D01*
X123271686Y-68813189D01*
X123308084Y-68855187D01*
X123318195Y-68925460D01*
X123288709Y-68990043D01*
X123282572Y-68996636D01*
X122774310Y-69504898D01*
X122794694Y-69520763D01*
X122794696Y-69520765D01*
X122828733Y-69539185D01*
X122879123Y-69589199D01*
X122894475Y-69658516D01*
X122869914Y-69725129D01*
X122828735Y-69760811D01*
X122794702Y-69779229D01*
X122774310Y-69795099D01*
X122774310Y-69795100D01*
X123282572Y-70303361D01*
X123316597Y-70365674D01*
X123311533Y-70436489D01*
X123272854Y-70488157D01*
X123273711Y-70489147D01*
X123269164Y-70493086D01*
X123268986Y-70493325D01*
X123268498Y-70493663D01*
X123158238Y-70589202D01*
X123122175Y-70645318D01*
X123068519Y-70691811D01*
X122998245Y-70701914D01*
X122933664Y-70672421D01*
X122927082Y-70666292D01*
X122416922Y-70156132D01*
X122416921Y-70156132D01*
X122375482Y-70219560D01*
X122321478Y-70265648D01*
X122251130Y-70275223D01*
X122186773Y-70245245D01*
X122164516Y-70219560D01*
X122123076Y-70156132D01*
X121612916Y-70666292D01*
X121550604Y-70700317D01*
X121479788Y-70695252D01*
X121422953Y-70652705D01*
X121417836Y-70645336D01*
X121381761Y-70589202D01*
X121273100Y-70495048D01*
X121273098Y-70495047D01*
X121266289Y-70489147D01*
X121268312Y-70486811D01*
X121231912Y-70444809D01*
X121221802Y-70374536D01*
X121251290Y-70309952D01*
X121257426Y-70303361D01*
X121765688Y-69795099D01*
X121745306Y-69779235D01*
X121745299Y-69779230D01*
X121711265Y-69760812D01*
X121660876Y-69710798D01*
X121645524Y-69641481D01*
X121670086Y-69574869D01*
X121711269Y-69539184D01*
X121745299Y-69520768D01*
X121745302Y-69520766D01*
X121765688Y-69504898D01*
X121257427Y-68996638D01*
X121223402Y-68934325D01*
X121228466Y-68863510D01*
X121267145Y-68811840D01*
X121266289Y-68810853D01*
X121270830Y-68806917D01*
X121271013Y-68806674D01*
X121271510Y-68806328D01*
X121273095Y-68804953D01*
X121273100Y-68804952D01*
X121381761Y-68710798D01*
X121417824Y-68654681D01*
X121471478Y-68608189D01*
X121541752Y-68598084D01*
X121606333Y-68627576D01*
G37*
G04 #@! TD.AperFunction*
G04 #@! TA.AperFunction,Conductor*
G36*
X159066333Y-68627576D02*
G01*
X159072918Y-68633707D01*
X159583076Y-69143866D01*
X159624516Y-69080440D01*
X159678520Y-69034352D01*
X159748868Y-69024777D01*
X159813225Y-69054755D01*
X159835481Y-69080439D01*
X159876921Y-69143866D01*
X159876922Y-69143866D01*
X160387081Y-68633706D01*
X160449394Y-68599681D01*
X160520209Y-68604745D01*
X160577045Y-68647292D01*
X160582162Y-68654661D01*
X160618239Y-68710798D01*
X160726900Y-68804952D01*
X160726901Y-68804952D01*
X160733711Y-68810853D01*
X160731686Y-68813189D01*
X160768084Y-68855187D01*
X160778195Y-68925460D01*
X160748709Y-68990043D01*
X160742572Y-68996636D01*
X160234310Y-69504898D01*
X160254694Y-69520763D01*
X160254696Y-69520765D01*
X160288733Y-69539185D01*
X160339123Y-69589199D01*
X160354475Y-69658516D01*
X160329914Y-69725129D01*
X160288735Y-69760811D01*
X160254702Y-69779229D01*
X160234310Y-69795099D01*
X160234310Y-69795100D01*
X160742572Y-70303361D01*
X160776597Y-70365674D01*
X160771533Y-70436489D01*
X160732854Y-70488157D01*
X160733711Y-70489147D01*
X160729164Y-70493086D01*
X160728986Y-70493325D01*
X160728498Y-70493663D01*
X160618238Y-70589202D01*
X160582175Y-70645318D01*
X160528519Y-70691811D01*
X160458245Y-70701914D01*
X160393664Y-70672421D01*
X160387082Y-70666292D01*
X159876922Y-70156132D01*
X159876921Y-70156132D01*
X159835482Y-70219560D01*
X159781478Y-70265648D01*
X159711130Y-70275223D01*
X159646773Y-70245245D01*
X159624516Y-70219560D01*
X159583076Y-70156132D01*
X159072916Y-70666292D01*
X159010604Y-70700317D01*
X158939788Y-70695252D01*
X158882953Y-70652705D01*
X158877836Y-70645336D01*
X158841761Y-70589202D01*
X158733100Y-70495048D01*
X158733098Y-70495047D01*
X158726289Y-70489147D01*
X158728312Y-70486811D01*
X158691912Y-70444809D01*
X158681802Y-70374536D01*
X158711290Y-70309952D01*
X158717426Y-70303361D01*
X159225688Y-69795099D01*
X159205306Y-69779235D01*
X159205299Y-69779230D01*
X159171265Y-69760812D01*
X159120876Y-69710798D01*
X159105524Y-69641481D01*
X159130086Y-69574869D01*
X159171269Y-69539184D01*
X159205299Y-69520768D01*
X159205302Y-69520766D01*
X159225688Y-69504898D01*
X158717427Y-68996638D01*
X158683402Y-68934325D01*
X158688466Y-68863510D01*
X158727145Y-68811840D01*
X158726289Y-68810853D01*
X158730830Y-68806917D01*
X158731013Y-68806674D01*
X158731510Y-68806328D01*
X158733095Y-68804953D01*
X158733100Y-68804952D01*
X158841761Y-68710798D01*
X158877824Y-68654681D01*
X158931478Y-68608189D01*
X159001752Y-68598084D01*
X159066333Y-68627576D01*
G37*
G04 #@! TD.AperFunction*
G04 #@! TA.AperFunction,Conductor*
G36*
X176066333Y-68627576D02*
G01*
X176072918Y-68633707D01*
X176583076Y-69143866D01*
X176624516Y-69080440D01*
X176678520Y-69034352D01*
X176748868Y-69024777D01*
X176813225Y-69054755D01*
X176835481Y-69080439D01*
X176876921Y-69143866D01*
X176876922Y-69143866D01*
X177387081Y-68633706D01*
X177449394Y-68599681D01*
X177520209Y-68604745D01*
X177577045Y-68647292D01*
X177582162Y-68654661D01*
X177618239Y-68710798D01*
X177726900Y-68804952D01*
X177726901Y-68804952D01*
X177733711Y-68810853D01*
X177731686Y-68813189D01*
X177768084Y-68855187D01*
X177778195Y-68925460D01*
X177748709Y-68990043D01*
X177742572Y-68996636D01*
X177234310Y-69504898D01*
X177254694Y-69520763D01*
X177254696Y-69520765D01*
X177288733Y-69539185D01*
X177339123Y-69589199D01*
X177354475Y-69658516D01*
X177329914Y-69725129D01*
X177288735Y-69760811D01*
X177254702Y-69779229D01*
X177234310Y-69795099D01*
X177234310Y-69795100D01*
X177742572Y-70303361D01*
X177776597Y-70365674D01*
X177771533Y-70436489D01*
X177732854Y-70488157D01*
X177733711Y-70489147D01*
X177729164Y-70493086D01*
X177728986Y-70493325D01*
X177728498Y-70493663D01*
X177618238Y-70589202D01*
X177582175Y-70645318D01*
X177528519Y-70691811D01*
X177458245Y-70701914D01*
X177393664Y-70672421D01*
X177387082Y-70666292D01*
X176876922Y-70156132D01*
X176876921Y-70156132D01*
X176835482Y-70219560D01*
X176781478Y-70265648D01*
X176711130Y-70275223D01*
X176646773Y-70245245D01*
X176624516Y-70219560D01*
X176583076Y-70156132D01*
X176072916Y-70666292D01*
X176010604Y-70700317D01*
X175939788Y-70695252D01*
X175882953Y-70652705D01*
X175877836Y-70645336D01*
X175841761Y-70589202D01*
X175733100Y-70495048D01*
X175733098Y-70495047D01*
X175726289Y-70489147D01*
X175728312Y-70486811D01*
X175691912Y-70444809D01*
X175681802Y-70374536D01*
X175711290Y-70309952D01*
X175717426Y-70303361D01*
X176225689Y-69795099D01*
X176205306Y-69779235D01*
X176205299Y-69779230D01*
X176171265Y-69760812D01*
X176120876Y-69710798D01*
X176105524Y-69641481D01*
X176130086Y-69574869D01*
X176171269Y-69539184D01*
X176205299Y-69520768D01*
X176205302Y-69520766D01*
X176225688Y-69504898D01*
X175717427Y-68996638D01*
X175683402Y-68934325D01*
X175688466Y-68863510D01*
X175727145Y-68811840D01*
X175726289Y-68810853D01*
X175730830Y-68806917D01*
X175731013Y-68806674D01*
X175731510Y-68806328D01*
X175733095Y-68804953D01*
X175733100Y-68804952D01*
X175841761Y-68710798D01*
X175877824Y-68654681D01*
X175931478Y-68608189D01*
X176001752Y-68598084D01*
X176066333Y-68627576D01*
G37*
G04 #@! TD.AperFunction*
G04 #@! TA.AperFunction,Conductor*
G36*
X193066333Y-68627576D02*
G01*
X193072918Y-68633707D01*
X193583076Y-69143866D01*
X193624516Y-69080440D01*
X193678520Y-69034352D01*
X193748868Y-69024777D01*
X193813225Y-69054755D01*
X193835481Y-69080439D01*
X193876921Y-69143866D01*
X193876922Y-69143866D01*
X194387081Y-68633706D01*
X194449394Y-68599681D01*
X194520209Y-68604745D01*
X194577045Y-68647292D01*
X194582162Y-68654661D01*
X194618239Y-68710798D01*
X194726900Y-68804952D01*
X194726901Y-68804952D01*
X194733711Y-68810853D01*
X194731686Y-68813189D01*
X194768084Y-68855187D01*
X194778195Y-68925460D01*
X194748709Y-68990043D01*
X194742572Y-68996636D01*
X194234310Y-69504898D01*
X194254694Y-69520763D01*
X194254696Y-69520765D01*
X194288733Y-69539185D01*
X194339123Y-69589199D01*
X194354475Y-69658516D01*
X194329914Y-69725129D01*
X194288735Y-69760811D01*
X194254702Y-69779229D01*
X194234310Y-69795099D01*
X194234310Y-69795100D01*
X194742572Y-70303361D01*
X194776597Y-70365674D01*
X194771533Y-70436489D01*
X194732854Y-70488157D01*
X194733711Y-70489147D01*
X194729164Y-70493086D01*
X194728986Y-70493325D01*
X194728498Y-70493663D01*
X194618238Y-70589202D01*
X194582175Y-70645318D01*
X194528519Y-70691811D01*
X194458245Y-70701914D01*
X194393664Y-70672421D01*
X194387082Y-70666292D01*
X193876922Y-70156132D01*
X193876921Y-70156132D01*
X193835482Y-70219560D01*
X193781478Y-70265648D01*
X193711130Y-70275223D01*
X193646773Y-70245245D01*
X193624516Y-70219560D01*
X193583076Y-70156132D01*
X193072916Y-70666292D01*
X193010604Y-70700317D01*
X192939788Y-70695252D01*
X192882953Y-70652705D01*
X192877836Y-70645336D01*
X192841761Y-70589202D01*
X192733100Y-70495048D01*
X192733098Y-70495047D01*
X192726289Y-70489147D01*
X192728312Y-70486811D01*
X192691912Y-70444809D01*
X192681802Y-70374536D01*
X192711290Y-70309952D01*
X192717426Y-70303361D01*
X193225689Y-69795099D01*
X193205306Y-69779235D01*
X193205299Y-69779230D01*
X193171265Y-69760812D01*
X193120876Y-69710798D01*
X193105524Y-69641481D01*
X193130086Y-69574869D01*
X193171269Y-69539184D01*
X193205299Y-69520768D01*
X193205302Y-69520766D01*
X193225688Y-69504898D01*
X192717427Y-68996638D01*
X192683402Y-68934325D01*
X192688466Y-68863510D01*
X192727145Y-68811840D01*
X192726289Y-68810853D01*
X192730830Y-68806917D01*
X192731013Y-68806674D01*
X192731510Y-68806328D01*
X192733095Y-68804953D01*
X192733100Y-68804952D01*
X192841761Y-68710798D01*
X192877824Y-68654681D01*
X192931478Y-68608189D01*
X193001752Y-68598084D01*
X193066333Y-68627576D01*
G37*
G04 #@! TD.AperFunction*
G04 #@! TA.AperFunction,Conductor*
G36*
X210066333Y-68627576D02*
G01*
X210072918Y-68633707D01*
X210583076Y-69143866D01*
X210624516Y-69080440D01*
X210678520Y-69034352D01*
X210748868Y-69024777D01*
X210813225Y-69054755D01*
X210835481Y-69080439D01*
X210876921Y-69143866D01*
X210876922Y-69143866D01*
X211387081Y-68633706D01*
X211449394Y-68599681D01*
X211520209Y-68604745D01*
X211577045Y-68647292D01*
X211582162Y-68654661D01*
X211618239Y-68710798D01*
X211726900Y-68804952D01*
X211726901Y-68804952D01*
X211733711Y-68810853D01*
X211731686Y-68813189D01*
X211768084Y-68855187D01*
X211778195Y-68925460D01*
X211748709Y-68990043D01*
X211742572Y-68996636D01*
X211234310Y-69504898D01*
X211254694Y-69520763D01*
X211254696Y-69520765D01*
X211288733Y-69539185D01*
X211339123Y-69589199D01*
X211354475Y-69658516D01*
X211329914Y-69725129D01*
X211288735Y-69760811D01*
X211254702Y-69779229D01*
X211234310Y-69795099D01*
X211234310Y-69795100D01*
X211742572Y-70303361D01*
X211776597Y-70365674D01*
X211771533Y-70436489D01*
X211732854Y-70488157D01*
X211733711Y-70489147D01*
X211729164Y-70493086D01*
X211728986Y-70493325D01*
X211728498Y-70493663D01*
X211618238Y-70589202D01*
X211582175Y-70645318D01*
X211528519Y-70691811D01*
X211458245Y-70701914D01*
X211393664Y-70672421D01*
X211387082Y-70666292D01*
X210876922Y-70156132D01*
X210876921Y-70156132D01*
X210835482Y-70219560D01*
X210781478Y-70265648D01*
X210711130Y-70275223D01*
X210646773Y-70245245D01*
X210624516Y-70219560D01*
X210583076Y-70156132D01*
X210072916Y-70666292D01*
X210010604Y-70700317D01*
X209939788Y-70695252D01*
X209882953Y-70652705D01*
X209877836Y-70645336D01*
X209841761Y-70589202D01*
X209733100Y-70495048D01*
X209733098Y-70495047D01*
X209726289Y-70489147D01*
X209728312Y-70486811D01*
X209691912Y-70444809D01*
X209681802Y-70374536D01*
X209711290Y-70309952D01*
X209717426Y-70303361D01*
X210225689Y-69795099D01*
X210205306Y-69779235D01*
X210205299Y-69779230D01*
X210171265Y-69760812D01*
X210120876Y-69710798D01*
X210105524Y-69641481D01*
X210130086Y-69574869D01*
X210171269Y-69539184D01*
X210205299Y-69520768D01*
X210205302Y-69520766D01*
X210225688Y-69504898D01*
X209717427Y-68996638D01*
X209683402Y-68934325D01*
X209688466Y-68863510D01*
X209727145Y-68811840D01*
X209726289Y-68810853D01*
X209730830Y-68806917D01*
X209731013Y-68806674D01*
X209731510Y-68806328D01*
X209733095Y-68804953D01*
X209733100Y-68804952D01*
X209841761Y-68710798D01*
X209877824Y-68654681D01*
X209931478Y-68608189D01*
X210001752Y-68598084D01*
X210066333Y-68627576D01*
G37*
G04 #@! TD.AperFunction*
G04 #@! TA.AperFunction,Conductor*
G36*
X227066333Y-68627576D02*
G01*
X227072918Y-68633707D01*
X227583076Y-69143866D01*
X227624516Y-69080440D01*
X227678520Y-69034352D01*
X227748868Y-69024777D01*
X227813225Y-69054755D01*
X227835481Y-69080439D01*
X227876921Y-69143866D01*
X227876922Y-69143866D01*
X228387081Y-68633706D01*
X228449394Y-68599681D01*
X228520209Y-68604745D01*
X228577045Y-68647292D01*
X228582162Y-68654661D01*
X228618239Y-68710798D01*
X228726900Y-68804952D01*
X228726901Y-68804952D01*
X228733711Y-68810853D01*
X228731686Y-68813189D01*
X228768084Y-68855187D01*
X228778195Y-68925460D01*
X228748709Y-68990043D01*
X228742572Y-68996636D01*
X228234310Y-69504898D01*
X228254694Y-69520763D01*
X228254696Y-69520765D01*
X228288733Y-69539185D01*
X228339123Y-69589199D01*
X228354475Y-69658516D01*
X228329914Y-69725129D01*
X228288735Y-69760811D01*
X228254702Y-69779229D01*
X228234310Y-69795099D01*
X228234310Y-69795100D01*
X228742572Y-70303361D01*
X228776597Y-70365674D01*
X228771533Y-70436489D01*
X228732854Y-70488157D01*
X228733711Y-70489147D01*
X228729164Y-70493086D01*
X228728986Y-70493325D01*
X228728498Y-70493663D01*
X228618238Y-70589202D01*
X228582175Y-70645318D01*
X228528519Y-70691811D01*
X228458245Y-70701914D01*
X228393664Y-70672421D01*
X228387082Y-70666292D01*
X227876922Y-70156132D01*
X227876921Y-70156132D01*
X227835482Y-70219560D01*
X227781478Y-70265648D01*
X227711130Y-70275223D01*
X227646773Y-70245245D01*
X227624516Y-70219560D01*
X227583076Y-70156132D01*
X227072916Y-70666292D01*
X227010604Y-70700317D01*
X226939788Y-70695252D01*
X226882953Y-70652705D01*
X226877836Y-70645336D01*
X226841761Y-70589202D01*
X226733100Y-70495048D01*
X226733098Y-70495047D01*
X226726289Y-70489147D01*
X226728312Y-70486811D01*
X226691912Y-70444809D01*
X226681802Y-70374536D01*
X226711290Y-70309952D01*
X226717426Y-70303361D01*
X227225689Y-69795099D01*
X227205306Y-69779235D01*
X227205299Y-69779230D01*
X227171265Y-69760812D01*
X227120876Y-69710798D01*
X227105524Y-69641481D01*
X227130086Y-69574869D01*
X227171269Y-69539184D01*
X227205299Y-69520768D01*
X227205302Y-69520766D01*
X227225688Y-69504898D01*
X226717427Y-68996638D01*
X226683402Y-68934325D01*
X226688466Y-68863510D01*
X226727145Y-68811840D01*
X226726289Y-68810853D01*
X226730830Y-68806917D01*
X226731013Y-68806674D01*
X226731510Y-68806328D01*
X226733095Y-68804953D01*
X226733100Y-68804952D01*
X226841761Y-68710798D01*
X226877824Y-68654681D01*
X226931478Y-68608189D01*
X227001752Y-68598084D01*
X227066333Y-68627576D01*
G37*
G04 #@! TD.AperFunction*
G04 #@! TA.AperFunction,Conductor*
G36*
X244066333Y-68627576D02*
G01*
X244072918Y-68633707D01*
X244583076Y-69143866D01*
X244624516Y-69080440D01*
X244678520Y-69034352D01*
X244748868Y-69024777D01*
X244813225Y-69054755D01*
X244835481Y-69080439D01*
X244876921Y-69143866D01*
X244876922Y-69143866D01*
X245387081Y-68633706D01*
X245449394Y-68599681D01*
X245520209Y-68604745D01*
X245577045Y-68647292D01*
X245582162Y-68654661D01*
X245618239Y-68710798D01*
X245726900Y-68804952D01*
X245726901Y-68804952D01*
X245733711Y-68810853D01*
X245731686Y-68813189D01*
X245768084Y-68855187D01*
X245778195Y-68925460D01*
X245748709Y-68990043D01*
X245742572Y-68996636D01*
X245234310Y-69504898D01*
X245254694Y-69520763D01*
X245254696Y-69520765D01*
X245288733Y-69539185D01*
X245339123Y-69589199D01*
X245354475Y-69658516D01*
X245329914Y-69725129D01*
X245288735Y-69760811D01*
X245254702Y-69779229D01*
X245234310Y-69795099D01*
X245234310Y-69795100D01*
X245742572Y-70303361D01*
X245776597Y-70365674D01*
X245771533Y-70436489D01*
X245732854Y-70488157D01*
X245733711Y-70489147D01*
X245729164Y-70493086D01*
X245728986Y-70493325D01*
X245728498Y-70493663D01*
X245618238Y-70589202D01*
X245582175Y-70645318D01*
X245528519Y-70691811D01*
X245458245Y-70701914D01*
X245393664Y-70672421D01*
X245387082Y-70666292D01*
X244876922Y-70156132D01*
X244876921Y-70156132D01*
X244835482Y-70219560D01*
X244781478Y-70265648D01*
X244711130Y-70275223D01*
X244646773Y-70245245D01*
X244624516Y-70219560D01*
X244583076Y-70156132D01*
X244072916Y-70666292D01*
X244010604Y-70700317D01*
X243939788Y-70695252D01*
X243882953Y-70652705D01*
X243877836Y-70645336D01*
X243841761Y-70589202D01*
X243733100Y-70495048D01*
X243733098Y-70495047D01*
X243726289Y-70489147D01*
X243728312Y-70486811D01*
X243691912Y-70444809D01*
X243681802Y-70374536D01*
X243711290Y-70309952D01*
X243717426Y-70303361D01*
X244225688Y-69795099D01*
X244205306Y-69779235D01*
X244205299Y-69779230D01*
X244171265Y-69760812D01*
X244120876Y-69710798D01*
X244105524Y-69641481D01*
X244130086Y-69574869D01*
X244171269Y-69539184D01*
X244205299Y-69520768D01*
X244205302Y-69520766D01*
X244225688Y-69504898D01*
X243717427Y-68996638D01*
X243683402Y-68934325D01*
X243688466Y-68863510D01*
X243727145Y-68811840D01*
X243726289Y-68810853D01*
X243730830Y-68806917D01*
X243731013Y-68806674D01*
X243731510Y-68806328D01*
X243733095Y-68804953D01*
X243733100Y-68804952D01*
X243841761Y-68710798D01*
X243877824Y-68654681D01*
X243931478Y-68608189D01*
X244001752Y-68598084D01*
X244066333Y-68627576D01*
G37*
G04 #@! TD.AperFunction*
G04 #@! TA.AperFunction,Conductor*
G36*
X250866621Y-52095502D02*
G01*
X250913114Y-52149158D01*
X250924500Y-52201500D01*
X250924500Y-89798500D01*
X250904498Y-89866621D01*
X250850842Y-89913114D01*
X250798500Y-89924500D01*
X31201500Y-89924500D01*
X31133379Y-89904498D01*
X31086886Y-89850842D01*
X31075500Y-89798500D01*
X31075500Y-76060944D01*
X34487819Y-76060944D01*
X34517177Y-76302721D01*
X34517177Y-76302722D01*
X34584936Y-76536655D01*
X34584940Y-76536666D01*
X34689348Y-76756701D01*
X34689349Y-76756703D01*
X34689350Y-76756704D01*
X34827707Y-76957148D01*
X34996425Y-77132802D01*
X35191135Y-77279117D01*
X35406795Y-77392304D01*
X35637818Y-77469431D01*
X35878221Y-77508500D01*
X123418221Y-77508500D01*
X129984790Y-77508500D01*
X130091361Y-77510647D01*
X130091365Y-77510646D01*
X130091377Y-77510647D01*
X130135252Y-77504420D01*
X130164921Y-77500210D01*
X130168704Y-77499789D01*
X130242760Y-77493811D01*
X130242762Y-77493810D01*
X130242768Y-77493810D01*
X130284142Y-77483611D01*
X130290331Y-77482412D01*
X130332518Y-77476426D01*
X130403460Y-77454318D01*
X130407064Y-77453313D01*
X130479248Y-77435523D01*
X130518447Y-77418820D01*
X130524373Y-77416640D01*
X130565048Y-77403967D01*
X130631519Y-77370769D01*
X130634961Y-77369179D01*
X130636433Y-77368551D01*
X130703316Y-77340056D01*
X130739340Y-77317274D01*
X130744822Y-77314182D01*
X130782943Y-77295146D01*
X130843258Y-77251693D01*
X130846357Y-77249600D01*
X130909168Y-77209883D01*
X130941062Y-77181626D01*
X130945994Y-77177682D01*
X130980560Y-77152781D01*
X131033103Y-77100236D01*
X131035832Y-77097667D01*
X131091474Y-77048375D01*
X131118429Y-77015359D01*
X131122666Y-77010673D01*
X133696407Y-74436933D01*
X133758717Y-74402909D01*
X133829533Y-74407974D01*
X133886368Y-74450521D01*
X133911179Y-74517041D01*
X133911500Y-74526030D01*
X133911500Y-84622892D01*
X133891498Y-84691013D01*
X133877587Y-84708892D01*
X133858346Y-84729493D01*
X133858340Y-84729502D01*
X133699888Y-84953976D01*
X133612065Y-85123468D01*
X133562966Y-85174749D01*
X133500192Y-85191500D01*
X130425481Y-85191500D01*
X130357360Y-85171498D01*
X130310867Y-85117842D01*
X130302859Y-85094478D01*
X130301989Y-85090799D01*
X130265811Y-84993804D01*
X130250889Y-84953796D01*
X130250888Y-84953794D01*
X130250887Y-84953792D01*
X130163261Y-84836738D01*
X130046207Y-84749112D01*
X130046202Y-84749110D01*
X129909204Y-84698011D01*
X129909196Y-84698009D01*
X129848649Y-84691500D01*
X129848638Y-84691500D01*
X128151362Y-84691500D01*
X128151350Y-84691500D01*
X128090803Y-84698009D01*
X128090795Y-84698011D01*
X127953797Y-84749110D01*
X127953792Y-84749112D01*
X127836742Y-84836736D01*
X127836735Y-84836743D01*
X127835041Y-84839006D01*
X127832782Y-84840696D01*
X127830371Y-84843108D01*
X127830024Y-84842761D01*
X127778202Y-84881548D01*
X127707386Y-84886606D01*
X127661907Y-84866699D01*
X127656500Y-84862913D01*
X127449073Y-84766188D01*
X127449068Y-84766186D01*
X127228000Y-84706951D01*
X127228004Y-84706951D01*
X127000000Y-84687004D01*
X126771997Y-84706951D01*
X126550931Y-84766186D01*
X126550926Y-84766188D01*
X126343500Y-84862913D01*
X126272109Y-84912899D01*
X126817934Y-85458723D01*
X126851959Y-85521036D01*
X126846895Y-85591851D01*
X126804348Y-85648687D01*
X126786043Y-85660085D01*
X126761956Y-85672358D01*
X126761951Y-85672361D01*
X126672361Y-85761951D01*
X126672358Y-85761956D01*
X126660085Y-85786043D01*
X126611337Y-85837658D01*
X126542422Y-85854723D01*
X126475220Y-85831822D01*
X126458723Y-85817934D01*
X125912899Y-85272109D01*
X125862913Y-85343500D01*
X125766188Y-85550926D01*
X125766186Y-85550931D01*
X125706951Y-85771997D01*
X125687004Y-86000000D01*
X125706951Y-86228002D01*
X125766186Y-86449068D01*
X125766188Y-86449073D01*
X125862913Y-86656501D01*
X125912899Y-86727888D01*
X126458722Y-86182065D01*
X126521035Y-86148040D01*
X126591850Y-86153104D01*
X126648686Y-86195651D01*
X126660084Y-86213955D01*
X126672359Y-86238045D01*
X126672361Y-86238048D01*
X126761951Y-86327638D01*
X126761953Y-86327639D01*
X126761955Y-86327641D01*
X126786042Y-86339913D01*
X126837656Y-86388661D01*
X126854722Y-86457576D01*
X126831821Y-86524778D01*
X126817933Y-86541275D01*
X126272110Y-87087097D01*
X126272110Y-87087100D01*
X126343498Y-87137086D01*
X126550926Y-87233811D01*
X126550931Y-87233813D01*
X126771999Y-87293048D01*
X126771995Y-87293048D01*
X127000000Y-87312995D01*
X127228002Y-87293048D01*
X127449068Y-87233813D01*
X127449073Y-87233811D01*
X127656495Y-87137089D01*
X127661902Y-87133303D01*
X127729174Y-87110610D01*
X127798036Y-87127891D01*
X127835050Y-87161005D01*
X127836738Y-87163261D01*
X127953792Y-87250887D01*
X127953794Y-87250888D01*
X127953796Y-87250889D01*
X128006377Y-87270501D01*
X128090795Y-87301988D01*
X128090803Y-87301990D01*
X128151350Y-87308499D01*
X128151355Y-87308499D01*
X128151362Y-87308500D01*
X128151368Y-87308500D01*
X129848632Y-87308500D01*
X129848638Y-87308500D01*
X129848645Y-87308499D01*
X129848649Y-87308499D01*
X129909196Y-87301990D01*
X129909199Y-87301989D01*
X129909201Y-87301989D01*
X130046204Y-87250889D01*
X130046799Y-87250444D01*
X130163261Y-87163261D01*
X130250887Y-87046207D01*
X130250887Y-87046206D01*
X130250889Y-87046204D01*
X130301989Y-86909201D01*
X130301989Y-86909199D01*
X130302859Y-86905522D01*
X130304316Y-86902963D01*
X130304744Y-86901816D01*
X130304929Y-86901885D01*
X130337991Y-86843827D01*
X130400901Y-86810921D01*
X130425481Y-86808500D01*
X133500192Y-86808500D01*
X133568313Y-86828502D01*
X133612065Y-86876532D01*
X133699888Y-87046023D01*
X133782392Y-87162904D01*
X133858343Y-87270502D01*
X134045889Y-87471314D01*
X134259031Y-87644718D01*
X134493800Y-87787484D01*
X134745823Y-87896953D01*
X135010404Y-87971085D01*
X135105504Y-87984156D01*
X135282604Y-88008499D01*
X135282615Y-88008500D01*
X135557385Y-88008500D01*
X135557395Y-88008499D01*
X135686945Y-87990692D01*
X135829596Y-87971085D01*
X136094177Y-87896953D01*
X136346200Y-87787484D01*
X136580969Y-87644718D01*
X136794111Y-87471314D01*
X136981657Y-87270502D01*
X137140111Y-87046023D01*
X137266523Y-86802058D01*
X137358538Y-86543153D01*
X137414442Y-86274130D01*
X137417187Y-86233998D01*
X137433193Y-86000004D01*
X138487308Y-86000004D01*
X138506052Y-86274048D01*
X138506053Y-86274054D01*
X138561942Y-86543011D01*
X138561944Y-86543019D01*
X138653938Y-86801865D01*
X138780314Y-87045756D01*
X138780316Y-87045759D01*
X138910540Y-87230247D01*
X139700469Y-86440318D01*
X139762782Y-86406293D01*
X139833597Y-86411357D01*
X139890433Y-86453904D01*
X139890632Y-86454171D01*
X139943430Y-86525091D01*
X139943432Y-86525092D01*
X139943433Y-86525094D01*
X139964955Y-86543153D01*
X140050529Y-86614960D01*
X140089855Y-86674070D01*
X140090981Y-86745058D01*
X140058632Y-86800576D01*
X139270715Y-87588492D01*
X139270715Y-87588494D01*
X139339313Y-87644304D01*
X139339318Y-87644307D01*
X139574030Y-87787038D01*
X139825989Y-87896480D01*
X140090509Y-87970595D01*
X140362635Y-88007999D01*
X140362649Y-88008000D01*
X140637351Y-88008000D01*
X140637364Y-88007999D01*
X140909490Y-87970595D01*
X141174010Y-87896480D01*
X141425969Y-87787038D01*
X141660679Y-87644309D01*
X141729283Y-87588493D01*
X141689439Y-87548649D01*
X143571500Y-87548649D01*
X143578009Y-87609196D01*
X143578011Y-87609204D01*
X143629110Y-87746202D01*
X143629112Y-87746207D01*
X143716738Y-87863261D01*
X143833792Y-87950887D01*
X143833794Y-87950888D01*
X143833796Y-87950889D01*
X143886629Y-87970595D01*
X143970795Y-88001988D01*
X143970803Y-88001990D01*
X144031350Y-88008499D01*
X144031355Y-88008499D01*
X144031362Y-88008500D01*
X144031368Y-88008500D01*
X147128632Y-88008500D01*
X147128638Y-88008500D01*
X147128645Y-88008499D01*
X147128649Y-88008499D01*
X147189196Y-88001990D01*
X147189199Y-88001989D01*
X147189201Y-88001989D01*
X147326204Y-87950889D01*
X147443261Y-87863261D01*
X147443260Y-87863260D01*
X147530887Y-87746207D01*
X147530887Y-87746206D01*
X147530889Y-87746204D01*
X147581989Y-87609201D01*
X147584216Y-87588494D01*
X147588499Y-87548649D01*
X147588500Y-87548632D01*
X147588500Y-86000000D01*
X150686502Y-86000000D01*
X150706457Y-86228087D01*
X150718772Y-86274048D01*
X150765715Y-86449240D01*
X150765717Y-86449246D01*
X150862477Y-86656749D01*
X150964088Y-86801865D01*
X150993802Y-86844300D01*
X151155700Y-87006198D01*
X151343251Y-87137523D01*
X151550757Y-87234284D01*
X151771913Y-87293543D01*
X152000000Y-87313498D01*
X152228087Y-87293543D01*
X152449243Y-87234284D01*
X152656749Y-87137523D01*
X152662613Y-87133416D01*
X152729881Y-87110725D01*
X152798743Y-87128003D01*
X152830680Y-87156574D01*
X152830723Y-87156532D01*
X152831486Y-87157295D01*
X152835756Y-87161115D01*
X152837094Y-87162903D01*
X152954034Y-87250444D01*
X153090906Y-87301494D01*
X153151402Y-87307999D01*
X153151415Y-87308000D01*
X153746000Y-87308000D01*
X153746000Y-86512284D01*
X153766002Y-86444163D01*
X153819658Y-86397670D01*
X153889932Y-86387566D01*
X153891713Y-86387835D01*
X153968519Y-86400000D01*
X153968521Y-86400000D01*
X154031479Y-86400000D01*
X154031481Y-86400000D01*
X154108290Y-86387835D01*
X154178701Y-86396935D01*
X154233015Y-86442657D01*
X154253987Y-86510486D01*
X154254000Y-86512284D01*
X154254000Y-87308000D01*
X154848585Y-87308000D01*
X154848597Y-87307999D01*
X154909093Y-87301494D01*
X155045964Y-87250444D01*
X155045965Y-87250444D01*
X155162904Y-87162904D01*
X155250444Y-87045965D01*
X155250444Y-87045964D01*
X155301494Y-86909093D01*
X155307999Y-86848597D01*
X155308000Y-86848585D01*
X155308000Y-86254000D01*
X154512284Y-86254000D01*
X154444163Y-86233998D01*
X154397670Y-86180342D01*
X154387566Y-86110068D01*
X154387835Y-86108290D01*
X154397939Y-86044491D01*
X154404986Y-86000000D01*
X154387834Y-85891710D01*
X154396935Y-85821299D01*
X154442657Y-85766985D01*
X154510485Y-85746013D01*
X154512284Y-85746000D01*
X155308000Y-85746000D01*
X155308000Y-85151414D01*
X155307999Y-85151402D01*
X155301494Y-85090906D01*
X155250444Y-84954035D01*
X155250444Y-84954034D01*
X155162904Y-84837095D01*
X155045965Y-84749555D01*
X154909093Y-84698505D01*
X154848597Y-84692000D01*
X154254000Y-84692000D01*
X154254000Y-85487715D01*
X154233998Y-85555836D01*
X154180342Y-85602329D01*
X154110068Y-85612433D01*
X154108292Y-85612164D01*
X154031481Y-85600000D01*
X153968519Y-85600000D01*
X153891708Y-85612164D01*
X153821297Y-85603063D01*
X153766984Y-85557340D01*
X153746013Y-85489512D01*
X153746000Y-85487715D01*
X153746000Y-84692000D01*
X153151402Y-84692000D01*
X153090906Y-84698505D01*
X152954035Y-84749555D01*
X152954034Y-84749555D01*
X152837095Y-84837095D01*
X152835751Y-84838892D01*
X152833954Y-84840236D01*
X152830724Y-84843467D01*
X152830259Y-84843002D01*
X152778912Y-84881433D01*
X152708095Y-84886492D01*
X152662622Y-84866589D01*
X152656749Y-84862477D01*
X152656748Y-84862476D01*
X152656746Y-84862475D01*
X152449246Y-84765717D01*
X152449240Y-84765715D01*
X152314091Y-84729502D01*
X152228087Y-84706457D01*
X152000000Y-84686502D01*
X151999999Y-84686502D01*
X151771913Y-84706457D01*
X151550759Y-84765715D01*
X151550753Y-84765717D01*
X151343250Y-84862477D01*
X151155703Y-84993799D01*
X151155697Y-84993804D01*
X150993804Y-85155697D01*
X150993799Y-85155703D01*
X150862477Y-85343250D01*
X150765717Y-85550753D01*
X150765715Y-85550759D01*
X150713400Y-85746000D01*
X150706457Y-85771913D01*
X150686502Y-86000000D01*
X147588500Y-86000000D01*
X147588500Y-84451367D01*
X147588499Y-84451350D01*
X147581990Y-84390803D01*
X147581988Y-84390795D01*
X147530889Y-84253797D01*
X147530887Y-84253792D01*
X147443261Y-84136738D01*
X147326207Y-84049112D01*
X147326202Y-84049110D01*
X147189204Y-83998011D01*
X147189196Y-83998009D01*
X147128649Y-83991500D01*
X147128638Y-83991500D01*
X144031362Y-83991500D01*
X144031350Y-83991500D01*
X143970803Y-83998009D01*
X143970795Y-83998011D01*
X143833797Y-84049110D01*
X143833792Y-84049112D01*
X143716738Y-84136738D01*
X143629112Y-84253792D01*
X143629110Y-84253797D01*
X143578011Y-84390795D01*
X143578009Y-84390803D01*
X143571500Y-84451350D01*
X143571500Y-87548649D01*
X141689439Y-87548649D01*
X140941418Y-86800629D01*
X140907393Y-86738316D01*
X140912457Y-86667501D01*
X140955004Y-86610665D01*
X140961250Y-86606278D01*
X140991844Y-86586157D01*
X141113764Y-86456930D01*
X141113764Y-86456929D01*
X141118800Y-86451592D01*
X141119959Y-86452685D01*
X141169761Y-86415182D01*
X141240562Y-86409914D01*
X141302971Y-86443761D01*
X142089457Y-87230247D01*
X142219682Y-87045762D01*
X142219685Y-87045756D01*
X142346061Y-86801865D01*
X142438055Y-86543019D01*
X142438057Y-86543011D01*
X142493946Y-86274054D01*
X142493947Y-86274048D01*
X142512692Y-86000004D01*
X142512692Y-85999995D01*
X142493947Y-85725951D01*
X142493946Y-85725945D01*
X142438057Y-85456988D01*
X142438055Y-85456980D01*
X142346061Y-85198134D01*
X142219685Y-84954243D01*
X142219681Y-84954237D01*
X142089457Y-84769750D01*
X141299528Y-85559680D01*
X141237216Y-85593706D01*
X141166401Y-85588641D01*
X141109565Y-85546094D01*
X141109522Y-85546036D01*
X141056567Y-85474906D01*
X140978730Y-85409592D01*
X140949468Y-85385038D01*
X140910143Y-85325927D01*
X140909017Y-85254940D01*
X140941366Y-85199421D01*
X141729283Y-84411504D01*
X141660680Y-84355691D01*
X141425969Y-84212961D01*
X141174010Y-84103519D01*
X140909490Y-84029404D01*
X140637364Y-83992000D01*
X140362635Y-83992000D01*
X140090509Y-84029404D01*
X139825989Y-84103519D01*
X139574030Y-84212961D01*
X139339325Y-84355687D01*
X139270715Y-84411505D01*
X140058581Y-85199370D01*
X140092606Y-85261683D01*
X140087542Y-85332498D01*
X140044995Y-85389334D01*
X140038726Y-85393737D01*
X140008153Y-85413845D01*
X139881200Y-85548408D01*
X139880045Y-85547318D01*
X139830200Y-85584831D01*
X139759397Y-85590075D01*
X139696999Y-85556208D01*
X138910541Y-84769750D01*
X138780317Y-84954236D01*
X138653938Y-85198134D01*
X138561944Y-85456980D01*
X138561942Y-85456988D01*
X138506053Y-85725945D01*
X138506052Y-85725951D01*
X138487308Y-85999995D01*
X138487308Y-86000004D01*
X137433193Y-86000004D01*
X137433193Y-85999995D01*
X137414443Y-85725883D01*
X137414442Y-85725877D01*
X137414442Y-85725870D01*
X137358538Y-85456847D01*
X137266523Y-85197942D01*
X137140111Y-84953977D01*
X137139980Y-84953792D01*
X137104900Y-84904095D01*
X136981657Y-84729498D01*
X136981654Y-84729495D01*
X136981653Y-84729493D01*
X136962413Y-84708892D01*
X136930536Y-84645454D01*
X136928500Y-84622892D01*
X136928500Y-74366030D01*
X136948502Y-74297909D01*
X137002158Y-74251416D01*
X137072432Y-74241312D01*
X137137012Y-74270806D01*
X137143595Y-74276935D01*
X139922573Y-77055915D01*
X139962653Y-77097642D01*
X139996425Y-77132802D01*
X140023012Y-77152781D01*
X140055820Y-77177435D01*
X140058791Y-77179812D01*
X140115381Y-77227947D01*
X140131478Y-77237678D01*
X140151835Y-77249983D01*
X140157088Y-77253532D01*
X140191137Y-77279119D01*
X140221675Y-77295146D01*
X140256917Y-77313642D01*
X140260206Y-77315497D01*
X140323812Y-77353948D01*
X140349036Y-77364100D01*
X140363336Y-77369855D01*
X140369086Y-77372513D01*
X140387085Y-77381959D01*
X140406792Y-77392303D01*
X140406795Y-77392304D01*
X140477263Y-77415829D01*
X140480825Y-77417139D01*
X140549757Y-77444882D01*
X140591322Y-77454242D01*
X140597404Y-77455938D01*
X140637818Y-77469431D01*
X140637823Y-77469431D01*
X140637824Y-77469432D01*
X140711147Y-77481348D01*
X140714884Y-77482072D01*
X140741740Y-77488120D01*
X140787363Y-77498396D01*
X140829897Y-77500968D01*
X140836181Y-77501667D01*
X140878221Y-77508500D01*
X140952495Y-77508500D01*
X140956297Y-77508614D01*
X140976541Y-77509839D01*
X141030471Y-77513102D01*
X141030472Y-77513101D01*
X141030476Y-77513102D01*
X141072866Y-77508818D01*
X141079202Y-77508500D01*
X246060801Y-77508500D01*
X246145428Y-77501668D01*
X246242768Y-77493810D01*
X246479248Y-77435523D01*
X246479249Y-77435522D01*
X246479251Y-77435522D01*
X246553317Y-77403965D01*
X246703316Y-77340056D01*
X246909168Y-77209883D01*
X246909175Y-77209877D01*
X246909176Y-77209877D01*
X247091468Y-77048380D01*
X247091474Y-77048375D01*
X247245510Y-76859714D01*
X247367289Y-76648787D01*
X247453656Y-76421057D01*
X247502374Y-76182421D01*
X247512181Y-75939061D01*
X247482823Y-75697280D01*
X247415061Y-75463338D01*
X247361853Y-75351205D01*
X247310651Y-75243298D01*
X247239543Y-75140281D01*
X247172293Y-75042852D01*
X247003575Y-74867198D01*
X246813817Y-74724604D01*
X246771376Y-74667691D01*
X246763754Y-74616068D01*
X246765688Y-74584899D01*
X246257427Y-74076638D01*
X246223402Y-74014325D01*
X246228466Y-73943510D01*
X246267145Y-73891840D01*
X246266289Y-73890853D01*
X246270830Y-73886917D01*
X246271013Y-73886674D01*
X246271510Y-73886328D01*
X246273095Y-73884953D01*
X246273100Y-73884952D01*
X246381761Y-73790798D01*
X246417824Y-73734681D01*
X246471478Y-73688189D01*
X246541752Y-73678084D01*
X246606333Y-73707576D01*
X246612918Y-73713707D01*
X247123077Y-74223866D01*
X247198419Y-74108551D01*
X247288820Y-73902456D01*
X247288823Y-73902449D01*
X247344067Y-73684292D01*
X247362653Y-73459999D01*
X247344067Y-73235707D01*
X247288823Y-73017550D01*
X247288820Y-73017543D01*
X247198422Y-72811456D01*
X247198417Y-72811448D01*
X247123076Y-72696132D01*
X246612916Y-73206292D01*
X246550604Y-73240317D01*
X246479788Y-73235252D01*
X246422953Y-73192705D01*
X246417836Y-73185336D01*
X246381761Y-73129202D01*
X246273100Y-73035048D01*
X246273098Y-73035047D01*
X246266289Y-73029147D01*
X246268312Y-73026811D01*
X246231912Y-72984809D01*
X246221802Y-72914536D01*
X246251290Y-72849952D01*
X246257426Y-72843361D01*
X246765689Y-72335099D01*
X246745306Y-72319235D01*
X246745299Y-72319230D01*
X246711265Y-72300812D01*
X246660876Y-72250798D01*
X246645524Y-72181481D01*
X246670086Y-72114869D01*
X246711269Y-72079184D01*
X246745299Y-72060768D01*
X246745302Y-72060766D01*
X246765688Y-72044898D01*
X246257427Y-71536638D01*
X246223402Y-71474325D01*
X246228466Y-71403510D01*
X246267145Y-71351840D01*
X246266289Y-71350853D01*
X246270830Y-71346917D01*
X246271013Y-71346674D01*
X246271510Y-71346328D01*
X246273095Y-71344953D01*
X246273100Y-71344952D01*
X246381761Y-71250798D01*
X246417824Y-71194681D01*
X246471478Y-71148189D01*
X246541752Y-71138084D01*
X246606333Y-71167576D01*
X246612918Y-71173707D01*
X247123077Y-71683866D01*
X247198419Y-71568551D01*
X247288820Y-71362456D01*
X247288823Y-71362449D01*
X247344067Y-71144292D01*
X247362653Y-70920000D01*
X247344067Y-70695707D01*
X247288823Y-70477550D01*
X247288820Y-70477543D01*
X247198422Y-70271456D01*
X247198417Y-70271448D01*
X247123076Y-70156132D01*
X246612916Y-70666292D01*
X246550604Y-70700317D01*
X246479788Y-70695252D01*
X246422953Y-70652705D01*
X246417836Y-70645336D01*
X246381761Y-70589202D01*
X246273100Y-70495048D01*
X246273098Y-70495047D01*
X246266289Y-70489147D01*
X246268312Y-70486811D01*
X246231912Y-70444809D01*
X246221802Y-70374536D01*
X246251290Y-70309952D01*
X246257426Y-70303361D01*
X246765689Y-69795099D01*
X246745306Y-69779235D01*
X246745299Y-69779230D01*
X246711265Y-69760812D01*
X246660876Y-69710798D01*
X246645524Y-69641481D01*
X246670086Y-69574869D01*
X246711269Y-69539184D01*
X246745299Y-69520768D01*
X246745302Y-69520766D01*
X246765688Y-69504898D01*
X246257427Y-68996638D01*
X246223402Y-68934325D01*
X246228466Y-68863510D01*
X246267145Y-68811840D01*
X246266289Y-68810853D01*
X246270830Y-68806917D01*
X246271013Y-68806674D01*
X246271510Y-68806328D01*
X246273095Y-68804953D01*
X246273100Y-68804952D01*
X246381761Y-68710798D01*
X246417824Y-68654681D01*
X246471478Y-68608189D01*
X246541752Y-68598084D01*
X246606333Y-68627576D01*
X246612918Y-68633707D01*
X247123077Y-69143866D01*
X247198419Y-69028551D01*
X247288820Y-68822456D01*
X247288823Y-68822449D01*
X247344067Y-68604292D01*
X247362653Y-68380000D01*
X247344067Y-68155707D01*
X247288823Y-67937550D01*
X247288820Y-67937543D01*
X247198422Y-67731456D01*
X247198417Y-67731448D01*
X247123076Y-67616132D01*
X246612916Y-68126292D01*
X246550604Y-68160317D01*
X246479788Y-68155252D01*
X246422953Y-68112705D01*
X246417836Y-68105336D01*
X246381761Y-68049202D01*
X246273100Y-67955048D01*
X246273098Y-67955047D01*
X246266289Y-67949147D01*
X246268312Y-67946811D01*
X246231912Y-67904809D01*
X246221802Y-67834536D01*
X246251290Y-67769952D01*
X246257426Y-67763361D01*
X246765688Y-67255100D01*
X246763470Y-67219380D01*
X246779211Y-67150151D01*
X246821884Y-67105078D01*
X246909168Y-67049883D01*
X246909171Y-67049880D01*
X246909176Y-67049877D01*
X247091468Y-66888380D01*
X247091474Y-66888375D01*
X247245510Y-66699714D01*
X247367289Y-66488787D01*
X247453656Y-66261057D01*
X247502374Y-66022421D01*
X247512181Y-65779061D01*
X247482823Y-65537280D01*
X247415061Y-65303338D01*
X247310650Y-65083296D01*
X247172293Y-64882852D01*
X247003575Y-64707198D01*
X246808865Y-64560883D01*
X246593205Y-64447696D01*
X246593201Y-64447694D01*
X246593200Y-64447694D01*
X246362179Y-64370568D01*
X246121788Y-64331501D01*
X246121782Y-64331500D01*
X246121779Y-64331500D01*
X246121775Y-64331500D01*
X150175210Y-64331500D01*
X150068624Y-64329352D01*
X150068622Y-64329352D01*
X149995067Y-64339791D01*
X149991284Y-64340211D01*
X149917235Y-64346189D01*
X149875869Y-64356383D01*
X149869644Y-64357589D01*
X149827483Y-64363573D01*
X149827481Y-64363573D01*
X149756568Y-64385670D01*
X149752903Y-64386692D01*
X149680757Y-64404474D01*
X149641561Y-64421173D01*
X149635609Y-64423362D01*
X149594949Y-64436034D01*
X149528490Y-64469224D01*
X149525037Y-64470820D01*
X149456685Y-64499943D01*
X149456679Y-64499946D01*
X149420688Y-64522706D01*
X149415163Y-64525822D01*
X149377057Y-64544853D01*
X149316785Y-64588274D01*
X149313631Y-64590404D01*
X149250830Y-64630118D01*
X149250828Y-64630119D01*
X149218949Y-64658361D01*
X149213998Y-64662321D01*
X149179437Y-64687221D01*
X149126917Y-64739740D01*
X149124147Y-64742347D01*
X149068526Y-64791624D01*
X149041580Y-64824626D01*
X149037326Y-64829332D01*
X144476992Y-69389665D01*
X144473360Y-69393023D01*
X144430033Y-69430029D01*
X144392493Y-69473979D01*
X144390359Y-69476295D01*
X144351694Y-69521750D01*
X144275804Y-69610607D01*
X144275408Y-69611153D01*
X144272466Y-69614893D01*
X144272063Y-69615366D01*
X144272058Y-69615373D01*
X144211366Y-69715768D01*
X144151758Y-69813038D01*
X144148832Y-69818782D01*
X144147400Y-69821435D01*
X144146122Y-69823669D01*
X144146050Y-69823812D01*
X144103404Y-69929776D01*
X144060894Y-70032409D01*
X144059365Y-70037114D01*
X144059276Y-70037085D01*
X144055659Y-70048410D01*
X144055121Y-70049746D01*
X144055117Y-70049757D01*
X144030695Y-70158195D01*
X144005465Y-70263289D01*
X144005464Y-70263293D01*
X144005333Y-70264964D01*
X144002646Y-70282734D01*
X144001606Y-70287350D01*
X144001605Y-70287358D01*
X144001605Y-70287362D01*
X143995075Y-70395294D01*
X143987361Y-70493325D01*
X143986835Y-70500004D01*
X143987568Y-70509326D01*
X143987647Y-70518080D01*
X143986897Y-70530469D01*
X143997463Y-70635045D01*
X144005464Y-70736704D01*
X144005466Y-70736717D01*
X144008391Y-70748905D01*
X144009813Y-70757280D01*
X144011381Y-70772795D01*
X144011382Y-70772801D01*
X144026922Y-70830796D01*
X144037792Y-70871365D01*
X144060895Y-70967594D01*
X144060898Y-70967601D01*
X144066907Y-70982111D01*
X144069557Y-70989917D01*
X144074419Y-71008058D01*
X144115049Y-71098333D01*
X144115049Y-71098334D01*
X144151761Y-71186966D01*
X144161635Y-71203080D01*
X144165370Y-71210144D01*
X144174378Y-71230158D01*
X144227291Y-71310217D01*
X144227291Y-71310218D01*
X144275824Y-71389416D01*
X144290153Y-71406195D01*
X144294808Y-71412377D01*
X144308666Y-71433343D01*
X144308668Y-71433345D01*
X144308670Y-71433348D01*
X144371687Y-71501657D01*
X144371688Y-71501658D01*
X144425596Y-71564777D01*
X144430031Y-71569969D01*
X144449233Y-71586369D01*
X144454615Y-71591549D01*
X144473817Y-71612364D01*
X144544580Y-71667803D01*
X144610584Y-71724176D01*
X144634814Y-71739024D01*
X144640755Y-71743152D01*
X144665535Y-71762566D01*
X144665534Y-71762566D01*
X144740343Y-71803771D01*
X144742837Y-71805221D01*
X144813037Y-71848240D01*
X144842223Y-71860329D01*
X144848514Y-71863353D01*
X144865069Y-71872471D01*
X144878878Y-71880077D01*
X144956335Y-71907681D01*
X144959281Y-71908816D01*
X144973930Y-71914883D01*
X145032406Y-71939105D01*
X145066220Y-71947222D01*
X145072650Y-71949134D01*
X145108301Y-71961840D01*
X145186097Y-71976096D01*
X145189371Y-71976788D01*
X145263289Y-71994535D01*
X145300450Y-71997459D01*
X145301120Y-71997512D01*
X145307537Y-71998351D01*
X145325434Y-72001630D01*
X145347870Y-72005742D01*
X145423735Y-72007270D01*
X145427381Y-72007449D01*
X145500000Y-72013165D01*
X145540998Y-72009937D01*
X145547192Y-72009756D01*
X145580081Y-72010419D01*
X145591364Y-72010647D01*
X145591366Y-72010646D01*
X145591377Y-72010647D01*
X145663366Y-72000429D01*
X145667276Y-71999999D01*
X145677213Y-71999216D01*
X145736711Y-71994535D01*
X145779801Y-71984189D01*
X145785633Y-71983078D01*
X145832518Y-71976426D01*
X145898920Y-71955733D01*
X145902926Y-71954629D01*
X145967594Y-71939105D01*
X146011456Y-71920935D01*
X146016793Y-71919002D01*
X146065048Y-71903967D01*
X146124440Y-71874305D01*
X146128457Y-71872473D01*
X146186963Y-71848240D01*
X146230155Y-71821770D01*
X146234894Y-71819141D01*
X146282943Y-71795146D01*
X146334229Y-71758198D01*
X146338134Y-71755601D01*
X146389416Y-71724176D01*
X146430338Y-71689224D01*
X146434423Y-71686018D01*
X146480560Y-71652781D01*
X146523028Y-71610311D01*
X146526618Y-71606992D01*
X146569969Y-71569969D01*
X146606992Y-71526618D01*
X146610310Y-71523029D01*
X150747935Y-67385405D01*
X150810248Y-67351379D01*
X150837031Y-67348500D01*
X157278947Y-67348500D01*
X157347068Y-67368502D01*
X157393561Y-67422158D01*
X157403665Y-67492432D01*
X157384430Y-67543415D01*
X157261581Y-67731448D01*
X157171179Y-67937543D01*
X157171176Y-67937550D01*
X157115932Y-68155707D01*
X157097346Y-68379999D01*
X157115932Y-68604292D01*
X157171176Y-68822449D01*
X157171179Y-68822456D01*
X157261580Y-69028548D01*
X157336922Y-69143866D01*
X157847081Y-68633706D01*
X157909394Y-68599681D01*
X157980209Y-68604745D01*
X158037045Y-68647292D01*
X158042162Y-68654661D01*
X158078239Y-68710798D01*
X158186900Y-68804952D01*
X158186901Y-68804952D01*
X158193711Y-68810853D01*
X158191686Y-68813189D01*
X158228084Y-68855187D01*
X158238195Y-68925460D01*
X158208709Y-68990043D01*
X158202572Y-68996636D01*
X157694310Y-69504898D01*
X157714694Y-69520763D01*
X157714696Y-69520765D01*
X157748733Y-69539185D01*
X157799123Y-69589199D01*
X157814475Y-69658516D01*
X157789914Y-69725129D01*
X157748735Y-69760811D01*
X157714702Y-69779229D01*
X157694310Y-69795099D01*
X157694310Y-69795100D01*
X158202572Y-70303361D01*
X158236597Y-70365674D01*
X158231533Y-70436489D01*
X158192854Y-70488157D01*
X158193711Y-70489147D01*
X158189164Y-70493086D01*
X158188986Y-70493325D01*
X158188498Y-70493663D01*
X158078238Y-70589202D01*
X158042175Y-70645318D01*
X157988519Y-70691811D01*
X157918245Y-70701914D01*
X157853664Y-70672421D01*
X157847082Y-70666292D01*
X157336922Y-70156132D01*
X157261580Y-70271451D01*
X157171179Y-70477543D01*
X157171176Y-70477550D01*
X157115932Y-70695707D01*
X157097346Y-70920000D01*
X157115932Y-71144292D01*
X157171176Y-71362449D01*
X157171179Y-71362456D01*
X157261580Y-71568548D01*
X157336922Y-71683866D01*
X157847081Y-71173706D01*
X157909394Y-71139681D01*
X157980209Y-71144745D01*
X158037045Y-71187292D01*
X158042162Y-71194661D01*
X158078239Y-71250798D01*
X158186900Y-71344952D01*
X158186901Y-71344952D01*
X158193711Y-71350853D01*
X158191686Y-71353189D01*
X158228084Y-71395187D01*
X158238195Y-71465460D01*
X158208709Y-71530043D01*
X158202572Y-71536636D01*
X157694310Y-72044898D01*
X157714694Y-72060763D01*
X157714696Y-72060765D01*
X157748733Y-72079185D01*
X157799123Y-72129199D01*
X157814475Y-72198516D01*
X157789914Y-72265129D01*
X157748735Y-72300811D01*
X157714702Y-72319229D01*
X157694310Y-72335099D01*
X157694310Y-72335100D01*
X158202572Y-72843361D01*
X158236597Y-72905674D01*
X158231533Y-72976489D01*
X158192854Y-73028157D01*
X158193711Y-73029147D01*
X158189164Y-73033086D01*
X158188986Y-73033325D01*
X158188498Y-73033663D01*
X158078238Y-73129202D01*
X158042175Y-73185318D01*
X157988519Y-73231811D01*
X157918245Y-73241914D01*
X157853664Y-73212421D01*
X157847082Y-73206292D01*
X157336922Y-72696132D01*
X157261580Y-72811451D01*
X157171179Y-73017543D01*
X157171176Y-73017550D01*
X157115932Y-73235707D01*
X157097346Y-73459999D01*
X157115932Y-73684292D01*
X157171176Y-73902449D01*
X157171179Y-73902456D01*
X157261581Y-74108551D01*
X157384430Y-74296585D01*
X157404943Y-74364553D01*
X157385454Y-74432822D01*
X157332149Y-74479717D01*
X157278947Y-74491500D01*
X141677032Y-74491500D01*
X141608911Y-74471498D01*
X141587937Y-74454595D01*
X137633342Y-70500000D01*
X138987337Y-70500000D01*
X139005960Y-70736632D01*
X139061371Y-70967437D01*
X139152206Y-71186733D01*
X139266897Y-71373891D01*
X139887081Y-70753706D01*
X139949394Y-70719681D01*
X140020209Y-70724745D01*
X140077045Y-70767292D01*
X140082162Y-70774661D01*
X140118239Y-70830798D01*
X140226900Y-70924952D01*
X140226901Y-70924952D01*
X140233711Y-70930853D01*
X140231686Y-70933189D01*
X140268084Y-70975187D01*
X140278195Y-71045460D01*
X140248709Y-71110043D01*
X140242572Y-71116636D01*
X139626107Y-71733101D01*
X139626107Y-71733102D01*
X139813261Y-71847791D01*
X140032562Y-71938628D01*
X140263367Y-71994039D01*
X140500000Y-72012662D01*
X140736632Y-71994039D01*
X140967437Y-71938628D01*
X141186738Y-71847791D01*
X141373891Y-71733102D01*
X141373892Y-71733102D01*
X140757427Y-71116638D01*
X140723402Y-71054325D01*
X140728466Y-70983510D01*
X140767145Y-70931840D01*
X140766289Y-70930853D01*
X140770830Y-70926917D01*
X140771013Y-70926674D01*
X140771510Y-70926328D01*
X140773095Y-70924953D01*
X140773100Y-70924952D01*
X140881761Y-70830798D01*
X140917824Y-70774681D01*
X140971478Y-70728189D01*
X141041752Y-70718084D01*
X141106333Y-70747576D01*
X141112918Y-70753707D01*
X141733102Y-71373892D01*
X141733102Y-71373891D01*
X141847791Y-71186738D01*
X141938628Y-70967437D01*
X141994039Y-70736632D01*
X142012662Y-70500000D01*
X141994039Y-70263367D01*
X141938628Y-70032562D01*
X141847791Y-69813261D01*
X141733102Y-69626107D01*
X141733101Y-69626107D01*
X141112916Y-70246292D01*
X141050604Y-70280317D01*
X140979788Y-70275252D01*
X140922953Y-70232705D01*
X140917836Y-70225336D01*
X140881761Y-70169202D01*
X140773100Y-70075048D01*
X140773098Y-70075047D01*
X140766289Y-70069147D01*
X140768312Y-70066811D01*
X140731912Y-70024809D01*
X140721802Y-69954536D01*
X140751290Y-69889952D01*
X140757426Y-69883361D01*
X141373891Y-69266897D01*
X141186733Y-69152206D01*
X140967437Y-69061371D01*
X140736632Y-69005960D01*
X140499999Y-68987337D01*
X140263367Y-69005960D01*
X140032562Y-69061371D01*
X139813262Y-69152208D01*
X139626107Y-69266896D01*
X139626107Y-69266897D01*
X140242572Y-69883361D01*
X140276597Y-69945674D01*
X140271533Y-70016489D01*
X140232854Y-70068157D01*
X140233711Y-70069147D01*
X140229164Y-70073086D01*
X140228986Y-70073325D01*
X140228498Y-70073663D01*
X140118238Y-70169202D01*
X140082175Y-70225318D01*
X140028519Y-70271811D01*
X139958245Y-70281914D01*
X139893664Y-70252421D01*
X139887081Y-70246292D01*
X139266897Y-69626107D01*
X139266896Y-69626107D01*
X139152208Y-69813262D01*
X139061371Y-70032562D01*
X139005960Y-70263367D01*
X138987337Y-70500000D01*
X137633342Y-70500000D01*
X136965405Y-69832063D01*
X136931379Y-69769751D01*
X136928500Y-69742968D01*
X136928500Y-58125481D01*
X136948502Y-58057360D01*
X137002158Y-58010867D01*
X137025522Y-58002859D01*
X137029199Y-58001989D01*
X137029201Y-58001989D01*
X137166204Y-57950889D01*
X137283261Y-57863261D01*
X137283260Y-57863261D01*
X137370887Y-57746207D01*
X137370887Y-57746206D01*
X137370889Y-57746204D01*
X137421989Y-57609201D01*
X137424216Y-57588494D01*
X137428499Y-57548649D01*
X137428500Y-57548632D01*
X137428500Y-56000004D01*
X138487308Y-56000004D01*
X138506052Y-56274048D01*
X138506053Y-56274054D01*
X138561942Y-56543011D01*
X138561944Y-56543019D01*
X138653938Y-56801865D01*
X138780314Y-57045756D01*
X138780316Y-57045759D01*
X138910540Y-57230247D01*
X139700469Y-56440318D01*
X139762782Y-56406293D01*
X139833597Y-56411357D01*
X139890433Y-56453904D01*
X139890632Y-56454171D01*
X139943430Y-56525091D01*
X139943432Y-56525092D01*
X139943433Y-56525094D01*
X139964955Y-56543153D01*
X140050529Y-56614960D01*
X140089855Y-56674070D01*
X140090981Y-56745058D01*
X140058632Y-56800576D01*
X139270715Y-57588492D01*
X139270715Y-57588494D01*
X139339313Y-57644304D01*
X139339318Y-57644307D01*
X139574030Y-57787038D01*
X139825989Y-57896480D01*
X140090509Y-57970595D01*
X140362635Y-58007999D01*
X140362649Y-58008000D01*
X140637351Y-58008000D01*
X140637364Y-58007999D01*
X140909490Y-57970595D01*
X141174010Y-57896480D01*
X141425969Y-57787038D01*
X141660679Y-57644309D01*
X141729283Y-57588493D01*
X140941418Y-56800629D01*
X140907393Y-56738316D01*
X140912457Y-56667501D01*
X140955004Y-56610665D01*
X140961250Y-56606278D01*
X140991844Y-56586157D01*
X141113764Y-56456930D01*
X141113764Y-56456929D01*
X141118800Y-56451592D01*
X141119959Y-56452685D01*
X141169761Y-56415182D01*
X141240562Y-56409914D01*
X141302971Y-56443761D01*
X142089457Y-57230247D01*
X142219682Y-57045762D01*
X142219685Y-57045756D01*
X142346061Y-56801865D01*
X142438055Y-56543019D01*
X142438057Y-56543011D01*
X142493946Y-56274054D01*
X142493947Y-56274048D01*
X142512692Y-56000004D01*
X143566807Y-56000004D01*
X143585556Y-56274116D01*
X143585557Y-56274122D01*
X143585558Y-56274130D01*
X143604227Y-56363969D01*
X143641460Y-56543146D01*
X143641462Y-56543154D01*
X143730275Y-56793048D01*
X143733477Y-56802058D01*
X143859752Y-57045759D01*
X143859892Y-57046028D01*
X143927797Y-57142227D01*
X144018343Y-57270502D01*
X144205889Y-57471314D01*
X144419031Y-57644718D01*
X144653800Y-57787484D01*
X144905823Y-57896953D01*
X145170404Y-57971085D01*
X145265504Y-57984156D01*
X145442604Y-58008499D01*
X145442615Y-58008500D01*
X145717385Y-58008500D01*
X145717395Y-58008499D01*
X145846945Y-57990692D01*
X145989596Y-57971085D01*
X146254177Y-57896953D01*
X146506200Y-57787484D01*
X146740969Y-57644718D01*
X146954111Y-57471314D01*
X147141657Y-57270502D01*
X147300111Y-57046023D01*
X147426523Y-56802058D01*
X147518538Y-56543153D01*
X147519231Y-56539818D01*
X147546445Y-56408864D01*
X147579888Y-56346238D01*
X147641881Y-56311634D01*
X147669809Y-56308500D01*
X149965500Y-56308500D01*
X150033621Y-56328502D01*
X150080114Y-56382158D01*
X150091500Y-56434500D01*
X150091500Y-56448649D01*
X150098009Y-56509196D01*
X150098011Y-56509204D01*
X150149110Y-56646202D01*
X150149112Y-56646207D01*
X150236738Y-56763261D01*
X150353792Y-56850887D01*
X150353794Y-56850888D01*
X150353796Y-56850889D01*
X150405243Y-56870078D01*
X150490795Y-56901988D01*
X150490803Y-56901990D01*
X150551350Y-56908499D01*
X150551355Y-56908499D01*
X150551362Y-56908500D01*
X150551368Y-56908500D01*
X152448632Y-56908500D01*
X152448638Y-56908500D01*
X152448645Y-56908499D01*
X152448649Y-56908499D01*
X152509196Y-56901990D01*
X152509199Y-56901989D01*
X152509201Y-56901989D01*
X152646204Y-56850889D01*
X152646799Y-56850444D01*
X152763261Y-56763261D01*
X152850886Y-56646208D01*
X152850885Y-56646208D01*
X152850889Y-56646204D01*
X152874258Y-56583547D01*
X152916804Y-56526715D01*
X152983325Y-56501904D01*
X153052699Y-56516996D01*
X153078294Y-56536996D01*
X153078946Y-56536289D01*
X153082778Y-56539817D01*
X153138437Y-56583138D01*
X153266983Y-56683190D01*
X153472273Y-56794287D01*
X153693049Y-56870080D01*
X153923288Y-56908500D01*
X153923292Y-56908500D01*
X154156708Y-56908500D01*
X154156712Y-56908500D01*
X154386951Y-56870080D01*
X154607727Y-56794287D01*
X154813017Y-56683190D01*
X154997220Y-56539818D01*
X155009283Y-56526715D01*
X155088817Y-56440318D01*
X155155314Y-56368083D01*
X155156943Y-56365588D01*
X155157875Y-56364793D01*
X155158517Y-56363969D01*
X155158686Y-56364100D01*
X155210944Y-56319499D01*
X155262429Y-56308500D01*
X157555811Y-56308500D01*
X157623932Y-56328502D01*
X157644906Y-56345404D01*
X157805700Y-56506198D01*
X157993251Y-56637523D01*
X158200757Y-56734284D01*
X158421913Y-56793543D01*
X158650000Y-56813498D01*
X158878087Y-56793543D01*
X159099243Y-56734284D01*
X159306749Y-56637523D01*
X159494300Y-56506198D01*
X159656198Y-56344300D01*
X159787523Y-56156749D01*
X159884284Y-55949243D01*
X159943543Y-55728087D01*
X159963498Y-55500000D01*
X170037004Y-55500000D01*
X170056951Y-55728002D01*
X170116186Y-55949068D01*
X170116188Y-55949073D01*
X170212913Y-56156501D01*
X170262899Y-56227888D01*
X170808722Y-55682065D01*
X170871035Y-55648040D01*
X170941850Y-55653104D01*
X170998686Y-55695651D01*
X171010084Y-55713955D01*
X171022359Y-55738045D01*
X171022361Y-55738048D01*
X171111951Y-55827638D01*
X171111953Y-55827639D01*
X171111955Y-55827641D01*
X171136042Y-55839913D01*
X171187656Y-55888661D01*
X171204722Y-55957576D01*
X171181821Y-56024778D01*
X171167933Y-56041275D01*
X170622110Y-56587097D01*
X170622110Y-56587100D01*
X170693498Y-56637086D01*
X170900926Y-56733811D01*
X170900931Y-56733813D01*
X171121999Y-56793048D01*
X171121995Y-56793048D01*
X171350000Y-56812995D01*
X171578002Y-56793048D01*
X171799068Y-56733813D01*
X171799073Y-56733811D01*
X172006497Y-56637088D01*
X172077888Y-56587099D01*
X172077888Y-56587098D01*
X171532065Y-56041276D01*
X171498040Y-55978963D01*
X171503104Y-55908148D01*
X171545651Y-55851312D01*
X171563951Y-55839917D01*
X171588045Y-55827641D01*
X171677641Y-55738045D01*
X171689914Y-55713957D01*
X171738658Y-55662344D01*
X171807573Y-55645275D01*
X171874775Y-55668175D01*
X171891276Y-55682065D01*
X172437098Y-56227888D01*
X172437099Y-56227888D01*
X172487088Y-56156497D01*
X172583811Y-55949073D01*
X172583813Y-55949068D01*
X172643048Y-55728002D01*
X172662995Y-55500000D01*
X172643048Y-55271997D01*
X172583813Y-55050931D01*
X172583811Y-55050926D01*
X172487086Y-54843498D01*
X172437100Y-54772110D01*
X172437097Y-54772110D01*
X171891275Y-55317933D01*
X171828963Y-55351959D01*
X171758148Y-55346894D01*
X171701312Y-55304347D01*
X171689913Y-55286041D01*
X171677641Y-55261955D01*
X171677639Y-55261953D01*
X171677638Y-55261951D01*
X171588048Y-55172361D01*
X171588045Y-55172359D01*
X171563955Y-55160084D01*
X171512341Y-55111334D01*
X171495276Y-55042419D01*
X171518178Y-54975218D01*
X171532065Y-54958722D01*
X172077888Y-54412899D01*
X172077888Y-54412898D01*
X172006501Y-54362913D01*
X171799073Y-54266188D01*
X171799068Y-54266186D01*
X171578000Y-54206951D01*
X171578004Y-54206951D01*
X171350000Y-54187004D01*
X171121997Y-54206951D01*
X170900931Y-54266186D01*
X170900926Y-54266188D01*
X170693500Y-54362913D01*
X170622109Y-54412899D01*
X171167934Y-54958723D01*
X171201959Y-55021036D01*
X171196895Y-55091851D01*
X171154348Y-55148687D01*
X171136043Y-55160085D01*
X171111956Y-55172358D01*
X171111951Y-55172361D01*
X171022361Y-55261951D01*
X171022358Y-55261956D01*
X171010085Y-55286043D01*
X170961337Y-55337658D01*
X170892422Y-55354723D01*
X170825220Y-55331822D01*
X170808723Y-55317934D01*
X170262899Y-54772109D01*
X170212913Y-54843500D01*
X170116188Y-55050926D01*
X170116186Y-55050931D01*
X170056951Y-55271997D01*
X170037004Y-55500000D01*
X159963498Y-55500000D01*
X159943543Y-55271913D01*
X159884284Y-55050757D01*
X159787523Y-54843251D01*
X159656198Y-54655700D01*
X159494300Y-54493802D01*
X159490011Y-54490799D01*
X159306749Y-54362477D01*
X159099246Y-54265717D01*
X159099240Y-54265715D01*
X158991096Y-54236738D01*
X158878087Y-54206457D01*
X158650000Y-54186502D01*
X158421913Y-54206457D01*
X158200759Y-54265715D01*
X158200753Y-54265717D01*
X157993250Y-54362477D01*
X157805703Y-54493799D01*
X157644906Y-54654596D01*
X157582594Y-54688621D01*
X157555811Y-54691500D01*
X155262429Y-54691500D01*
X155194308Y-54671498D01*
X155158549Y-54636005D01*
X155158517Y-54636031D01*
X155158319Y-54635777D01*
X155156944Y-54634412D01*
X155155314Y-54631917D01*
X155155311Y-54631914D01*
X155155310Y-54631912D01*
X154997225Y-54460186D01*
X154997221Y-54460182D01*
X154905118Y-54388496D01*
X154813017Y-54316810D01*
X154607727Y-54205713D01*
X154607724Y-54205712D01*
X154607723Y-54205711D01*
X154386955Y-54129921D01*
X154386948Y-54129919D01*
X154288411Y-54113476D01*
X154156712Y-54091500D01*
X153923288Y-54091500D01*
X153808066Y-54110727D01*
X153693051Y-54129919D01*
X153693044Y-54129921D01*
X153472276Y-54205711D01*
X153472273Y-54205713D01*
X153383431Y-54253792D01*
X153266985Y-54316809D01*
X153266983Y-54316810D01*
X153082778Y-54460182D01*
X153078946Y-54463711D01*
X153077581Y-54462228D01*
X153024129Y-54494333D01*
X152953165Y-54492180D01*
X152894630Y-54452003D01*
X152874258Y-54416449D01*
X152854127Y-54362477D01*
X152850889Y-54353796D01*
X152850888Y-54353794D01*
X152850887Y-54353792D01*
X152763261Y-54236738D01*
X152646207Y-54149112D01*
X152646202Y-54149110D01*
X152509204Y-54098011D01*
X152509196Y-54098009D01*
X152448649Y-54091500D01*
X152448638Y-54091500D01*
X150551362Y-54091500D01*
X150551350Y-54091500D01*
X150490803Y-54098009D01*
X150490795Y-54098011D01*
X150353797Y-54149110D01*
X150353792Y-54149112D01*
X150236738Y-54236738D01*
X150149112Y-54353792D01*
X150149110Y-54353797D01*
X150098011Y-54490795D01*
X150098009Y-54490803D01*
X150091500Y-54551350D01*
X150091500Y-54565500D01*
X150071498Y-54633621D01*
X150017842Y-54680114D01*
X149965500Y-54691500D01*
X147160898Y-54691500D01*
X147092777Y-54671498D01*
X147068813Y-54651502D01*
X147054127Y-54635777D01*
X146954111Y-54528686D01*
X146740969Y-54355282D01*
X146549181Y-54238653D01*
X146506197Y-54212514D01*
X146254180Y-54103048D01*
X146254178Y-54103047D01*
X146254177Y-54103047D01*
X146061673Y-54049110D01*
X145989593Y-54028914D01*
X145717395Y-53991500D01*
X145717385Y-53991500D01*
X145442615Y-53991500D01*
X145442604Y-53991500D01*
X145170406Y-54028914D01*
X144905819Y-54103048D01*
X144653802Y-54212514D01*
X144462012Y-54329144D01*
X144421084Y-54354034D01*
X144419028Y-54355284D01*
X144205886Y-54528688D01*
X144018343Y-54729498D01*
X143859892Y-54953971D01*
X143733477Y-55197941D01*
X143641462Y-55456845D01*
X143641460Y-55456853D01*
X143585557Y-55725877D01*
X143585556Y-55725883D01*
X143566807Y-55999995D01*
X143566807Y-56000004D01*
X142512692Y-56000004D01*
X142512692Y-55999995D01*
X142493947Y-55725951D01*
X142493946Y-55725945D01*
X142438057Y-55456988D01*
X142438055Y-55456980D01*
X142346061Y-55198134D01*
X142219685Y-54954243D01*
X142219681Y-54954237D01*
X142089457Y-54769750D01*
X141299528Y-55559680D01*
X141237216Y-55593706D01*
X141166401Y-55588641D01*
X141109565Y-55546094D01*
X141109522Y-55546036D01*
X141056567Y-55474906D01*
X140965791Y-55398735D01*
X140949468Y-55385038D01*
X140910143Y-55325927D01*
X140909017Y-55254940D01*
X140941366Y-55199421D01*
X141729283Y-54411504D01*
X141660680Y-54355691D01*
X141425969Y-54212961D01*
X141174010Y-54103519D01*
X140909490Y-54029404D01*
X140637364Y-53992000D01*
X140362635Y-53992000D01*
X140090509Y-54029404D01*
X139825989Y-54103519D01*
X139574030Y-54212961D01*
X139339325Y-54355687D01*
X139270715Y-54411505D01*
X140058581Y-55199370D01*
X140092606Y-55261683D01*
X140087542Y-55332498D01*
X140044995Y-55389334D01*
X140038726Y-55393737D01*
X140008153Y-55413845D01*
X139881200Y-55548408D01*
X139880045Y-55547318D01*
X139830200Y-55584831D01*
X139759397Y-55590075D01*
X139696999Y-55556208D01*
X138910541Y-54769750D01*
X138780317Y-54954236D01*
X138653938Y-55198134D01*
X138561944Y-55456980D01*
X138561942Y-55456988D01*
X138506053Y-55725945D01*
X138506052Y-55725951D01*
X138487308Y-55999995D01*
X138487308Y-56000004D01*
X137428500Y-56000004D01*
X137428500Y-54451367D01*
X137428499Y-54451350D01*
X137421990Y-54390803D01*
X137421988Y-54390795D01*
X137375335Y-54265716D01*
X137370889Y-54253796D01*
X137370888Y-54253794D01*
X137370887Y-54253792D01*
X137283261Y-54136738D01*
X137166207Y-54049112D01*
X137166202Y-54049110D01*
X137029204Y-53998011D01*
X137029196Y-53998009D01*
X136968649Y-53991500D01*
X136968638Y-53991500D01*
X133871362Y-53991500D01*
X133871350Y-53991500D01*
X133810803Y-53998009D01*
X133810795Y-53998011D01*
X133673797Y-54049110D01*
X133673792Y-54049112D01*
X133556738Y-54136738D01*
X133469112Y-54253792D01*
X133469110Y-54253797D01*
X133418011Y-54390795D01*
X133418009Y-54390803D01*
X133411500Y-54451350D01*
X133411500Y-54565500D01*
X133391498Y-54633621D01*
X133337842Y-54680114D01*
X133285500Y-54691500D01*
X131719189Y-54691500D01*
X131651068Y-54671498D01*
X131630094Y-54654596D01*
X131607410Y-54631912D01*
X131469300Y-54493802D01*
X131465011Y-54490799D01*
X131281749Y-54362477D01*
X131074246Y-54265717D01*
X131074240Y-54265715D01*
X130966096Y-54236738D01*
X130853087Y-54206457D01*
X130625000Y-54186502D01*
X130396913Y-54206457D01*
X130175759Y-54265715D01*
X130175753Y-54265717D01*
X129968250Y-54362477D01*
X129780703Y-54493799D01*
X129780697Y-54493804D01*
X129618804Y-54655697D01*
X129618799Y-54655703D01*
X129487477Y-54843250D01*
X129390717Y-55050753D01*
X129390715Y-55050759D01*
X129351226Y-55198134D01*
X129331457Y-55271913D01*
X129311502Y-55500000D01*
X129331457Y-55728087D01*
X129346369Y-55783740D01*
X129390715Y-55949240D01*
X129390717Y-55949246D01*
X129443460Y-56062354D01*
X129487477Y-56156749D01*
X129618802Y-56344300D01*
X129780700Y-56506198D01*
X129968251Y-56637523D01*
X130175757Y-56734284D01*
X130396913Y-56793543D01*
X130625000Y-56813498D01*
X130853087Y-56793543D01*
X131074243Y-56734284D01*
X131281749Y-56637523D01*
X131469300Y-56506198D01*
X131630094Y-56345403D01*
X131692406Y-56311379D01*
X131719189Y-56308500D01*
X133285500Y-56308500D01*
X133353621Y-56328502D01*
X133400114Y-56382158D01*
X133411500Y-56434500D01*
X133411500Y-57548649D01*
X133418009Y-57609196D01*
X133418011Y-57609204D01*
X133469110Y-57746202D01*
X133469112Y-57746207D01*
X133556738Y-57863261D01*
X133673792Y-57950887D01*
X133673794Y-57950888D01*
X133673796Y-57950889D01*
X133810798Y-58001988D01*
X133810799Y-58001989D01*
X133814478Y-58002859D01*
X133817036Y-58004316D01*
X133818184Y-58004744D01*
X133818114Y-58004929D01*
X133876173Y-58037991D01*
X133909079Y-58100901D01*
X133911500Y-58125481D01*
X133911500Y-69902967D01*
X133891498Y-69971088D01*
X133874595Y-69992062D01*
X129412063Y-74454595D01*
X129349751Y-74488621D01*
X129322968Y-74491500D01*
X124721053Y-74491500D01*
X124652932Y-74471498D01*
X124606439Y-74417842D01*
X124596335Y-74347568D01*
X124615570Y-74296585D01*
X124738418Y-74108551D01*
X124828820Y-73902456D01*
X124828823Y-73902449D01*
X124884067Y-73684292D01*
X124902653Y-73459999D01*
X124884067Y-73235707D01*
X124828823Y-73017550D01*
X124828820Y-73017543D01*
X124738422Y-72811456D01*
X124738417Y-72811448D01*
X124663076Y-72696132D01*
X124152916Y-73206292D01*
X124090604Y-73240317D01*
X124019788Y-73235252D01*
X123962953Y-73192705D01*
X123957836Y-73185336D01*
X123921761Y-73129202D01*
X123813100Y-73035048D01*
X123813098Y-73035047D01*
X123806289Y-73029147D01*
X123808312Y-73026811D01*
X123771912Y-72984809D01*
X123761802Y-72914536D01*
X123791290Y-72849952D01*
X123797426Y-72843361D01*
X124305688Y-72335099D01*
X124285306Y-72319235D01*
X124285299Y-72319230D01*
X124251265Y-72300812D01*
X124200876Y-72250798D01*
X124185524Y-72181481D01*
X124210086Y-72114869D01*
X124251269Y-72079184D01*
X124285299Y-72060768D01*
X124285302Y-72060766D01*
X124305688Y-72044898D01*
X123797427Y-71536638D01*
X123763402Y-71474325D01*
X123768466Y-71403510D01*
X123807145Y-71351840D01*
X123806289Y-71350853D01*
X123810830Y-71346917D01*
X123811013Y-71346674D01*
X123811510Y-71346328D01*
X123813095Y-71344953D01*
X123813100Y-71344952D01*
X123921761Y-71250798D01*
X123957824Y-71194681D01*
X124011478Y-71148189D01*
X124081752Y-71138084D01*
X124146333Y-71167576D01*
X124152918Y-71173707D01*
X124663077Y-71683866D01*
X124738419Y-71568551D01*
X124828820Y-71362456D01*
X124828823Y-71362449D01*
X124884067Y-71144292D01*
X124902653Y-70920000D01*
X124884067Y-70695707D01*
X124828823Y-70477550D01*
X124828820Y-70477543D01*
X124738422Y-70271456D01*
X124738417Y-70271448D01*
X124663076Y-70156132D01*
X124152916Y-70666292D01*
X124090604Y-70700317D01*
X124019788Y-70695252D01*
X123962953Y-70652705D01*
X123957836Y-70645336D01*
X123921761Y-70589202D01*
X123813100Y-70495048D01*
X123813098Y-70495047D01*
X123806289Y-70489147D01*
X123808312Y-70486811D01*
X123771912Y-70444809D01*
X123761802Y-70374536D01*
X123791290Y-70309952D01*
X123797426Y-70303361D01*
X124305689Y-69795099D01*
X124285306Y-69779235D01*
X124285299Y-69779230D01*
X124251265Y-69760812D01*
X124200876Y-69710798D01*
X124185524Y-69641481D01*
X124210086Y-69574869D01*
X124251269Y-69539184D01*
X124285299Y-69520768D01*
X124285302Y-69520766D01*
X124305688Y-69504898D01*
X123797427Y-68996638D01*
X123763402Y-68934325D01*
X123768466Y-68863510D01*
X123807145Y-68811840D01*
X123806289Y-68810853D01*
X123810830Y-68806917D01*
X123811013Y-68806674D01*
X123811510Y-68806328D01*
X123813095Y-68804953D01*
X123813100Y-68804952D01*
X123921761Y-68710798D01*
X123957824Y-68654681D01*
X124011478Y-68608189D01*
X124081752Y-68598084D01*
X124146333Y-68627576D01*
X124152918Y-68633707D01*
X124663077Y-69143866D01*
X124738419Y-69028551D01*
X124828820Y-68822456D01*
X124828823Y-68822449D01*
X124884067Y-68604292D01*
X124902653Y-68379999D01*
X124884067Y-68155707D01*
X124828823Y-67937550D01*
X124828820Y-67937543D01*
X124738422Y-67731456D01*
X124738417Y-67731448D01*
X124663076Y-67616132D01*
X124152916Y-68126292D01*
X124090604Y-68160317D01*
X124019788Y-68155252D01*
X123962953Y-68112705D01*
X123957836Y-68105336D01*
X123921761Y-68049202D01*
X123813100Y-67955048D01*
X123813098Y-67955047D01*
X123806289Y-67949147D01*
X123808312Y-67946811D01*
X123771912Y-67904809D01*
X123761802Y-67834536D01*
X123791290Y-67769952D01*
X123797426Y-67763361D01*
X124305688Y-67255100D01*
X124303470Y-67219380D01*
X124319211Y-67150151D01*
X124361884Y-67105078D01*
X124449168Y-67049883D01*
X124449171Y-67049880D01*
X124449176Y-67049877D01*
X124631468Y-66888380D01*
X124631474Y-66888375D01*
X124785510Y-66699714D01*
X124907289Y-66488787D01*
X124993656Y-66261057D01*
X125042374Y-66022421D01*
X125052181Y-65779061D01*
X125022823Y-65537280D01*
X124955061Y-65303338D01*
X124850650Y-65083296D01*
X124712293Y-64882852D01*
X124543575Y-64707198D01*
X124348865Y-64560883D01*
X124133205Y-64447696D01*
X124133201Y-64447694D01*
X124133200Y-64447694D01*
X123902179Y-64370568D01*
X123661788Y-64331501D01*
X123661782Y-64331500D01*
X123661779Y-64331500D01*
X35939203Y-64331500D01*
X35939199Y-64331500D01*
X35757236Y-64346189D01*
X35520753Y-64404476D01*
X35354556Y-64475286D01*
X35317977Y-64484715D01*
X35245577Y-64492112D01*
X35077262Y-64547885D01*
X34926347Y-64640970D01*
X34926341Y-64640975D01*
X34800975Y-64766341D01*
X34800970Y-64766347D01*
X34707885Y-64917262D01*
X34652112Y-65085576D01*
X34645888Y-65146495D01*
X34634381Y-65187691D01*
X34632714Y-65191204D01*
X34546345Y-65418939D01*
X34497626Y-65657579D01*
X34487819Y-65900937D01*
X34487819Y-65900944D01*
X34517177Y-66142721D01*
X34517177Y-66142722D01*
X34584936Y-66376655D01*
X34584940Y-66376666D01*
X34632886Y-66477710D01*
X34644398Y-66518918D01*
X34652112Y-66594422D01*
X34652112Y-66594424D01*
X34652113Y-66594426D01*
X34707885Y-66762738D01*
X34785376Y-66888370D01*
X34800970Y-66913652D01*
X34800975Y-66913658D01*
X34926341Y-67039024D01*
X34926347Y-67039029D01*
X34926348Y-67039030D01*
X35077262Y-67132115D01*
X35146485Y-67155052D01*
X35204856Y-67195466D01*
X35226333Y-67247123D01*
X35742572Y-67763361D01*
X35776597Y-67825674D01*
X35771533Y-67896489D01*
X35732854Y-67948157D01*
X35733711Y-67949147D01*
X35729164Y-67953086D01*
X35728986Y-67953325D01*
X35728498Y-67953663D01*
X35618238Y-68049202D01*
X35582175Y-68105318D01*
X35528519Y-68151811D01*
X35458245Y-68161914D01*
X35393664Y-68132421D01*
X35387082Y-68126292D01*
X34876922Y-67616132D01*
X34801580Y-67731451D01*
X34711179Y-67937543D01*
X34711176Y-67937550D01*
X34655932Y-68155707D01*
X34637346Y-68380000D01*
X34655932Y-68604292D01*
X34711176Y-68822449D01*
X34711179Y-68822456D01*
X34801580Y-69028548D01*
X34876922Y-69143866D01*
X35387081Y-68633706D01*
X35449394Y-68599681D01*
X35520209Y-68604745D01*
X35577045Y-68647292D01*
X35582162Y-68654661D01*
X35618239Y-68710798D01*
X35726900Y-68804952D01*
X35726901Y-68804952D01*
X35733711Y-68810853D01*
X35731686Y-68813189D01*
X35768084Y-68855187D01*
X35778195Y-68925460D01*
X35748709Y-68990043D01*
X35742572Y-68996636D01*
X35234310Y-69504898D01*
X35254694Y-69520763D01*
X35254696Y-69520765D01*
X35288733Y-69539185D01*
X35339123Y-69589199D01*
X35354475Y-69658516D01*
X35329914Y-69725129D01*
X35288735Y-69760811D01*
X35254702Y-69779229D01*
X35234310Y-69795099D01*
X35234310Y-69795100D01*
X35742572Y-70303361D01*
X35776597Y-70365674D01*
X35771533Y-70436489D01*
X35732854Y-70488157D01*
X35733711Y-70489147D01*
X35729164Y-70493086D01*
X35728986Y-70493325D01*
X35728498Y-70493663D01*
X35618238Y-70589202D01*
X35582175Y-70645318D01*
X35528519Y-70691811D01*
X35458245Y-70701914D01*
X35393664Y-70672421D01*
X35387082Y-70666292D01*
X34876922Y-70156132D01*
X34801580Y-70271451D01*
X34711179Y-70477543D01*
X34711176Y-70477550D01*
X34655932Y-70695707D01*
X34637346Y-70920000D01*
X34655932Y-71144292D01*
X34711176Y-71362449D01*
X34711179Y-71362456D01*
X34801580Y-71568548D01*
X34876922Y-71683866D01*
X35387081Y-71173706D01*
X35449394Y-71139681D01*
X35520209Y-71144745D01*
X35577045Y-71187292D01*
X35582162Y-71194661D01*
X35618239Y-71250798D01*
X35726900Y-71344952D01*
X35726901Y-71344952D01*
X35733711Y-71350853D01*
X35731686Y-71353189D01*
X35768084Y-71395187D01*
X35778195Y-71465460D01*
X35748709Y-71530043D01*
X35742572Y-71536636D01*
X35234310Y-72044898D01*
X35254694Y-72060763D01*
X35254696Y-72060765D01*
X35288733Y-72079185D01*
X35339123Y-72129199D01*
X35354475Y-72198516D01*
X35329914Y-72265129D01*
X35288735Y-72300811D01*
X35254702Y-72319229D01*
X35234310Y-72335099D01*
X35234310Y-72335100D01*
X35742572Y-72843361D01*
X35776597Y-72905674D01*
X35771533Y-72976489D01*
X35732854Y-73028157D01*
X35733711Y-73029147D01*
X35729164Y-73033086D01*
X35728986Y-73033325D01*
X35728498Y-73033663D01*
X35618238Y-73129202D01*
X35582175Y-73185318D01*
X35528519Y-73231811D01*
X35458245Y-73241914D01*
X35393664Y-73212421D01*
X35387082Y-73206292D01*
X34876922Y-72696132D01*
X34801580Y-72811451D01*
X34711179Y-73017543D01*
X34711176Y-73017550D01*
X34655932Y-73235707D01*
X34637346Y-73459999D01*
X34655932Y-73684292D01*
X34711176Y-73902449D01*
X34711179Y-73902456D01*
X34801580Y-74108548D01*
X34876922Y-74223866D01*
X35387081Y-73713706D01*
X35449394Y-73679681D01*
X35520209Y-73684745D01*
X35577045Y-73727292D01*
X35582162Y-73734661D01*
X35618239Y-73790798D01*
X35726900Y-73884952D01*
X35726901Y-73884952D01*
X35733711Y-73890853D01*
X35731686Y-73893189D01*
X35768084Y-73935187D01*
X35778195Y-74005460D01*
X35748709Y-74070043D01*
X35742572Y-74076636D01*
X35234309Y-74584899D01*
X35236528Y-74620621D01*
X35220786Y-74689851D01*
X35178113Y-74734924D01*
X35090824Y-74790122D01*
X35090823Y-74790122D01*
X34908531Y-74951619D01*
X34908522Y-74951629D01*
X34754493Y-75140281D01*
X34632715Y-75351205D01*
X34632712Y-75351210D01*
X34546345Y-75578939D01*
X34497626Y-75817579D01*
X34487819Y-76060937D01*
X34487819Y-76060944D01*
X31075500Y-76060944D01*
X31075500Y-56448597D01*
X109592000Y-56448597D01*
X109598505Y-56509093D01*
X109649555Y-56645964D01*
X109649555Y-56645965D01*
X109737095Y-56762904D01*
X109854034Y-56850444D01*
X109990906Y-56901494D01*
X110051402Y-56907999D01*
X110051415Y-56908000D01*
X110746000Y-56908000D01*
X110746000Y-56063296D01*
X110766002Y-55995175D01*
X110819658Y-55948682D01*
X110889932Y-55938578D01*
X110909130Y-55942892D01*
X110932173Y-55950000D01*
X110932174Y-55950000D01*
X111033724Y-55950000D01*
X111109222Y-55938620D01*
X111179560Y-55948244D01*
X111233531Y-55994371D01*
X111253997Y-56062354D01*
X111254000Y-56063212D01*
X111254000Y-56908000D01*
X111948585Y-56908000D01*
X111948597Y-56907999D01*
X112009093Y-56901494D01*
X112145964Y-56850444D01*
X112145965Y-56850444D01*
X112262904Y-56762904D01*
X112350444Y-56645965D01*
X112373877Y-56583138D01*
X112416423Y-56526302D01*
X112482943Y-56501491D01*
X112552318Y-56516582D01*
X112578356Y-56536929D01*
X112578946Y-56536289D01*
X112582778Y-56539817D01*
X112638437Y-56583138D01*
X112766983Y-56683190D01*
X112972273Y-56794287D01*
X113193049Y-56870080D01*
X113423288Y-56908500D01*
X113423292Y-56908500D01*
X113656708Y-56908500D01*
X113656712Y-56908500D01*
X113886951Y-56870080D01*
X114107727Y-56794287D01*
X114313017Y-56683190D01*
X114497220Y-56539818D01*
X114509283Y-56526715D01*
X114588817Y-56440318D01*
X114655314Y-56368083D01*
X114656943Y-56365588D01*
X114657875Y-56364793D01*
X114658517Y-56363969D01*
X114658686Y-56364100D01*
X114710944Y-56319499D01*
X114762429Y-56308500D01*
X116830811Y-56308500D01*
X116898932Y-56328502D01*
X116919906Y-56345404D01*
X117080700Y-56506198D01*
X117268251Y-56637523D01*
X117475757Y-56734284D01*
X117696913Y-56793543D01*
X117925000Y-56813498D01*
X118153087Y-56793543D01*
X118374243Y-56734284D01*
X118581749Y-56637523D01*
X118769300Y-56506198D01*
X118931198Y-56344300D01*
X119062523Y-56156749D01*
X119159284Y-55949243D01*
X119218543Y-55728087D01*
X119238498Y-55500000D01*
X119218543Y-55271913D01*
X119159284Y-55050757D01*
X119062523Y-54843251D01*
X118931198Y-54655700D01*
X118769300Y-54493802D01*
X118765011Y-54490799D01*
X118581749Y-54362477D01*
X118374246Y-54265717D01*
X118374240Y-54265715D01*
X118266096Y-54236738D01*
X118153087Y-54206457D01*
X117925000Y-54186502D01*
X117696913Y-54206457D01*
X117475759Y-54265715D01*
X117475753Y-54265717D01*
X117268250Y-54362477D01*
X117080703Y-54493799D01*
X116919906Y-54654596D01*
X116857594Y-54688621D01*
X116830811Y-54691500D01*
X114762429Y-54691500D01*
X114694308Y-54671498D01*
X114658549Y-54636005D01*
X114658517Y-54636031D01*
X114658319Y-54635777D01*
X114656944Y-54634412D01*
X114655314Y-54631917D01*
X114655311Y-54631914D01*
X114655310Y-54631912D01*
X114497225Y-54460186D01*
X114497221Y-54460182D01*
X114405118Y-54388496D01*
X114313017Y-54316810D01*
X114107727Y-54205713D01*
X114107724Y-54205712D01*
X114107723Y-54205711D01*
X113886955Y-54129921D01*
X113886948Y-54129919D01*
X113788411Y-54113476D01*
X113656712Y-54091500D01*
X113423288Y-54091500D01*
X113308066Y-54110727D01*
X113193051Y-54129919D01*
X113193044Y-54129921D01*
X112972276Y-54205711D01*
X112972273Y-54205713D01*
X112883431Y-54253792D01*
X112766985Y-54316809D01*
X112766983Y-54316810D01*
X112582778Y-54460182D01*
X112578946Y-54463711D01*
X112577688Y-54462345D01*
X112523763Y-54494742D01*
X112452799Y-54492598D01*
X112394260Y-54452428D01*
X112373877Y-54416861D01*
X112350444Y-54354034D01*
X112262904Y-54237095D01*
X112145965Y-54149555D01*
X112009093Y-54098505D01*
X111948597Y-54092000D01*
X111254000Y-54092000D01*
X111254000Y-54936703D01*
X111233998Y-55004824D01*
X111180342Y-55051317D01*
X111110068Y-55061421D01*
X111090862Y-55057105D01*
X111067827Y-55050000D01*
X110966276Y-55050000D01*
X110890776Y-55061379D01*
X110820438Y-55051754D01*
X110766468Y-55005627D01*
X110746003Y-54937644D01*
X110746000Y-54936787D01*
X110746000Y-54092000D01*
X110051402Y-54092000D01*
X109990906Y-54098505D01*
X109854035Y-54149555D01*
X109854034Y-54149555D01*
X109737095Y-54237095D01*
X109649555Y-54354034D01*
X109649555Y-54354035D01*
X109598505Y-54490906D01*
X109592000Y-54551402D01*
X109592000Y-55246000D01*
X110438402Y-55246000D01*
X110506523Y-55266002D01*
X110553016Y-55319658D01*
X110563120Y-55389932D01*
X110561243Y-55400036D01*
X110546190Y-55465987D01*
X110546190Y-55465990D01*
X110546190Y-55465992D01*
X110555488Y-55590075D01*
X110557033Y-55610681D01*
X110555364Y-55610806D01*
X110551689Y-55670823D01*
X110509725Y-55728091D01*
X110443462Y-55753581D01*
X110433189Y-55754000D01*
X109592000Y-55754000D01*
X109592000Y-56448597D01*
X31075500Y-56448597D01*
X31075500Y-52201500D01*
X31095502Y-52133379D01*
X31149158Y-52086886D01*
X31201500Y-52075500D01*
X250798500Y-52075500D01*
X250866621Y-52095502D01*
G37*
G04 #@! TD.AperFunction*
M02*
