%TF.GenerationSoftware,KiCad,Pcbnew,7.0.7-7.0.7~ubuntu22.04.1*%
%TF.CreationDate,2023-09-23T23:40:23+02:00*%
%TF.ProjectId,Distrib,44697374-7269-4622-9e6b-696361645f70,rev?*%
%TF.SameCoordinates,Original*%
%TF.FileFunction,Drillmap*%
%TF.FilePolarity,Positive*%
%FSLAX45Y45*%
G04 Gerber Fmt 4.5, Leading zero omitted, Abs format (unit mm)*
G04 Created by KiCad (PCBNEW 7.0.7-7.0.7~ubuntu22.04.1) date 2023-09-23 23:40:23*
%MOMM*%
%LPD*%
G01*
G04 APERTURE LIST*
%ADD10C,0.150000*%
%ADD11C,0.200000*%
G04 APERTURE END LIST*
D10*
X25100000Y-5200000D02*
X3100000Y-5200000D01*
X25100000Y-5200000D02*
X25100000Y-9000000D01*
X3100000Y-9000000D02*
X25100000Y-9000000D01*
X3100000Y-5200000D02*
X3100000Y-9000000D01*
D11*
X3353277Y-9318984D02*
X3353277Y-9118984D01*
X3353277Y-9118984D02*
X3400896Y-9118984D01*
X3400896Y-9118984D02*
X3429467Y-9128508D01*
X3429467Y-9128508D02*
X3448515Y-9147555D01*
X3448515Y-9147555D02*
X3458039Y-9166603D01*
X3458039Y-9166603D02*
X3467562Y-9204698D01*
X3467562Y-9204698D02*
X3467562Y-9233270D01*
X3467562Y-9233270D02*
X3458039Y-9271365D01*
X3458039Y-9271365D02*
X3448515Y-9290412D01*
X3448515Y-9290412D02*
X3429467Y-9309460D01*
X3429467Y-9309460D02*
X3400896Y-9318984D01*
X3400896Y-9318984D02*
X3353277Y-9318984D01*
X3553277Y-9318984D02*
X3553277Y-9185650D01*
X3553277Y-9223746D02*
X3562801Y-9204698D01*
X3562801Y-9204698D02*
X3572324Y-9195174D01*
X3572324Y-9195174D02*
X3591372Y-9185650D01*
X3591372Y-9185650D02*
X3610420Y-9185650D01*
X3677086Y-9318984D02*
X3677086Y-9185650D01*
X3677086Y-9118984D02*
X3667562Y-9128508D01*
X3667562Y-9128508D02*
X3677086Y-9138031D01*
X3677086Y-9138031D02*
X3686610Y-9128508D01*
X3686610Y-9128508D02*
X3677086Y-9118984D01*
X3677086Y-9118984D02*
X3677086Y-9138031D01*
X3800896Y-9318984D02*
X3781848Y-9309460D01*
X3781848Y-9309460D02*
X3772324Y-9290412D01*
X3772324Y-9290412D02*
X3772324Y-9118984D01*
X3905658Y-9318984D02*
X3886610Y-9309460D01*
X3886610Y-9309460D02*
X3877086Y-9290412D01*
X3877086Y-9290412D02*
X3877086Y-9118984D01*
X4134229Y-9318984D02*
X4134229Y-9118984D01*
X4134229Y-9118984D02*
X4200896Y-9261841D01*
X4200896Y-9261841D02*
X4267563Y-9118984D01*
X4267563Y-9118984D02*
X4267563Y-9318984D01*
X4448515Y-9318984D02*
X4448515Y-9214222D01*
X4448515Y-9214222D02*
X4438991Y-9195174D01*
X4438991Y-9195174D02*
X4419944Y-9185650D01*
X4419944Y-9185650D02*
X4381848Y-9185650D01*
X4381848Y-9185650D02*
X4362801Y-9195174D01*
X4448515Y-9309460D02*
X4429467Y-9318984D01*
X4429467Y-9318984D02*
X4381848Y-9318984D01*
X4381848Y-9318984D02*
X4362801Y-9309460D01*
X4362801Y-9309460D02*
X4353277Y-9290412D01*
X4353277Y-9290412D02*
X4353277Y-9271365D01*
X4353277Y-9271365D02*
X4362801Y-9252317D01*
X4362801Y-9252317D02*
X4381848Y-9242793D01*
X4381848Y-9242793D02*
X4429467Y-9242793D01*
X4429467Y-9242793D02*
X4448515Y-9233270D01*
X4543753Y-9185650D02*
X4543753Y-9385650D01*
X4543753Y-9195174D02*
X4562801Y-9185650D01*
X4562801Y-9185650D02*
X4600896Y-9185650D01*
X4600896Y-9185650D02*
X4619944Y-9195174D01*
X4619944Y-9195174D02*
X4629467Y-9204698D01*
X4629467Y-9204698D02*
X4638991Y-9223746D01*
X4638991Y-9223746D02*
X4638991Y-9280889D01*
X4638991Y-9280889D02*
X4629467Y-9299936D01*
X4629467Y-9299936D02*
X4619944Y-9309460D01*
X4619944Y-9309460D02*
X4600896Y-9318984D01*
X4600896Y-9318984D02*
X4562801Y-9318984D01*
X4562801Y-9318984D02*
X4543753Y-9309460D01*
X4724705Y-9299936D02*
X4734229Y-9309460D01*
X4734229Y-9309460D02*
X4724705Y-9318984D01*
X4724705Y-9318984D02*
X4715182Y-9309460D01*
X4715182Y-9309460D02*
X4724705Y-9299936D01*
X4724705Y-9299936D02*
X4724705Y-9318984D01*
X4724705Y-9195174D02*
X4734229Y-9204698D01*
X4734229Y-9204698D02*
X4724705Y-9214222D01*
X4724705Y-9214222D02*
X4715182Y-9204698D01*
X4715182Y-9204698D02*
X4724705Y-9195174D01*
X4724705Y-9195174D02*
X4724705Y-9214222D01*
M02*
