M48
; DRILL file {KiCad 7.0.7-7.0.7~ubuntu22.04.1} date Sat Sep 23 23:40:23 2023
; FORMAT={-:-/ absolute / metric / decimal}
; #@! TF.CreationDate,2023-09-23T23:40:23+02:00
; #@! TF.GenerationSoftware,Kicad,Pcbnew,7.0.7-7.0.7~ubuntu22.04.1
; #@! TF.FileFunction,Plated,1,2,PTH
FMAT,2
METRIC
; #@! TA.AperFunction,Plated,PTH,ComponentDrill
T1C0.800
; #@! TA.AperFunction,Plated,PTH,ComponentDrill
T2C0.900
; #@! TA.AperFunction,Plated,PTH,ComponentDrill
T3C1.000
; #@! TA.AperFunction,Plated,PTH,ComponentDrill
T4C1.520
; #@! TA.AperFunction,Plated,PTH,ViaDrill
T5C3.500
%
G90
G05
T1
X117.925Y-55.5
X127.0Y-86.0
X129.0Y-86.0
X130.625Y-55.5
X152.0Y-86.0
X154.0Y-86.0
X158.65Y-55.5
X171.35Y-55.5
T2
X111.0Y-55.5
X113.54Y-55.5
X151.5Y-55.5
X154.04Y-55.5
T3
X36.0Y-65.84
X36.0Y-68.38
X36.0Y-70.92
X36.0Y-73.46
X36.0Y-76.0
X38.54Y-65.84
X38.54Y-68.38
X38.54Y-70.92
X38.54Y-73.46
X38.54Y-76.0
X53.0Y-65.84
X53.0Y-68.38
X53.0Y-70.92
X53.0Y-73.46
X53.0Y-76.0
X55.54Y-65.84
X55.54Y-68.38
X55.54Y-70.92
X55.54Y-73.46
X55.54Y-76.0
X70.0Y-65.84
X70.0Y-68.38
X70.0Y-70.92
X70.0Y-73.46
X70.0Y-76.0
X72.54Y-65.84
X72.54Y-68.38
X72.54Y-70.92
X72.54Y-73.46
X72.54Y-76.0
X87.0Y-65.84
X87.0Y-68.38
X87.0Y-70.92
X87.0Y-73.46
X87.0Y-76.0
X89.54Y-65.84
X89.54Y-68.38
X89.54Y-70.92
X89.54Y-73.46
X89.54Y-76.0
X104.0Y-65.84
X104.0Y-68.38
X104.0Y-70.92
X104.0Y-73.46
X104.0Y-76.0
X106.54Y-65.84
X106.54Y-68.38
X106.54Y-70.92
X106.54Y-73.46
X106.54Y-76.0
X121.0Y-65.84
X121.0Y-68.38
X121.0Y-70.92
X121.0Y-73.46
X121.0Y-76.0
X123.54Y-65.84
X123.54Y-68.38
X123.54Y-70.92
X123.54Y-73.46
X123.54Y-76.0
X135.5Y-70.5
X140.5Y-70.5
X145.5Y-70.5
X158.46Y-65.84
X158.46Y-68.38
X158.46Y-70.92
X158.46Y-73.46
X158.46Y-76.0
X161.0Y-65.84
X161.0Y-68.38
X161.0Y-70.92
X161.0Y-73.46
X161.0Y-76.0
X175.46Y-65.84
X175.46Y-68.38
X175.46Y-70.92
X175.46Y-73.46
X175.46Y-76.0
X178.0Y-65.84
X178.0Y-68.38
X178.0Y-70.92
X178.0Y-73.46
X178.0Y-76.0
X192.46Y-65.84
X192.46Y-68.38
X192.46Y-70.92
X192.46Y-73.46
X192.46Y-76.0
X195.0Y-65.84
X195.0Y-68.38
X195.0Y-70.92
X195.0Y-73.46
X195.0Y-76.0
X209.46Y-65.84
X209.46Y-68.38
X209.46Y-70.92
X209.46Y-73.46
X209.46Y-76.0
X212.0Y-65.84
X212.0Y-68.38
X212.0Y-70.92
X212.0Y-73.46
X212.0Y-76.0
X226.46Y-65.84
X226.46Y-68.38
X226.46Y-70.92
X226.46Y-73.46
X226.46Y-76.0
X229.0Y-65.84
X229.0Y-68.38
X229.0Y-70.92
X229.0Y-73.46
X229.0Y-76.0
X243.46Y-65.84
X243.46Y-68.38
X243.46Y-70.92
X243.46Y-73.46
X243.46Y-76.0
X246.0Y-65.84
X246.0Y-68.38
X246.0Y-70.92
X246.0Y-73.46
X246.0Y-76.0
T4
X135.42Y-56.0
X135.42Y-86.0
X140.5Y-56.0
X140.5Y-86.0
X145.58Y-56.0
X145.58Y-86.0
T5
X54.0Y-57.0
X54.0Y-85.0
X228.0Y-57.0
X228.0Y-85.0
T0
M30
